<svg width="18" height="18" viewBox="0 0 18 18" fill="none" xmlns="http://www.w3.org/2000/svg">
<path d="M17 9C17 13.4183 13.4183 17 9 17C7.67588 17 6.42964 16.6791 5.33201 16.1117C5.03343 15.9573 4.72675 15.9291 4.4998 15.9315C4.26446 15.934 4.03001 15.9712 3.82153 16.0156C3.45706 16.0931 3.05299 16.2206 2.70534 16.3302C2.66293 16.3436 2.62136 16.3567 2.5808 16.3694C2.29702 16.4585 2.05666 16.5306 1.85498 16.5788C1.88628 16.3546 1.9412 16.0853 2.00981 15.7693C2.0198 15.7234 2.03011 15.6762 2.04062 15.6282C2.11998 15.2655 2.21062 14.8512 2.25823 14.4825C2.28566 14.27 2.30431 14.0352 2.29142 13.8044C2.27913 13.5845 2.23445 13.2842 2.06965 12.9993C1.38955 11.8236 1 10.4588 1 9C1 4.58172 4.58172 1 9 1C13.4183 1 17 4.58172 17 9Z" stroke="#767B82" stroke-width="2"/>
<path d="M5 7H13" stroke="#767B82" stroke-width="2" stroke-linecap="round" stroke-linejoin="round"/>
<path d="M5 11H13" stroke="#767B82" stroke-width="2" stroke-linecap="round" stroke-linejoin="round"/>
</svg>
