<svg width="18" height="18" viewBox="0 0 18 18" fill="none" xmlns="http://www.w3.org/2000/svg">
<g id="ic_doc_revise_nor">
<path id="Vector" d="M7.52729 3.59582L5.93632 2.00483C5.64344 1.71193 5.16854 1.71193 4.87567 2.00483L2.75434 4.12615C2.46145 4.41902 2.46145 4.89392 2.75434 5.1868L4.34534 6.77781" stroke="white" stroke-width="1.5" stroke-linecap="round" stroke-linejoin="round"/>
<path id="Vector_2" d="M10.8491 14.0316L12.4401 15.6226C12.733 15.9155 13.2079 15.9155 13.5008 15.6226L15.6221 13.5013C15.915 13.2084 15.915 12.7335 15.6221 12.4406L14.0311 10.8496" stroke="white" stroke-width="1.5" stroke-linecap="round" stroke-linejoin="round"/>
<path id="Vector_3" d="M15.6277 4.49149L13.5064 2.37017C13.2135 2.07728 12.7386 2.07728 12.4457 2.37017L2.36947 12.4464C2.07658 12.7393 2.07658 13.2142 2.36947 13.5071L4.49079 15.6284C4.78369 15.9213 5.25856 15.9213 5.55145 15.6284L15.6277 5.55215C15.9206 5.25926 15.9206 4.78439 15.6277 4.49149Z" fill="white" stroke="white" stroke-width="1.5" stroke-linecap="round" stroke-linejoin="round"/>
<path id="Vector_4" d="M8.99951 9.75195C9.41373 9.75195 9.74951 9.41617 9.74951 9.00195C9.74951 8.58774 9.41373 8.25195 8.99951 8.25195C8.5853 8.25195 8.24951 8.58774 8.24951 9.00195C8.24951 9.41617 8.5853 9.75195 8.99951 9.75195Z" fill="#181819"/>
<path id="Vector_5" d="M7.5 11.25C7.91421 11.25 8.25 10.9142 8.25 10.5C8.25 10.0858 7.91421 9.75 7.5 9.75C7.08579 9.75 6.75 10.0858 6.75 10.5C6.75 10.9142 7.08579 11.25 7.5 11.25Z" fill="#181819"/>
<path id="Vector_6" d="M10.5005 8.25C10.9147 8.25 11.2505 7.91421 11.2505 7.5C11.2505 7.08579 10.9147 6.75 10.5005 6.75C10.0863 6.75 9.75049 7.08579 9.75049 7.5C9.75049 7.91421 10.0863 8.25 10.5005 8.25Z" fill="#181819"/>
</g>
</svg>
