<svg width="16" height="16" viewBox="0 0 16 16" fill="none" xmlns="http://www.w3.org/2000/svg">
<mask id="path-1-outside-1_4317_23423" maskUnits="userSpaceOnUse" x="0.144531" y="0.140625" width="15" height="15" fill="black">
<rect fill="white" x="0.144531" y="0.140625" width="15" height="15"/>
<path d="M1.66406 14.0996H13.7852C13.8517 14.0932 13.9188 14.0932 13.9854 14.0996C14.078 14.1153 14.1615 14.1659 14.2178 14.2412C14.274 14.3164 14.2992 14.4107 14.2881 14.5039C14.282 14.5935 14.2434 14.678 14.1797 14.7412C14.1158 14.8045 14.0302 14.8424 13.9404 14.8477H1.68262C1.62263 14.8586 1.56057 14.8577 1.50098 14.8447C1.4415 14.8317 1.38488 14.8063 1.33496 14.7715C1.28513 14.7366 1.24258 14.692 1.20996 14.6406C1.17733 14.5892 1.15488 14.5317 1.14453 14.4717V14.418C1.1794 14.3121 1.25068 14.2214 1.3457 14.1631C1.44071 14.1048 1.5539 14.0827 1.66406 14.0996ZM10.6631 1.14062C10.9342 1.20315 11.2004 1.28592 11.459 1.38867C11.7485 1.51564 12.0053 1.70725 12.21 1.94824C12.4146 2.18932 12.5623 2.47388 12.6406 2.78027C12.7713 3.19978 12.7827 3.64732 12.6748 4.07324C12.567 4.49899 12.3437 4.8867 12.0293 5.19336L6.04688 11.1729C5.9699 11.2447 5.87492 11.2952 5.77246 11.3193C4.64221 11.574 3.51184 11.819 2.38477 12.0674C1.99335 12.1532 1.7639 11.9214 1.84961 11.5332C2.09793 10.403 2.34029 9.2725 2.5918 8.14551C2.6149 8.04613 2.66468 7.95444 2.73535 7.88086C4.73691 5.87081 6.73867 3.86064 8.74023 1.85059C9.10389 1.47023 9.58737 1.2267 10.1094 1.16016C10.1262 1.15659 10.1426 1.14967 10.1572 1.14062H10.6631ZM3.18457 8.96387C3.02539 9.68653 2.85619 10.4507 2.7002 11.2402L4.98926 10.7275L5.02148 10.6797L3.2002 8.96387H3.18457ZM3.52148 8.18945L5.7793 10.3994L11.0264 5.09863C10.2813 4.39182 9.51383 3.65896 8.76562 2.95215L3.52148 8.18945ZM10.4053 1.8877C9.99859 1.89783 9.6108 2.06379 9.32227 2.35059L11.5518 4.62402C11.7045 4.46999 11.8244 4.2863 11.9053 4.08496C11.9861 3.88363 12.0263 3.66808 12.0225 3.45117C12.0186 3.23431 11.9707 3.02055 11.8828 2.82227C11.7948 2.62389 11.668 2.44443 11.5098 2.2959C11.2074 2.02387 10.8119 1.87763 10.4053 1.8877Z"/>
</mask>
<path d="M1.66406 14.0996H13.7852C13.8517 14.0932 13.9188 14.0932 13.9854 14.0996C14.078 14.1153 14.1615 14.1659 14.2178 14.2412C14.274 14.3164 14.2992 14.4107 14.2881 14.5039C14.282 14.5935 14.2434 14.678 14.1797 14.7412C14.1158 14.8045 14.0302 14.8424 13.9404 14.8477H1.68262C1.62263 14.8586 1.56057 14.8577 1.50098 14.8447C1.4415 14.8317 1.38488 14.8063 1.33496 14.7715C1.28513 14.7366 1.24258 14.692 1.20996 14.6406C1.17733 14.5892 1.15488 14.5317 1.14453 14.4717V14.418C1.1794 14.3121 1.25068 14.2214 1.3457 14.1631C1.44071 14.1048 1.5539 14.0827 1.66406 14.0996ZM10.6631 1.14062C10.9342 1.20315 11.2004 1.28592 11.459 1.38867C11.7485 1.51564 12.0053 1.70725 12.21 1.94824C12.4146 2.18932 12.5623 2.47388 12.6406 2.78027C12.7713 3.19978 12.7827 3.64732 12.6748 4.07324C12.567 4.49899 12.3437 4.8867 12.0293 5.19336L6.04688 11.1729C5.9699 11.2447 5.87492 11.2952 5.77246 11.3193C4.64221 11.574 3.51184 11.819 2.38477 12.0674C1.99335 12.1532 1.7639 11.9214 1.84961 11.5332C2.09793 10.403 2.34029 9.2725 2.5918 8.14551C2.6149 8.04613 2.66468 7.95444 2.73535 7.88086C4.73691 5.87081 6.73867 3.86064 8.74023 1.85059C9.10389 1.47023 9.58737 1.2267 10.1094 1.16016C10.1262 1.15659 10.1426 1.14967 10.1572 1.14062H10.6631ZM3.18457 8.96387C3.02539 9.68653 2.85619 10.4507 2.7002 11.2402L4.98926 10.7275L5.02148 10.6797L3.2002 8.96387H3.18457ZM3.52148 8.18945L5.7793 10.3994L11.0264 5.09863C10.2813 4.39182 9.51383 3.65896 8.76562 2.95215L3.52148 8.18945ZM10.4053 1.8877C9.99859 1.89783 9.6108 2.06379 9.32227 2.35059L11.5518 4.62402C11.7045 4.46999 11.8244 4.2863 11.9053 4.08496C11.9861 3.88363 12.0263 3.66808 12.0225 3.45117C12.0186 3.23431 11.9707 3.02055 11.8828 2.82227C11.7948 2.62389 11.668 2.44443 11.5098 2.2959C11.2074 2.02387 10.8119 1.87763 10.4053 1.8877Z" fill="#6216FF"/>
<path d="M1.66406 14.0996L1.63376 14.2973L1.64882 14.2996H1.66406V14.0996ZM13.7852 14.0996V14.2996H13.7947L13.8043 14.2987L13.7852 14.0996ZM13.9854 14.0996L14.0187 13.9024L14.0117 13.9012L14.0046 13.9005L13.9854 14.0996ZM14.2178 14.2412L14.378 14.1215L14.3779 14.1214L14.2178 14.2412ZM14.2881 14.5039L14.0892 14.4802L14.0885 14.4904L14.2881 14.5039ZM14.1797 14.7412L14.3205 14.8833L14.3206 14.8832L14.1797 14.7412ZM13.9404 14.8477V15.048L13.952 15.0473L13.9404 14.8477ZM1.68262 14.8477V14.6477H1.66449L1.64666 14.6509L1.68262 14.8477ZM1.50098 14.8447L1.45827 15.0401L1.45845 15.0402L1.50098 14.8447ZM1.33496 14.7715L1.22025 14.9353L1.22046 14.9355L1.33496 14.7715ZM1.20996 14.6406L1.04107 14.7478L1.04115 14.7479L1.20996 14.6406ZM1.14453 14.4717H0.944531V14.4888L0.947438 14.5057L1.14453 14.4717ZM1.14453 14.418L0.954566 14.3554L0.944531 14.3859V14.418H1.14453ZM1.3457 14.1631L1.24115 13.9926L1.24112 13.9926L1.3457 14.1631ZM10.6631 1.14062L10.708 0.945739L10.6858 0.940625H10.6631V1.14062ZM11.459 1.38867L11.5393 1.20539L11.5328 1.20281L11.459 1.38867ZM12.21 1.94824L12.3624 1.8188L12.3624 1.81879L12.21 1.94824ZM12.6406 2.78027L12.4466 2.82987L12.4497 2.83974L12.6406 2.78027ZM12.6748 4.07324L12.8687 4.12235L12.8687 4.12235L12.6748 4.07324ZM12.0293 5.19336L11.8896 5.05018L11.8879 5.0519L12.0293 5.19336ZM6.04688 11.1729L6.18339 11.3192L6.18826 11.3143L6.04688 11.1729ZM5.77246 11.3193L5.81643 11.5145L5.81837 11.514L5.77246 11.3193ZM2.38477 12.0674L2.42762 12.2627L2.4278 12.2627L2.38477 12.0674ZM1.84961 11.5332L2.04491 11.5763L2.04495 11.5761L1.84961 11.5332ZM2.5918 8.14551L2.39698 8.10022L2.3966 8.10195L2.5918 8.14551ZM2.73535 7.88086L2.59361 7.73971L2.59111 7.74232L2.73535 7.88086ZM8.74023 1.85059L8.88198 1.99174L8.88479 1.9888L8.74023 1.85059ZM10.1094 1.16016L10.1347 1.35855L10.1428 1.35751L10.1509 1.35581L10.1094 1.16016ZM10.1572 1.14062V0.940625H10.1004L10.0521 0.970459L10.1572 1.14062ZM3.18457 8.96387V8.76387H3.02383L2.98925 8.92085L3.18457 8.96387ZM2.7002 11.2402L2.50399 11.2015L2.44452 11.5025L2.74391 11.4354L2.7002 11.2402ZM4.98926 10.7275L5.03297 10.9227L5.11067 10.9053L5.15515 10.8393L4.98926 10.7275ZM5.02148 10.6797L5.18737 10.7914L5.28223 10.6506L5.15863 10.5341L5.02148 10.6797ZM3.2002 8.96387L3.33734 8.81829L3.27957 8.76387H3.2002V8.96387ZM3.52148 8.18945L3.38016 8.04794L3.23702 8.19088L3.38159 8.33238L3.52148 8.18945ZM5.7793 10.3994L5.6394 10.5423L5.78153 10.6815L5.92144 10.5401L5.7793 10.3994ZM11.0264 5.09863L11.1685 5.23933L11.3122 5.09414L11.164 4.95354L11.0264 5.09863ZM8.76562 2.95215L8.90297 2.80676L8.76175 2.67336L8.6243 2.81063L8.76562 2.95215ZM10.4053 1.8877L10.4003 1.68776L10.4003 1.68776L10.4053 1.8877ZM9.32227 2.35059L9.18127 2.20874L9.04038 2.34879L9.17947 2.49062L9.32227 2.35059ZM11.5518 4.62402L11.409 4.76406L11.551 4.90884L11.6938 4.76487L11.5518 4.62402ZM11.9053 4.08496L12.0909 4.15948L12.0909 4.15946L11.9053 4.08496ZM12.0225 3.45117L12.2224 3.44762V3.44759L12.0225 3.45117ZM11.8828 2.82227L12.0657 2.74121L12.0656 2.74119L11.8828 2.82227ZM11.5098 2.2959L11.6467 2.15005L11.6435 2.14721L11.5098 2.2959ZM1.66406 14.0996V14.2996H13.7852V14.0996V13.8996H1.66406V14.0996ZM13.7852 14.0996L13.8043 14.2987C13.8582 14.2935 13.9124 14.2935 13.9661 14.2987L13.9854 14.0996L14.0046 13.9005C13.9252 13.8929 13.8453 13.8929 13.766 13.9005L13.7852 14.0996ZM13.9854 14.0996L13.952 14.2968C13.9944 14.304 14.0323 14.3272 14.0576 14.361L14.2178 14.2412L14.3779 14.1214C14.2906 14.0047 14.1616 13.9266 14.0187 13.9024L13.9854 14.0996ZM14.2178 14.2412L14.0575 14.3609C14.0831 14.3951 14.0945 14.438 14.0895 14.4802L14.2881 14.5039L14.4867 14.5276C14.5039 14.3833 14.4649 14.2378 14.378 14.1215L14.2178 14.2412ZM14.2881 14.5039L14.0885 14.4904C14.0858 14.5314 14.068 14.5703 14.0388 14.5992L14.1797 14.7412L14.3206 14.8832C14.4188 14.7857 14.4783 14.6555 14.4876 14.5175L14.2881 14.5039ZM14.1797 14.7412L14.0389 14.5991C14.0099 14.6279 13.9703 14.6456 13.9288 14.648L13.9404 14.8477L13.952 15.0473C14.0901 15.0393 14.2217 14.9811 14.3205 14.8833L14.1797 14.7412ZM13.9404 14.8477V14.6477H1.68262V14.8477V15.0477H13.9404V14.8477ZM1.68262 14.8477L1.64666 14.6509C1.61241 14.6572 1.57703 14.6566 1.5435 14.6493L1.50098 14.8447L1.45845 15.0402C1.54411 15.0588 1.63284 15.0601 1.71857 15.0444L1.68262 14.8477ZM1.50098 14.8447L1.54369 14.6493C1.5112 14.6422 1.4788 14.628 1.44946 14.6075L1.33496 14.7715L1.22046 14.9355C1.29096 14.9847 1.3718 15.0212 1.45827 15.0401L1.50098 14.8447ZM1.33496 14.7715L1.44967 14.6076C1.42159 14.588 1.39737 14.5626 1.37877 14.5334L1.20996 14.6406L1.04115 14.7479C1.0878 14.8213 1.14868 14.8852 1.22025 14.9353L1.33496 14.7715ZM1.20996 14.6406L1.37885 14.5335C1.36002 14.5038 1.34739 14.4711 1.34162 14.4377L1.14453 14.4717L0.947438 14.5057C0.962373 14.5923 0.994638 14.6746 1.04107 14.7478L1.20996 14.6406ZM1.14453 14.4717H1.34453V14.418H1.14453H0.944531V14.4717H1.14453ZM1.14453 14.418L1.3345 14.4805C1.35472 14.4191 1.39601 14.3669 1.45029 14.3336L1.3457 14.1631L1.24112 13.9926C1.10536 14.0759 1.00408 14.205 0.954566 14.3554L1.14453 14.418ZM1.3457 14.1631L1.45026 14.3336C1.50416 14.3005 1.56945 14.2874 1.63376 14.2973L1.66406 14.0996L1.69437 13.9019C1.53836 13.878 1.37725 13.9091 1.24115 13.9926L1.3457 14.1631ZM10.6631 1.14062L10.6181 1.33551C10.8796 1.39579 11.136 1.47556 11.3851 1.57454L11.459 1.38867L11.5328 1.20281C11.2647 1.09628 10.9889 1.01051 10.708 0.945739L10.6631 1.14062ZM11.459 1.38867L11.3787 1.57184C11.6403 1.68655 11.8724 1.85974 12.0575 2.0777L12.21 1.94824L12.3624 1.81879C12.1382 1.55476 11.8568 1.34472 11.5393 1.20551L11.459 1.38867ZM12.21 1.94824L12.0575 2.07768C12.2427 2.29578 12.3761 2.55306 12.4469 2.8298L12.6406 2.78027L12.8344 2.73075C12.7485 2.3947 12.5866 2.08286 12.3624 1.8188L12.21 1.94824ZM12.6406 2.78027L12.4497 2.83974C12.5693 3.22383 12.5798 3.63378 12.4809 4.02413L12.6748 4.07324L12.8687 4.12235C12.9856 3.66085 12.9733 3.17573 12.8316 2.72081L12.6406 2.78027ZM12.6748 4.07324L12.4809 4.02413C12.3821 4.4142 12.1776 4.76933 11.8896 5.05019L12.0293 5.19336L12.1689 5.33653C12.5098 5.00407 12.7518 4.58379 12.8687 4.12235L12.6748 4.07324ZM12.0293 5.19336L11.8879 5.0519L5.90549 11.0314L6.04688 11.1729L6.18826 11.3143L12.1707 5.33482L12.0293 5.19336ZM6.04688 11.1729L5.91044 11.0266C5.85917 11.0744 5.79547 11.1084 5.72655 11.1247L5.77246 11.3193L5.81837 11.514C5.95437 11.4819 6.08064 11.4149 6.18331 11.3191L6.04688 11.1729ZM5.77246 11.3193L5.72849 11.1242C4.59885 11.3788 3.46971 11.6235 2.34173 11.8721L2.38477 12.0674L2.4278 12.2627C3.55397 12.0146 4.68557 11.7693 5.81643 11.5144L5.77246 11.3193ZM2.38477 12.0674L2.34191 11.872C2.18773 11.9059 2.11145 11.8684 2.07982 11.8368C2.04812 11.805 2.01123 11.7288 2.0449 11.5763L1.84961 11.5332L1.65431 11.4901C1.60228 11.7257 1.63726 11.9596 1.79671 12.1193C1.95624 12.2792 2.19039 12.3148 2.42762 12.2627L2.38477 12.0674ZM1.84961 11.5332L2.04495 11.5761C2.29361 10.4444 2.53553 9.31587 2.787 8.18907L2.5918 8.14551L2.3966 8.10195C2.14505 9.22913 1.90225 10.3617 1.65427 11.4903L1.84961 11.5332ZM2.5918 8.14551L2.7866 8.19079C2.80153 8.12656 2.8338 8.06708 2.8796 8.0194L2.73535 7.88086L2.59111 7.74232C2.49555 7.84181 2.42826 7.96569 2.39699 8.10023L2.5918 8.14551ZM2.73535 7.88086L2.87707 8.02198C3.87785 7.01696 4.87868 6.0119 5.87951 5.00685C6.88034 4.00179 7.88117 2.99673 8.88195 1.99171L8.74023 1.85059L8.59851 1.70946C7.59773 2.71449 6.5969 3.71954 5.59607 4.7246C4.59524 5.72965 3.59441 6.73471 2.59363 7.73974L2.73535 7.88086ZM8.74023 1.85059L8.88479 1.9888C9.21669 1.64166 9.65804 1.41931 10.1347 1.35855L10.1094 1.16016L10.0841 0.961762C9.51671 1.03409 8.99108 1.29881 8.59567 1.71237L8.74023 1.85059ZM10.1094 1.16016L10.1509 1.35581C10.1927 1.34694 10.2304 1.33053 10.2623 1.31079L10.1572 1.14062L10.0521 0.970459C10.0548 0.968817 10.0598 0.966231 10.0679 0.964505L10.1094 1.16016ZM10.1572 1.14062V1.34063H10.6631V1.14062V0.940625H10.1572V1.14062ZM3.18457 8.96387L2.98925 8.92085C2.83019 9.64301 2.66048 10.4094 2.50399 11.2015L2.7002 11.2402L2.8964 11.279C3.05189 10.492 3.2206 9.73004 3.37989 9.00689L3.18457 8.96387ZM2.7002 11.2402L2.74391 11.4354L5.03297 10.9227L4.98926 10.7275L4.94555 10.5324L2.65648 11.0451L2.7002 11.2402ZM4.98926 10.7275L5.15515 10.8393L5.18737 10.7914L5.02148 10.6797L4.8556 10.568L4.82337 10.6158L4.98926 10.7275ZM5.02148 10.6797L5.15863 10.5341L3.33734 8.81829L3.2002 8.96387L3.06305 9.10944L4.88434 10.8253L5.02148 10.6797ZM3.2002 8.96387V8.76387H3.18457V8.96387V9.16387H3.2002V8.96387ZM3.52148 8.18945L3.38159 8.33238L5.6394 10.5423L5.7793 10.3994L5.9192 10.2565L3.66138 8.04653L3.52148 8.18945ZM5.7793 10.3994L5.92144 10.5401L11.1685 5.23933L11.0264 5.09863L10.8842 4.95793L5.63716 10.2587L5.7793 10.3994ZM11.0264 5.09863L11.164 4.95354C10.4197 4.24744 9.65127 3.51367 8.90297 2.80676L8.76562 2.95215L8.62828 3.09753C9.37639 3.80426 10.143 4.53621 10.8887 5.24373L11.0264 5.09863ZM8.76562 2.95215L8.6243 2.81063L3.38016 8.04794L3.52148 8.18945L3.66281 8.33097L8.90695 3.09366L8.76562 2.95215ZM10.4053 1.8877L10.4003 1.68776C9.9424 1.69917 9.50598 1.88599 9.18127 2.20874L9.32227 2.35059L9.46326 2.49243C9.71562 2.24159 10.0548 2.0965 10.4103 2.08763L10.4053 1.8877ZM9.32227 2.35059L9.17947 2.49062L11.409 4.76406L11.5518 4.62402L11.6946 4.48399L9.46506 2.21055L9.32227 2.35059ZM11.5518 4.62402L11.6938 4.76487C11.8657 4.59153 12.0002 4.38519 12.0909 4.15948L11.9053 4.08496L11.7197 4.01044C11.6486 4.1874 11.5434 4.34844 11.4098 4.48318L11.5518 4.62402ZM11.9053 4.08496L12.0909 4.15946C12.1815 3.93366 12.2268 3.6916 12.2224 3.44762L12.0225 3.45117L11.8225 3.45473C11.8259 3.64457 11.7907 3.8336 11.7197 4.01046L11.9053 4.08496ZM12.0225 3.45117L12.2224 3.44759C12.2181 3.20365 12.1642 2.96358 12.0657 2.74121L11.8828 2.82227L11.7 2.90332C11.7772 3.07753 11.8191 3.26497 11.8225 3.45475L12.0225 3.45117ZM11.8828 2.82227L12.0656 2.74119C11.9669 2.51861 11.8245 2.31707 11.6467 2.15009L11.5098 2.2959L11.3729 2.44171C11.5114 2.57178 11.6228 2.72917 11.7 2.90334L11.8828 2.82227ZM11.5098 2.2959L11.6435 2.14721C11.3032 1.84103 10.8581 1.67643 10.4003 1.68776L10.4053 1.8877L10.4102 2.08763C10.7657 2.07884 11.1116 2.20671 11.376 2.44459L11.5098 2.2959Z" fill="#6216FF" mask="url(#path-1-outside-1_4317_23423)"/>
</svg>
