<svg width="14" height="14" viewBox="0 0 64 64" fill="none" xmlns="http://www.w3.org/2000/svg">
<circle cx="32" cy="32" r="32" fill="#161616" fill-opacity="0.8"/>
<path fill-rule="evenodd" clip-rule="evenodd" d="M42.648 23.8508C43.1993 23.2995 43.1993 22.4056 42.648 21.8543C42.0967 21.303 41.2028 21.303 40.6515 21.8543L32 30.5057L23.3486 21.8543C22.7972 21.3029 21.9034 21.3029 21.352 21.8543C20.8007 22.4056 20.8007 23.2995 21.352 23.8508L30.0035 32.5023L21.3516 41.1541C20.8003 41.7055 20.8003 42.5993 21.3516 43.1507C21.9029 43.702 22.7968 43.702 23.3481 43.1507L32 34.4988L40.6519 43.1507C41.2032 43.702 42.0971 43.702 42.6484 43.1507C43.1998 42.5993 43.1998 41.7055 42.6484 41.1541L33.9966 32.5023L42.648 23.8508Z" fill="white"/>
</svg>
