<svg width="12" height="12" viewBox="0 0 12 12" fill="none" xmlns="http://www.w3.org/2000/svg">
<g id="ic_globe" opacity="0.6">
<path id="Vector" d="M6.00273 1.00781C8.76458 1.00781 11.0035 3.24673 11.0035 6.00859C11.0035 8.77044 8.76458 11.0093 6.00273 11.0093C3.24087 11.0093 1.00195 8.77044 1.00195 6.00859C1.00195 3.24673 3.24087 1.00781 6.00273 1.00781ZM7.47218 8.25844H4.53327C4.85929 9.46554 5.42598 10.2593 6.00273 10.2593C6.57948 10.2593 7.14613 9.46554 7.47218 8.25844ZM3.75688 8.25874L2.39564 8.25869C2.87481 9.02519 3.59153 9.62799 4.44272 9.96399C4.18158 9.55409 3.96609 9.04094 3.80759 8.45624L3.75688 8.25874ZM9.60983 8.25869L8.24858 8.25874C8.08668 8.92564 7.85288 9.50854 7.56218 9.96399C8.36068 9.64899 9.04053 9.09949 9.51723 8.40044L9.60983 8.25869ZM3.54944 5.00826H1.87063L1.86826 5.01689C1.79221 5.33504 1.75195 5.66709 1.75195 6.00859C1.75195 6.53669 1.84824 7.04224 2.02423 7.50874L3.61081 7.50854C3.53966 7.03399 3.50195 6.52989 3.50195 6.00859C3.50195 5.66659 3.51818 5.33199 3.54944 5.00826ZM7.70118 5.00829H4.30426C4.27025 5.32844 4.25195 5.66329 4.25195 6.00859C4.25195 6.53834 4.29502 7.04349 4.37182 7.50864H7.63363C7.71043 7.04349 7.75348 6.53834 7.75348 6.00859C7.75348 5.66329 7.73518 5.32844 7.70118 5.00829ZM10.135 5.00784L8.45603 5.00827C8.48728 5.33199 8.50348 5.66659 8.50348 6.00859C8.50348 6.52989 8.46578 7.03399 8.39463 7.50854L9.98123 7.50874C10.1572 7.04224 10.2535 6.53669 10.2535 6.00859C10.2535 5.66389 10.2125 5.32879 10.135 5.00784ZM4.44325 2.05316L4.4318 2.05752C3.40814 2.46488 2.58013 3.25853 2.1278 4.25846L3.65186 4.25865C3.80854 3.38225 4.08196 2.61929 4.44325 2.05316ZM6.00273 1.75781L5.94488 1.76046C5.31218 1.81834 4.70094 2.81932 4.41708 4.25844H7.58838C7.30528 2.82336 6.69668 1.82395 6.06588 1.76097L6.00273 1.75781ZM7.56273 2.05319L7.61613 2.14024C7.95073 2.69647 8.20483 3.42641 8.35358 4.25865L9.87763 4.25846C9.44533 3.30276 8.66983 2.53549 7.70833 2.11383L7.56273 2.05319Z" fill="white"/>
</g>
</svg>
