<svg xmlns="http://www.w3.org/2000/svg" width="20" height="20" viewBox="0 0 20 20" fill="none">
  <g clip-path="url(#clip0_27026_201993)">
    <path d="M0.136356 11.3759C0.102314 11.7502 0.211376 12.105 0.301527 12.4591C0.668331 13.9096 1.35722 15.2589 2.31708 16.4068C3.27693 17.5547 4.48309 18.4718 5.84605 19.0901C8.06764 20.0933 10.3573 20.2615 12.705 19.62C14.0112 19.2626 15.2271 18.6335 16.2732 17.7737C18.0282 16.3427 19.1731 14.5209 19.719 12.3255C20.0374 11.0258 20.0842 9.67433 19.8565 8.35566C19.842 8.26807 19.8161 8.18237 19.7934 8.09604C19.7764 8.07021 19.7568 8.04627 19.7423 8.01917C19.6622 7.86575 19.5492 7.73189 19.4114 7.62715C19.2736 7.52242 19.1143 7.44939 18.945 7.41328C18.7756 7.37716 18.6004 7.37886 18.4318 7.41823C18.2632 7.45761 18.1054 7.53371 17.9696 7.64109C17.7212 7.83895 17.5914 8.10613 17.5283 8.41111C17.5195 8.8478 17.621 9.27504 17.6374 9.71046C17.6854 11.038 17.3874 12.3553 16.7727 13.5331C16.158 14.7108 15.2477 15.7088 14.131 16.429C13.0756 17.1085 11.8689 17.5173 10.6177 17.6193C9.25439 17.7397 7.88422 17.4834 6.65677 16.8783C5.34278 16.2453 4.23792 15.2489 3.47316 14.0074C2.91713 13.117 2.60381 12.1396 2.3983 11.1207C2.38128 11.0949 2.36173 11.0709 2.34723 11.0438C2.03581 10.4421 1.36 10.2247 0.754797 10.5303C0.406176 10.7086 0.229029 11.0111 0.136356 11.3759Z" fill="#DCDEE1"/>
    <path d="M0.136335 11.3759C0.229008 11.011 0.406155 10.7086 0.755405 10.5321C1.36061 10.2259 2.03642 10.4439 2.34784 11.0457C2.36234 11.0728 2.38188 11.0967 2.3989 11.1226C2.43043 11.1011 2.4279 11.0715 2.42097 11.0388C2.36936 10.7511 2.34216 10.4595 2.33965 10.1673C2.33442 9.74394 2.36457 9.32091 2.4298 8.90259C2.51952 8.21212 2.71292 7.53912 3.00348 6.90631C3.27621 6.28745 3.63118 5.70818 4.05879 5.18414C4.48689 4.66808 4.97514 4.20501 5.51317 3.80476C5.95512 3.48531 6.43026 3.21447 6.93035 2.99692C7.71504 2.64791 8.55397 2.43646 9.41041 2.37182C9.8633 2.33529 10.3187 2.34226 10.7702 2.39262C11.3626 2.45461 11.946 2.58313 12.5095 2.77574C13.5972 3.15367 14.5858 3.77158 15.4019 4.58361C15.7704 4.94761 16.0982 5.35053 16.3797 5.78529C16.8881 6.56127 17.2546 7.42132 17.4621 8.32538C17.4716 8.36886 17.4722 8.40982 17.5289 8.41297C17.592 8.10799 17.7231 7.84081 17.9702 7.64294C18.106 7.53556 18.2638 7.45947 18.4324 7.42009C18.601 7.38071 18.7762 7.37902 18.9456 7.41513C19.1149 7.45125 19.2742 7.52428 19.412 7.62901C19.5498 7.73375 19.6628 7.8676 19.743 8.02103C19.7575 8.04812 19.777 8.07207 19.794 8.0979C19.8476 8.04812 19.7991 7.99645 19.789 7.95234C19.5891 7.0358 19.2668 6.15029 18.8307 5.31962C18.0409 3.80781 16.8733 2.5259 15.4413 1.59842C14.0094 0.670935 12.3618 0.129408 10.6586 0.0264438C10.335 -0.00154685 10.0098 -0.00849216 9.68527 0.00565001C8.81756 0.0335003 7.95716 0.174152 7.12578 0.424062C6.56447 0.594256 6.01849 0.811371 5.49362 1.07311C4.91041 1.37034 4.35728 1.72318 3.84193 2.1267C3.51826 2.37498 3.21122 2.64421 2.92278 2.93265C2.26359 3.60034 1.69838 4.35461 1.24272 5.17468C0.74156 6.08358 0.382076 7.06359 0.176683 8.08089C0.00205803 8.93032 -0.0225296 9.79361 0.00899124 10.6582C0.0165577 10.8655 0.0663605 11.0709 0.0720329 11.2807C0.0714226 11.3013 0.0773029 11.3216 0.0888405 11.3387C0.10038 11.3557 0.116993 11.3688 0.136335 11.3759Z" fill="#3C3F43"/>
  </g>
  <defs>
    <clipPath id="clip0_27026_201993">
      <rect width="20" height="20" fill="white" transform="matrix(-1 0 0 1 19.997 0)"/>
    </clipPath>
  </defs>
</svg>