<svg width="20" height="17" viewBox="0 0 20 17" fill="none" xmlns="http://www.w3.org/2000/svg">
<path id="Union" fill-rule="evenodd" clip-rule="evenodd" d="M9.22516 0.652715C9.91267 3.75063 12.4764 6.17196 15.7565 6.82139C16.1592 6.9011 16.4476 7.23656 16.4477 7.62519C16.4477 8.01386 16.1592 8.34928 15.7565 8.42899C12.4764 9.07826 9.91257 11.4995 9.22495 14.5974C9.14055 14.9778 8.78535 15.2502 8.37386 15.2502C7.96233 15.2502 7.60718 14.9777 7.52278 14.5974C6.83521 11.4995 4.27154 9.07826 0.991508 8.42884C0.588744 8.34913 0.300293 8.01366 0.300293 7.62504C0.300293 7.23641 0.588797 6.90095 0.991508 6.82124C4.2716 6.17192 6.83537 3.75063 7.52294 0.652765C7.60734 0.272426 7.96248 0 8.37402 0C8.78556 0 9.14071 0.272426 9.22516 0.652715ZM17.3153 10.6291C17.5461 11.669 18.4066 12.4817 19.5076 12.6996C19.7945 12.7564 20 12.9954 20 13.2722C20 13.5491 19.7945 13.7881 19.5076 13.8448C18.4066 14.0628 17.5461 14.8755 17.3152 15.9153C17.2551 16.1863 17.0021 16.3804 16.7089 16.3804C16.4158 16.3804 16.1627 16.1863 16.1026 15.9153C15.8718 14.8755 15.0113 14.0628 13.9104 13.8448C13.6235 13.788 13.418 13.549 13.418 13.2722C13.418 12.9953 13.6235 12.7564 13.9104 12.6996C15.0113 12.4816 15.8719 11.6689 16.1027 10.6291C16.1628 10.3581 16.4159 10.1641 16.709 10.1641C17.0022 10.1641 17.2552 10.3582 17.3153 10.6291Z" fill="url(#paint0_linear_11389_39566)" fill-opacity="0.9"/>
<defs>
<linearGradient id="paint0_linear_11389_39566" x1="-1.79235e-09" y1="7.5" x2="20" y2="7.5" gradientUnits="userSpaceOnUse">
<stop stop-color="#FFCD54"/>
<stop offset="0.372062" stop-color="#FF977E"/>
<stop offset="1" stop-color="#FF3FD4"/>
</linearGradient>
</defs>
</svg>
