<svg width="18" height="18" viewBox="0 0 18 18" fill="none" xmlns="http://www.w3.org/2000/svg">
<g id="ic_summarize_chat">
<path id="Vector" d="M2 4.24024C2 3.41181 2.67157 2.74023 3.5 2.74023H6.05263C7.68043 2.74023 9 4.05981 9 5.6876V15.635C9 14.4141 8.01031 13.4244 6.78947 13.4244H3.5C2.67157 13.4244 2 12.7529 2 11.9244V4.24024Z" stroke="#B3B3B3" stroke-width="1.2" stroke-linejoin="round"/>
<path id="Vector_2" d="M16 4.24024C16 3.41181 15.3284 2.74023 14.5 2.74023H11.9474C10.3196 2.74023 9 4.05981 9 5.6876V15.635C9 14.4141 9.98969 13.4244 11.2105 13.4244H14.5C15.3284 13.4244 16 12.7529 16 11.9244V4.24024Z" stroke="#B3B3B3" stroke-width="1.2" stroke-linejoin="round"/>
</g>
</svg>
