<svg width="14" height="12" viewBox="0 0 14 12" fill="none" xmlns="http://www.w3.org/2000/svg">
<g clip-path="url(#clip0_11391_45011)" filter="url(#filter0_d_11391_45011)">
<path d="M10.4539 4.09283C8.48587 3.70318 6.94761 2.25038 6.5351 0.391629C6.48442 0.163456 6.27134 0 6.02441 0C5.77749 0 5.5644 0.163456 5.51376 0.391659C5.10122 2.25038 3.56296 3.70315 1.59491 4.09274C1.35328 4.14057 1.18018 4.34185 1.18018 4.57502C1.18018 4.8082 1.35325 5.00948 1.59491 5.0573C3.56293 5.44696 5.10113 6.89973 5.51367 8.75845C5.56431 8.98665 5.7774 9.15014 6.02432 9.15014C6.27121 9.15014 6.48433 8.98668 6.53497 8.75845C6.94754 6.89973 8.48584 5.44696 10.4539 5.05739C10.6955 5.00957 10.8686 4.80832 10.8686 4.57511C10.8686 4.34194 10.6955 4.14066 10.4539 4.09283Z" fill="white"/>
<path d="M12.7046 7.61898C12.044 7.48822 11.5277 7.0006 11.3892 6.37669C11.3531 6.21412 11.2013 6.09766 11.0254 6.09766C10.8495 6.09766 10.6977 6.21408 10.6616 6.37667C10.5231 7.00056 10.0068 7.48818 9.34623 7.61896C9.1741 7.65303 9.05078 7.79642 9.05078 7.96253C9.05078 8.12864 9.17408 8.27203 9.34623 8.30611C10.0068 8.43689 10.5231 8.92453 10.6616 9.54842C10.6976 9.71099 10.8495 9.82745 11.0254 9.82745C11.2012 9.82745 11.3531 9.71103 11.3891 9.54842C11.5276 8.92453 12.044 8.43691 12.7046 8.30613C12.8767 8.27205 13 8.12867 13 7.96255C13 7.79644 12.8767 7.65308 12.7046 7.61898Z" fill="white"/>
</g>
<defs>
<filter id="filter0_d_11391_45011" x="0" y="0" width="14" height="12" filterUnits="userSpaceOnUse" color-interpolation-filters="sRGB">
<feFlood flood-opacity="0" result="BackgroundImageFix"/>
<feColorMatrix in="SourceAlpha" type="matrix" values="0 0 0 0 0 0 0 0 0 0 0 0 0 0 0 0 0 0 127 0" result="hardAlpha"/>
<feOffset dy="1"/>
<feGaussianBlur stdDeviation="0.5"/>
<feComposite in2="hardAlpha" operator="out"/>
<feColorMatrix type="matrix" values="0 0 0 0 0 0 0 0 0 0 0 0 0 0 0 0 0 0 0.1 0"/>
<feBlend mode="normal" in2="BackgroundImageFix" result="effect1_dropShadow_11391_45011"/>
<feBlend mode="normal" in="SourceGraphic" in2="effect1_dropShadow_11391_45011" result="shape"/>
</filter>
<clipPath id="clip0_11391_45011">
<rect width="12" height="10" fill="white" transform="translate(1)"/>
</clipPath>
</defs>
</svg>
