<svg width="15" height="15" viewBox="0 0 15 15" fill="none" xmlns="http://www.w3.org/2000/svg">
<path fill-rule="evenodd" clip-rule="evenodd" d="M12.0692 6.89475C11.8498 6.6991 11.7943 6.37678 11.9336 6.11651L12.9949 4.14388L12.9536 4.07109L10.7367 4.01603C10.4448 4.00838 10.1973 3.79752 10.1392 3.50813L9.70046 1.30567L9.6223 1.2759L7.88922 2.67791C7.66108 2.86223 7.33728 2.86223 7.10921 2.67791L5.37604 1.2759L5.29791 1.30567L4.85916 3.50813C4.80103 3.79752 4.55353 4.00838 4.26165 4.01603L2.04476 4.07109L2.00351 4.14388L3.06477 6.11651C3.20477 6.37612 3.14852 6.6991 2.92914 6.89475L1.26538 8.381L1.27975 8.46459L3.34477 9.28466C3.61665 9.39232 3.77853 9.67601 3.73477 9.96857L3.4029 12.1907L3.46727 12.2445L5.56917 11.5276C5.84541 11.4352 6.14979 11.5454 6.30167 11.7987L7.45727 13.7168H7.54109L8.69672 11.7987C8.84921 11.546 9.15359 11.4352 9.42923 11.5276L11.5311 12.2445L11.5954 12.1907L11.2636 9.96857C11.2198 9.67601 11.3817 9.39232 11.6536 9.28466L13.7186 8.46459L13.733 8.381L12.0692 6.89475Z" fill="#6216FF"/>
<path d="M14.9804 8.64784C14.901 9.10315 14.5998 9.47551 14.1754 9.64332L12.5747 10.2791L12.8322 12.0015C12.9004 12.4594 12.7322 12.9096 12.3828 13.2066C12.0322 13.503 11.5647 13.5916 11.1334 13.4454L9.50469 12.8894L8.60903 14.3769C8.14407 15.2077 6.85654 15.2077 6.39155 14.3769L5.49592 12.89L3.86715 13.4454C3.4334 13.5929 2.96778 13.5036 2.61777 13.2073C2.26777 12.9096 2.09964 12.4594 2.16839 12.0022L2.4259 10.2797L0.825879 9.64458C0.400879 9.4755 0.099625 9.10378 0.020248 8.64848C-0.0591276 8.19317 0.0977502 7.73852 0.44025 7.432L1.72901 6.28011L0.906504 4.75142C0.687751 4.3455 0.694 3.86422 0.922128 3.46403C1.15026 3.06318 1.55901 2.81747 2.01526 2.80607L3.73403 2.76365L4.07341 1.0577C4.16341 0.604279 4.47341 0.239532 4.90154 0.0812359C5.33092 -0.0783825 5.79905 0.00080204 6.15717 0.288939L7.50031 1.37554L8.84343 0.288277C9.20156 -0.00177097 9.67343 -0.0771332 10.0985 0.0812359C10.5272 0.239532 10.8366 0.604279 10.9266 1.05703L11.2659 2.76365L12.9848 2.80607C13.4404 2.81747 13.8491 3.06318 14.0778 3.46403C14.306 3.86422 14.3122 4.34616 14.0935 4.75142L13.271 6.28011L14.5604 7.432C14.9022 7.73852 15.0591 8.19317 14.9797 8.64848L14.9804 8.64784ZM12.0704 6.89499C11.851 6.69934 11.7954 6.37702 11.9347 6.11675L12.996 4.14412L12.9548 4.07133L10.7378 4.01626C10.4459 4.00862 10.1985 3.79775 10.1403 3.50837L9.70159 1.30591L9.62343 1.27613L7.89035 2.67815C7.6622 2.86247 7.33841 2.86247 7.11034 2.67815L5.37716 1.27613L5.29904 1.30591L4.86029 3.50837C4.80216 3.79775 4.55466 4.00862 4.26278 4.01626L2.04589 4.07133L2.00464 4.14412L3.0659 6.11675C3.2059 6.37636 3.14965 6.69934 2.93027 6.89499L1.26651 8.38124L1.28088 8.46483L3.3459 9.28489C3.61778 9.39255 3.77965 9.67625 3.7359 9.96881L3.40403 12.1909L3.4684 12.2447L5.57029 11.5279C5.84654 11.4354 6.15092 11.5456 6.3028 11.7989L7.4584 13.717H7.54221L8.69785 11.7989C8.85034 11.5462 9.15472 11.4354 9.43036 11.5279L11.5322 12.2447L11.5966 12.1909L11.2647 9.96881C11.2209 9.67625 11.3828 9.39255 11.6547 9.28489L13.7198 8.46483L13.7341 8.38124L12.0704 6.89499Z" fill="white"/>
<path fill-rule="evenodd" clip-rule="evenodd" d="M6.39844 6.64453H9.14037V6.4026H6.39844V6.64453Z" fill="white"/>
<path fill-rule="evenodd" clip-rule="evenodd" d="M5.75825 7.62347C5.93582 7.51415 6.11988 7.51441 6.28685 7.62981C6.53647 7.80232 6.80545 7.92637 7.09818 8.00397C7.34027 8.02943 7.5819 8.10715 7.82517 8.01069C7.87228 8.0052 7.91932 7.9997 7.96636 7.99421C8.16789 7.95706 8.34697 7.86299 8.52952 7.7777C8.6007 7.73247 8.67399 7.69009 8.74269 7.64137C8.94048 7.5011 9.19618 7.52061 9.37251 7.68686C9.58941 7.89142 9.60158 8.31068 9.21561 8.5078C9.05701 8.62553 8.88284 8.71534 8.69924 8.78802C8.69819 8.79261 8.69676 8.79707 8.69492 8.80133C8.4635 8.87635 8.23646 8.96777 7.98979 8.98631C7.67645 9.0508 7.36317 9.04886 7.04983 8.98612C6.53372 8.91795 6.06937 8.72257 5.67208 8.39428C5.42096 8.18682 5.47585 7.8018 5.75825 7.62347ZM8.76553 6.12235C8.78957 6.10586 8.81368 6.08931 8.83779 6.07282C9.2631 5.95943 9.58189 6.30257 9.5144 6.66656C9.50929 6.69381 9.51158 6.72248 9.51043 6.75047C9.49479 6.76676 9.47907 6.78298 9.46336 6.79926C9.4195 6.91144 9.33751 6.98351 9.22663 7.02517C9.0167 7.12766 8.78078 7.08264 8.62544 6.91023C8.47461 6.74301 8.45211 6.49974 8.56963 6.30943C8.62712 6.23884 8.66433 6.14691 8.76553 6.12235ZM5.63482 6.30613C5.68963 6.23463 5.72579 6.143 5.82151 6.1159C5.85458 6.09812 5.88771 6.08042 5.92071 6.06258C6.33262 5.98675 6.60641 6.28464 6.52639 6.72168C6.50786 6.75628 6.48933 6.79088 6.47074 6.82555C6.42693 6.92063 6.36234 6.99193 6.26411 7.02491C6.06307 7.1279 5.83702 7.08262 5.68822 6.90955C5.54373 6.74148 5.52218 6.49738 5.63482 6.30613Z" fill="white"/>
</svg>
