<svg width="13" height="13" viewBox="0 0 13 13" fill="none" xmlns="http://www.w3.org/2000/svg">
<path d="M8.43076 3.00762C8.63802 2.99821 8.84579 3.03197 9.03916 3.10722C9.23225 3.18241 9.40749 3.29732 9.5538 3.44414C9.70025 3.59121 9.81522 3.76795 9.88974 3.96172C9.96417 4.15538 9.99752 4.36287 9.9874 4.57012V11.4656C9.99274 11.6688 9.95552 11.8707 9.87998 12.0594C9.80437 12.2481 9.69113 12.42 9.54697 12.5633C9.4029 12.7063 9.231 12.8181 9.04208 12.8924C8.85299 12.9667 8.6504 13.0017 8.44736 12.9949H1.54013C1.33568 13.0018 1.13172 12.9667 0.941499 12.8914C0.751419 12.8161 0.578977 12.7023 0.434663 12.5574C0.290309 12.4125 0.177212 12.2392 0.102632 12.0486C0.0280519 11.858 -0.00656916 11.6536 0.00106918 11.449V4.55351C-0.00671252 4.34749 0.0280355 4.1418 0.103608 3.95C0.179124 3.75838 0.293532 3.58443 0.439546 3.43926C0.585743 3.29399 0.761022 3.18052 0.953218 3.10625C1.14539 3.032 1.35094 2.99837 1.55673 3.00762H8.43076ZM1.60556 4.00566C1.18411 4.00577 0.998205 4.19166 0.99814 4.61894V11.3777C0.99814 11.8108 1.18415 11.9978 1.61142 11.9978H8.37119C8.78179 11.9978 8.97853 11.8056 8.97861 11.4002L8.99033 4.6082C8.99893 4.52705 8.98913 4.44492 8.96201 4.36797C8.93478 4.29088 8.88989 4.2207 8.83212 4.16289C8.77446 4.10523 8.70486 4.06122 8.62802 4.03398C8.5894 4.02032 8.54932 4.0104 8.50888 4.00566H1.60556ZM5.04599 6.00566C5.16661 6.01655 5.27842 6.07274 5.36044 6.16191C5.44239 6.25101 5.4884 6.36701 5.48935 6.48808V7.50273H6.45419C6.58624 7.50285 6.71335 7.55479 6.80673 7.64824C6.90018 7.74178 6.95224 7.86948 6.95224 8.00176C6.95213 8.13384 6.90004 8.26086 6.80673 8.35429C6.71335 8.44774 6.58624 8.49969 6.45419 8.4998H5.48447V9.48711C5.48683 9.55957 5.47276 9.63174 5.44345 9.69804C5.41405 9.76449 5.3699 9.82387 5.31455 9.8709C5.24571 9.93085 5.16078 9.96956 5.07041 9.98222C4.97996 9.99488 4.88746 9.981 4.80478 9.94219C4.71351 9.90991 4.63524 9.84901 4.58017 9.76933C4.5251 9.68962 4.49607 9.59474 4.49814 9.49785V8.47832H3.48447C3.40126 8.47577 3.32001 8.452 3.24814 8.40996C3.17623 8.36786 3.11538 8.3085 3.07236 8.23711C3.02949 8.16587 3.00574 8.08483 3.00205 8.00176C2.99842 7.91856 3.01531 7.83535 3.05185 7.76054C3.09011 7.67442 3.15355 7.6014 3.23349 7.55156C3.31352 7.50175 3.4069 7.47657 3.50107 7.48027H4.49814V6.62578C4.48982 6.5493 4.48982 6.47179 4.49814 6.39531C4.5245 6.2739 4.59521 6.16653 4.69638 6.09453C4.79771 6.02254 4.92265 5.99054 5.04599 6.00566ZM12.4874 7.53301C12.6106 7.53301 12.7298 7.57847 12.8214 7.66094C12.9128 7.74337 12.9706 7.85683 12.9835 7.97929C13.0064 8.24373 13.0064 8.50978 12.9835 8.77422C12.9178 9.12518 12.7271 9.44028 12.4474 9.66191C12.2025 9.85582 11.9036 9.96679 11.5938 9.98027H10.9786C10.8562 9.96738 10.7426 9.90964 10.6602 9.81816C10.5779 9.72657 10.5323 9.60741 10.5323 9.48418C10.5323 9.36092 10.5778 9.2418 10.6602 9.15019C10.7426 9.05868 10.8562 9.00098 10.9786 8.98808H11.4767C11.5443 8.99033 11.6119 8.97857 11.6749 8.9539C11.7379 8.92921 11.7957 8.89209 11.8438 8.84453C11.892 8.79689 11.9298 8.73935 11.9552 8.67656C11.9806 8.61369 11.9938 8.54612 11.9923 8.47832V7.97929C12.0052 7.85677 12.0629 7.74337 12.1544 7.66094C12.2459 7.57861 12.3644 7.53304 12.4874 7.53301ZM12.4845 3.50664C12.5515 3.50654 12.6181 3.52022 12.6798 3.54668C12.7414 3.57316 12.7977 3.61123 12.8438 3.65996C12.89 3.70869 12.9252 3.76686 12.9483 3.82988C12.9714 3.89294 12.9814 3.96009 12.9776 4.02715V6.09355C12.974 6.12822 12.967 6.16275 12.9561 6.19609C12.9346 6.26251 12.8993 6.32387 12.8526 6.37578C12.8059 6.4277 12.7485 6.46943 12.6847 6.49785C12.6211 6.52615 12.5521 6.54075 12.4825 6.54082C12.4127 6.54082 12.3432 6.52623 12.2794 6.49785C12.2156 6.46942 12.1582 6.42772 12.1114 6.37578C12.0647 6.32387 12.0295 6.26252 12.0079 6.19609C11.9971 6.16275 11.99 6.12823 11.9864 6.09355V4.02715C11.9818 3.95947 11.9916 3.8917 12.0147 3.82793C12.0378 3.76431 12.0735 3.70595 12.1202 3.65703C12.1671 3.60802 12.2245 3.56864 12.2872 3.54277C12.3497 3.51705 12.4169 3.50501 12.4845 3.50664ZM10.9679 0.00370905C11.2628 -0.00857539 11.5585 0.00965516 11.8497 0.0583966C12.1734 0.135753 12.461 0.321721 12.6651 0.584764C12.8692 0.847851 12.9781 1.17265 12.9727 1.50566V2.10918C12.9691 2.14361 12.961 2.17762 12.9503 2.21074C12.9287 2.27719 12.8935 2.3385 12.8468 2.39043C12.8001 2.44223 12.7434 2.48409 12.6798 2.5125C12.616 2.54093 12.5465 2.55546 12.4767 2.55547C12.4068 2.55547 12.3374 2.54094 12.2735 2.5125C12.2099 2.4841 12.1532 2.44223 12.1065 2.39043C12.0598 2.33847 12.0236 2.27723 12.002 2.21074C11.9913 2.17767 11.9842 2.14356 11.9806 2.10918V1.52226C11.9821 1.45419 11.9698 1.38624 11.9444 1.32305C11.9191 1.25991 11.8812 1.20221 11.8331 1.1541C11.7851 1.10615 11.7281 1.06809 11.6651 1.04277C11.602 1.01741 11.5339 1.00514 11.4659 1.00664H10.9835C10.9161 1.00887 10.8489 0.997218 10.7862 0.972459C10.7234 0.947651 10.666 0.909885 10.6183 0.862108C10.5708 0.814491 10.5336 0.757666 10.5089 0.695115C10.4841 0.632228 10.4724 0.564438 10.4747 0.496873C10.4732 0.431723 10.4847 0.366935 10.5089 0.306443C10.5331 0.24591 10.5692 0.190448 10.6153 0.144334C10.6614 0.0982832 10.717 0.0621278 10.7774 0.0378887C10.8378 0.0137418 10.9029 0.00221317 10.9679 0.00370905ZM5.02451 0.00370905C5.15655 0.00382477 5.28269 0.0567556 5.37607 0.150193C5.46955 0.243742 5.52255 0.370435 5.52255 0.502733C5.52248 0.634933 5.46949 0.761786 5.37607 0.855272C5.28272 0.948542 5.15642 1.00164 5.02451 1.00176H4.54208C4.46868 0.995984 4.39436 1.00555 4.32529 1.03105C4.25635 1.05657 4.19367 1.0972 4.14169 1.14922C4.0898 1.2012 4.04997 1.26389 4.02451 1.33281C3.99902 1.40194 3.98846 1.47615 3.99423 1.54961V2.01543C3.99423 2.14756 3.942 2.27446 3.84873 2.36797C3.75534 2.46142 3.62824 2.51434 3.49619 2.51445C3.36403 2.51445 3.23712 2.46145 3.14365 2.36797C3.05017 2.27443 2.99717 2.14771 2.99716 2.01543V1.64824C2.97315 1.41217 3.00611 1.17337 3.09384 0.952928C3.18158 0.732526 3.32148 0.536527 3.50107 0.381639C3.7664 0.136408 4.11548 0.00150017 4.47666 0.00370905H5.02451ZM8.98447 0.00956842C9.04976 0.00956841 9.11455 0.0217357 9.1749 0.0466778C9.23535 0.0717353 9.29073 0.108784 9.33701 0.155076C9.3833 0.201397 9.42035 0.256665 9.44541 0.317186C9.47035 0.377531 9.48247 0.442312 9.48251 0.507615C9.48251 0.573122 9.47046 0.638501 9.44541 0.699022C9.42035 0.759534 9.38329 0.814816 9.33701 0.861131C9.29076 0.907351 9.23528 0.943523 9.1749 0.968553C9.11448 0.993561 9.04985 1.00664 8.98447 1.00664H7.00693C6.94154 1.00663 6.87692 0.993581 6.8165 0.968553C6.75608 0.943511 6.70065 0.907383 6.65439 0.861131C6.60818 0.814891 6.57202 0.759417 6.54697 0.699022C6.52192 0.638501 6.50888 0.573122 6.50888 0.507615C6.50893 0.442225 6.52196 0.3776 6.54697 0.317186C6.57202 0.25669 6.60812 0.201381 6.65439 0.155076C6.70068 0.108756 6.75602 0.0717462 6.8165 0.0466778C6.87685 0.021716 6.94163 0.00958085 7.00693 0.00956842H8.98447Z" fill="#A275FF"/>
</svg>
