<svg width="14" height="14" viewBox="0 0 14 14" fill="none" xmlns="http://www.w3.org/2000/svg">
<path d="M11.0833 1.16602H2.91659C2.59442 1.16602 2.33325 1.42718 2.33325 1.74935V12.2493C2.33325 12.5715 2.59442 12.8327 2.91659 12.8327H11.0833C11.4054 12.8327 11.6666 12.5715 11.6666 12.2493V1.74935C11.6666 1.42718 11.4054 1.16602 11.0833 1.16602Z" stroke="white" stroke-width="1.16667" stroke-linejoin="round"/>
<path d="M6.125 4.08398H9.625" stroke="white" stroke-width="1.16667" stroke-linecap="round" stroke-linejoin="round"/>
<path d="M6.125 7H9.625" stroke="white" stroke-width="1.16667" stroke-linecap="round" stroke-linejoin="round"/>
<path d="M6.125 9.91602H9.625" stroke="white" stroke-width="1.16667" stroke-linecap="round" stroke-linejoin="round"/>
<path fill-rule="evenodd" clip-rule="evenodd" d="M4.37508 4.66667C4.69726 4.66667 4.95841 4.40551 4.95841 4.08333C4.95841 3.76116 4.69726 3.5 4.37508 3.5C4.05291 3.5 3.79175 3.76116 3.79175 4.08333C3.79175 4.40551 4.05291 4.66667 4.37508 4.66667Z" fill="white"/>
<path fill-rule="evenodd" clip-rule="evenodd" d="M4.37508 7.58268C4.69726 7.58268 4.95841 7.32152 4.95841 6.99935C4.95841 6.67717 4.69726 6.41602 4.37508 6.41602C4.05291 6.41602 3.79175 6.67717 3.79175 6.99935C3.79175 7.32152 4.05291 7.58268 4.37508 7.58268Z" fill="white"/>
<path fill-rule="evenodd" clip-rule="evenodd" d="M4.37508 10.5007C4.69726 10.5007 4.95841 10.2395 4.95841 9.91732C4.95841 9.59514 4.69726 9.33398 4.37508 9.33398C4.05291 9.33398 3.79175 9.59514 3.79175 9.91732C3.79175 10.2395 4.05291 10.5007 4.37508 10.5007Z" fill="white"/>
</svg>
