<svg width="16" height="16" viewBox="0 0 16 16" fill="none" xmlns="http://www.w3.org/2000/svg">
<g clip-path="url(#clip0_9842_35900)">
<path fill-rule="evenodd" clip-rule="evenodd" d="M9.58144 0.137313L14.2689 4.82481C14.3568 4.91269 14.4062 5.03191 14.4062 5.15625V15.5312C14.4062 15.7901 14.1964 16 13.9375 16H2.0625C1.80362 16 1.59375 15.7901 1.59375 15.5312V0.46875C1.59375 0.209875 1.80362 0 2.0625 0H9.25C9.37431 0 9.49353 0.049375 9.58144 0.137313ZM2.53125 0.9375V15.0625H13.4688V5.35041L9.05584 0.9375H2.53125ZM8.46875 7.53125H9.5625C9.82137 7.53125 10.0312 7.74113 10.0312 8C10.0312 8.25887 9.82137 8.46875 9.5625 8.46875H8.46875V9.5625C8.46875 9.82137 8.25887 10.0312 8 10.0312C7.74113 10.0312 7.53125 9.82137 7.53125 9.5625V8.46875H6.4375C6.17863 8.46875 5.96875 8.25887 5.96875 8C5.96875 7.74113 6.17863 7.53125 6.4375 7.53125H7.53125V6.4375C7.53125 6.17863 7.74113 5.96875 8 5.96875C8.25887 5.96875 8.46875 6.17863 8.46875 6.4375V7.53125Z" fill="#B3B3B3"/>
<path d="M14.2689 4.82481L14.0922 5.00159L14.0922 5.00162L14.2689 4.82481ZM9.58144 0.137313L9.40463 0.314058L9.40466 0.314089L9.58144 0.137313ZM2.53125 15.0625H2.28125V15.3125H2.53125V15.0625ZM2.53125 0.9375V0.6875H2.28125V0.9375H2.53125ZM13.4688 15.0625V15.3125H13.7188V15.0625H13.4688ZM13.4688 5.35041H13.7188V5.24685L13.6455 5.17363L13.4688 5.35041ZM9.05584 0.9375L9.23262 0.760723L9.1594 0.6875H9.05584V0.9375ZM8.46875 7.53125H8.21875V7.78125H8.46875V7.53125ZM8.46875 8.46875V8.21875H8.21875V8.46875H8.46875ZM7.53125 8.46875H7.78125V8.21875H7.53125V8.46875ZM7.53125 7.53125V7.78125H7.78125V7.53125H7.53125ZM14.4457 4.64804L9.75821 -0.0394642L9.40466 0.314089L14.0922 5.00159L14.4457 4.64804ZM14.6562 5.15625C14.6562 4.96558 14.5805 4.78276 14.4457 4.648L14.0922 5.00162C14.1332 5.04261 14.1562 5.09823 14.1562 5.15625H14.6562ZM14.6562 15.5312V5.15625H14.1562V15.5312H14.6562ZM13.9375 16.25C14.3344 16.25 14.6562 15.9282 14.6562 15.5312H14.1562C14.1562 15.6521 14.0583 15.75 13.9375 15.75V16.25ZM2.0625 16.25H13.9375V15.75H2.0625V16.25ZM1.34375 15.5312C1.34375 15.9282 1.66555 16.25 2.0625 16.25V15.75C1.9417 15.75 1.84375 15.6521 1.84375 15.5312H1.34375ZM1.34375 0.46875V15.5312H1.84375V0.46875H1.34375ZM2.0625 -0.25C1.66555 -0.25 1.34375 0.0718038 1.34375 0.46875H1.84375C1.84375 0.347946 1.9417 0.25 2.0625 0.25V-0.25ZM9.25 -0.25H2.0625V0.25H9.25V-0.25ZM9.75825 -0.0394329C9.62344 -0.174287 9.44061 -0.25 9.25 -0.25V0.25C9.30801 0.25 9.36362 0.273037 9.40463 0.314058L9.75825 -0.0394329ZM2.78125 15.0625V0.9375H2.28125V15.0625H2.78125ZM13.4688 14.8125H2.53125V15.3125H13.4688V14.8125ZM13.2188 5.35041V15.0625H13.7188V5.35041H13.2188ZM8.87907 1.11428L13.292 5.52718L13.6455 5.17363L9.23262 0.760723L8.87907 1.11428ZM2.53125 1.1875H9.05584V0.6875H2.53125V1.1875ZM9.5625 7.28125H8.46875V7.78125H9.5625V7.28125ZM10.2812 8C10.2812 7.60305 9.95945 7.28125 9.5625 7.28125V7.78125C9.6833 7.78125 9.78125 7.8792 9.78125 8H10.2812ZM9.5625 8.71875C9.95945 8.71875 10.2812 8.39695 10.2812 8H9.78125C9.78125 8.1208 9.6833 8.21875 9.5625 8.21875V8.71875ZM8.46875 8.71875H9.5625V8.21875H8.46875V8.71875ZM8.71875 9.5625V8.46875H8.21875V9.5625H8.71875ZM8 10.2812C8.39695 10.2812 8.71875 9.95945 8.71875 9.5625H8.21875C8.21875 9.6833 8.1208 9.78125 8 9.78125V10.2812ZM7.28125 9.5625C7.28125 9.95945 7.60305 10.2812 8 10.2812V9.78125C7.8792 9.78125 7.78125 9.6833 7.78125 9.5625H7.28125ZM7.28125 8.46875V9.5625H7.78125V8.46875H7.28125ZM6.4375 8.71875H7.53125V8.21875H6.4375V8.71875ZM5.71875 8C5.71875 8.39695 6.04055 8.71875 6.4375 8.71875V8.21875C6.3167 8.21875 6.21875 8.1208 6.21875 8H5.71875ZM6.4375 7.28125C6.04055 7.28125 5.71875 7.60305 5.71875 8H6.21875C6.21875 7.8792 6.3167 7.78125 6.4375 7.78125V7.28125ZM7.53125 7.28125H6.4375V7.78125H7.53125V7.28125ZM7.28125 6.4375V7.53125H7.78125V6.4375H7.28125ZM8 5.71875C7.60305 5.71875 7.28125 6.04055 7.28125 6.4375H7.78125C7.78125 6.3167 7.8792 6.21875 8 6.21875V5.71875ZM8.71875 6.4375C8.71875 6.04055 8.39695 5.71875 8 5.71875V6.21875C8.1208 6.21875 8.21875 6.3167 8.21875 6.4375H8.71875ZM8.71875 7.53125V6.4375H8.21875V7.53125H8.71875Z" fill="#B3B3B3"/>
</g>
<defs>
<clipPath id="clip0_9842_35900">
<rect width="16" height="16" fill="white"/>
</clipPath>
</defs>
</svg>
