<svg width="18" height="18" viewBox="0 0 18 18" fill="none" xmlns="http://www.w3.org/2000/svg">
<rect width="18" height="18" fill="#1C1C1D"/>
<path fill-rule="evenodd" clip-rule="evenodd" d="M9 2.23077C5.26146 2.23077 2.23077 5.26146 2.23077 9C2.23077 12.7385 5.26146 15.7692 9 15.7692C12.7385 15.7692 15.7692 12.7385 15.7692 9C15.7692 5.26146 12.7385 2.23077 9 2.23077ZM1 9C1 4.58172 4.58172 1 9 1C13.4183 1 17 4.58172 17 9C17 13.4183 13.4183 17 9 17C4.58172 17 1 13.4183 1 9Z" fill="#B3B3B3"/>
<path d="M6.23076 8.38522C6.74054 8.38522 7.15383 7.97192 7.15383 7.46214C7.15383 6.95235 6.74054 6.53906 6.23076 6.53906C5.72097 6.53906 5.30768 6.95235 5.30768 7.46214C5.30768 7.97192 5.72097 8.38522 6.23076 8.38522Z" fill="#B3B3B3"/>
<path d="M11.7692 8.38522C12.279 8.38522 12.6923 7.97192 12.6923 7.46214C12.6923 6.95235 12.279 6.53906 11.7692 6.53906C11.2595 6.53906 10.8462 6.95235 10.8462 7.46214C10.8462 7.97192 11.2595 8.38522 11.7692 8.38522Z" fill="#B3B3B3"/>
<path fill-rule="evenodd" clip-rule="evenodd" d="M5.49109 10.3137C5.785 10.1431 6.16161 10.2431 6.3322 10.537C6.6034 11.0043 6.99257 11.3921 7.46075 11.6617C7.92894 11.9312 8.45977 12.0731 9.00001 12.0731C9.54026 12.0731 10.071 11.9312 10.5392 11.6617C11.0074 11.3921 11.3966 11.0043 11.6678 10.537C11.8384 10.2431 12.215 10.1431 12.5089 10.3137C12.8028 10.4843 12.9028 10.8609 12.7322 11.1549C12.3528 11.8085 11.8083 12.3511 11.1534 12.7283C10.4984 13.1054 9.75583 13.3039 9.00001 13.3039C8.2442 13.3039 7.50161 13.1054 6.84666 12.7283C6.19164 12.3511 5.64721 11.8085 5.26777 11.1549C5.09716 10.8609 5.19713 10.4843 5.49109 10.3137Z" fill="#B3B3B3"/>
</svg>
