<svg width="18" height="18" viewBox="0 0 18 18" fill="none" xmlns="http://www.w3.org/2000/svg">
<rect width="18" height="18" fill="#1C1C1D"/>
<path d="M15.073 12.718C15.7594 11.5998 16.1218 10.313 16.12 9.00099V9.00073C16.1218 7.68868 15.7594 6.40188 15.073 5.28366L15.0691 5.27756C14.4323 4.2397 13.54 3.38248 12.4775 2.7878C11.4149 2.19312 10.2177 1.88086 9.00003 1.88086C7.78239 1.88085 6.5851 2.1931 5.52256 2.78777C4.46002 3.38244 3.56772 4.23966 2.93094 5.27751L2.92699 5.28369C2.24232 6.40267 1.88001 7.68901 1.88 9.00084C1.88 10.3127 2.2423 11.599 2.92696 12.718L2.93098 12.7243C3.56776 13.7621 4.46005 14.6193 5.52259 15.214C6.58513 15.8086 7.78241 16.1209 9.00003 16.1208C10.2177 16.1208 11.4149 15.8086 12.4775 15.2139C13.54 14.6193 14.4323 13.762 15.069 12.7242L15.073 12.718ZM9.9101 14.9006C9.77443 15.0315 9.61827 15.1393 9.4478 15.2199C9.30788 15.2864 9.15491 15.3209 9 15.3209C8.84509 15.3209 8.69212 15.2864 8.5522 15.2199C8.2278 15.0542 7.95011 14.8098 7.74451 14.5091C7.32461 13.9023 7.01344 13.2272 6.82489 12.5138C7.54919 12.4692 8.27423 12.4465 9 12.4457C9.72547 12.4457 10.4506 12.4684 11.1752 12.5138C11.0709 12.8806 10.9405 13.2395 10.7852 13.5878C10.5806 14.0776 10.2835 14.5233 9.9101 14.9006ZM2.69392 9.40086H5.56576C5.58446 10.2022 5.67132 11.0005 5.8254 11.7871C5.04035 11.8562 4.25731 11.9511 3.47627 12.0718C3.01891 11.2512 2.75156 10.3385 2.69392 9.40086ZM3.47627 5.92994C4.257 6.05093 5.04032 6.14583 5.82623 6.21465C5.67184 7.00121 5.58479 7.79951 5.56602 8.60086H2.69392C2.75155 7.66323 3.01891 6.75049 3.47627 5.92994ZM8.0899 3.10112C8.22557 2.97021 8.38173 2.86235 8.5522 2.78183C8.69212 2.71534 8.84509 2.68085 9 2.68085C9.15491 2.68085 9.30788 2.71534 9.4478 2.78183C9.7722 2.94753 10.0499 3.1919 10.2555 3.4926C10.6754 4.09936 10.9866 4.77452 11.1751 5.4879C10.4508 5.53247 9.72576 5.55518 9 5.55602C8.27454 5.55601 7.54945 5.5333 6.82476 5.48789C6.92912 5.1211 7.05948 4.76221 7.21485 4.41395C7.41942 3.92415 7.71653 3.47841 8.0899 3.10112ZM15.3061 8.60086H12.4342C12.4155 7.79951 12.3287 7.0012 12.1746 6.21458C12.9597 6.1455 13.7427 6.05062 14.5237 5.92994C14.9811 6.75049 15.2485 7.66323 15.3061 8.60086ZM6.63001 11.7249C6.47356 10.9596 6.3852 10.1818 6.36597 9.40086H11.6341C11.6151 10.1818 11.5269 10.9596 11.3706 11.725C10.5812 11.6732 9.79105 11.6467 9 11.6457C8.20953 11.6457 7.41953 11.6721 6.63001 11.7249ZM11.37 6.27677C11.5264 7.04215 11.6148 7.81989 11.634 8.60086H6.36588C6.38494 7.81989 6.47314 7.04214 6.62944 6.27674C7.41876 6.32852 8.20895 6.35495 9 6.35601C9.79048 6.35601 10.5805 6.32959 11.37 6.27677ZM12.434 9.40086H15.3061C15.2485 10.3385 14.9811 11.2512 14.5237 12.0718C13.743 11.9508 12.9597 11.8559 12.1738 11.7871C12.3282 11.0005 12.4152 10.2022 12.434 9.40086ZM14.0441 5.19362C13.3615 5.29211 12.6768 5.37008 11.9901 5.42754C11.8667 4.96804 11.7075 4.51889 11.514 4.08421C11.3374 3.68421 11.1151 3.30595 10.8517 2.95697C12.1249 3.34745 13.2422 4.13027 14.0441 5.19362ZM4.53107 4.53192C5.26146 3.80084 6.16003 3.26009 7.14801 2.95706C7.13302 2.97648 7.1176 2.99503 7.10283 3.01484C6.595 3.74588 6.2251 4.5636 6.01136 5.42767C5.32463 5.3695 4.63948 5.29149 3.95594 5.19362C4.13223 4.96011 4.32439 4.73902 4.53107 4.53192ZM3.95593 12.8081C4.63854 12.7096 5.32319 12.6316 6.0099 12.5742C6.13332 13.0337 6.29249 13.4828 6.48597 13.9175C6.66262 14.3175 6.88488 14.6958 7.14834 15.0447C5.87509 14.6543 4.75777 13.8714 3.95593 12.8081ZM13.4689 13.4698C12.7385 14.2009 11.84 14.7416 10.852 15.0446C10.867 15.0252 10.8824 15.0067 10.8972 14.9869C11.405 14.2558 11.7749 13.4381 11.9886 12.574C12.6754 12.6322 13.3605 12.7102 14.0441 12.8081C13.8678 13.0416 13.6756 13.2627 13.4689 13.4698Z" fill="#B3B3B3" stroke="#B3B3B3" stroke-width="0.2"/>
</svg>
