<svg width="34" height="34" viewBox="0 0 34 34" fill="none" xmlns="http://www.w3.org/2000/svg">
<path d="M17.2367 6.0923C17.4698 6.11724 17.6896 6.21336 17.866 6.36753C18.0424 6.5217 18.167 6.72642 18.2227 6.95384C18.2948 7.1769 18.2981 7.41647 18.2321 7.64142C18.1662 7.86638 18.0341 8.06635 17.8529 8.21539L10.458 15.6L10.2422 15.7538H26.5728C26.7565 15.7234 26.9438 15.7234 27.1274 15.7538C27.3983 15.8306 27.6346 15.9976 27.7972 16.2271C27.9597 16.4567 28.0387 16.7348 28.021 17.0154C27.9912 17.2888 27.8727 17.545 27.6835 17.745C27.4944 17.945 27.245 18.0777 26.9734 18.1231H10.1807L10.4272 18.3385L17.7913 25.7231C17.9717 25.8795 18.1028 26.0849 18.1684 26.3144C18.2341 26.5438 18.2315 26.7874 18.161 27.0154C18.0998 27.2049 17.9935 27.3767 17.8512 27.5161C17.7089 27.6555 17.5348 27.7584 17.3439 27.8159C17.1531 27.8734 16.9511 27.8838 16.7553 27.8462C16.5595 27.8086 16.3758 27.7241 16.2199 27.6L16.0042 27.3846L6.51398 17.8769C6.35494 17.763 6.22535 17.6128 6.13597 17.4389C6.04659 17.265 6 17.0724 6 16.8769C6 16.6815 6.04659 16.4888 6.13597 16.3149C6.22535 16.141 6.35494 15.9909 6.51398 15.8769L15.7577 6.64617C16.0187 6.34225 16.3606 6.11822 16.7437 6L17.2367 6.0923Z" fill="white"/>
</svg>
