<svg width="30" height="30" viewBox="0 0 30 30" fill="none" xmlns="http://www.w3.org/2000/svg">
<rect width="30" height="30" rx="6" fill="#424242"/>
<g clip-path="url(#clip0_670_10583)">
<path fill-rule="evenodd" clip-rule="evenodd" d="M21.7332 10.5872C20.7182 9.58769 19.7087 8.5855 18.6984 7.58263L18.6962 7.58041C18.361 7.24766 18.0257 6.91484 17.6902 6.58201C17.6474 6.53302 17.6073 6.48185 17.5698 6.42871H10.3501L10.0469 6.51494C9.66645 6.63384 9.33544 6.87326 9.10431 7.19672C8.87319 7.52019 8.75461 7.90998 8.76662 8.30673V15.014H8.54041C8.36215 15.0232 8.19364 15.0978 8.06742 15.2235C7.9412 15.3491 7.86621 15.5168 7.85693 15.6943V16.5135V19.9629C7.85693 20.5666 8.08316 20.9642 8.78106 20.9546V21.7835C8.78395 22.0659 8.85443 22.3437 8.98669 22.5936C9.11894 22.8436 9.30915 23.0585 9.54153 23.2207C9.87689 23.4617 10.2833 23.5848 10.6967 23.5704H19.9668C20.1135 23.5712 20.2599 23.56 20.4048 23.5369C20.8011 23.4615 21.1611 23.2574 21.4285 22.9566C21.6959 22.6558 21.8555 22.2752 21.8824 21.8745V21.5727V10.9561C21.8855 10.8875 21.8738 10.8191 21.8481 10.7555C21.8223 10.6919 21.7832 10.6345 21.7332 10.5872ZM9.81107 16.547C10.3675 16.4285 10.9448 16.4499 11.4909 16.6093C11.6576 16.6738 11.7996 16.7892 11.8965 16.9389C11.9933 17.0887 12.04 17.2651 12.0299 17.4429C12.0435 17.6312 11.9987 17.819 11.9014 17.981C11.8041 18.143 11.6591 18.2712 11.486 18.3484C11.2358 18.4619 10.9616 18.5129 10.6871 18.4969H10.4993V19.5796H9.81107V16.547ZM19.9186 22.4638H10.7737C10.6571 22.4817 10.5378 22.472 10.4256 22.4355C10.3135 22.399 10.2115 22.3367 10.1281 22.2536C10.0446 22.1706 9.98201 22.0691 9.94533 21.9574C9.90865 21.8458 9.89893 21.7271 9.91695 21.611V20.9355H10.1432H18.5854C18.7041 20.9464 18.8237 20.9313 18.9358 20.8912C19.0479 20.8511 19.1498 20.787 19.2343 20.7034C19.3188 20.6197 19.3838 20.5186 19.4247 20.4072C19.4656 20.2959 19.4814 20.1769 19.471 20.0587V15.8571C19.4868 15.7413 19.4755 15.6233 19.4381 15.5125C19.4007 15.4016 19.3381 15.3008 19.2553 15.2179C19.1725 15.135 19.0715 15.0721 18.9604 15.0343C18.8492 14.9964 18.7308 14.9845 18.6143 14.9996H9.90252V8.3738C9.8871 8.26304 9.89735 8.15022 9.93248 8.04401C9.96761 7.93779 10.0267 7.84098 10.1052 7.76099C10.1837 7.681 10.2795 7.61995 10.3854 7.58251C10.4913 7.54507 10.6043 7.53223 10.7159 7.54498H17.1174V7.77973V10.0746C17.1387 10.3619 17.2633 10.6319 17.4684 10.8352C17.6735 11.0384 17.9453 11.1613 18.2341 11.1813H20.5059H20.7176V11.3777L20.7465 21.611C20.7654 21.7243 20.7574 21.8404 20.7233 21.95C20.6891 22.0597 20.6297 22.16 20.5498 22.2428C20.4699 22.3256 20.3716 22.3887 20.2629 22.427C20.1542 22.4654 20.0379 22.478 19.9235 22.4638H19.9186ZM12.4872 19.5892V16.5518C13.01 16.468 13.543 16.468 14.0659 16.5518C14.3474 16.5872 14.6097 16.7129 14.813 16.91C15.0162 17.1072 15.1493 17.3649 15.1921 17.6441C15.276 17.9483 15.2642 18.2706 15.1584 18.5679C15.0525 18.8651 14.8577 19.1229 14.6001 19.3066C14.366 19.4585 14.0986 19.5522 13.8204 19.5796C13.378 19.6051 12.9346 19.6067 12.492 19.5844L12.4872 19.5892ZM17.4976 17.7879V18.3532H16.4051V19.5844H15.7024V16.5183H17.5843V17.0836H16.4051V17.7879H17.4976ZM14.301 18.6888C14.4136 18.489 14.4727 18.2639 14.4727 18.0348C14.4727 17.8058 14.4136 17.5806 14.301 17.3809C14.1672 17.224 13.9901 17.1095 13.7917 17.0516C13.5933 16.9937 13.3822 16.9949 13.1844 17.0551V19.0481C13.3852 19.1071 13.5993 19.1044 13.7985 19.0403C13.9978 18.9761 14.1729 18.8536 14.301 18.6888ZM11.0244 17.9081C10.8516 17.9443 10.6761 17.9668 10.4997 17.9752C10.4997 17.8665 10.5003 17.7631 10.5009 17.6645C10.5019 17.4806 10.5029 17.3135 10.4997 17.1607C10.4997 17.0793 10.5286 17.0361 10.6153 17.0361C10.7258 17.029 10.8368 17.029 10.9474 17.0361C11.0486 17.0449 11.1434 17.0893 11.2148 17.1613C11.2862 17.2332 11.3296 17.3281 11.3372 17.429C11.3507 17.5328 11.3267 17.638 11.2694 17.7258C11.212 17.8136 11.1252 17.8782 11.0244 17.9081Z" fill="#B3B3B3"/>
</g>
<defs>
<clipPath id="clip0_670_10583">
<rect width="17.1429" height="17.1429" fill="white" transform="translate(6.42847 6.42871)"/>
</clipPath>
</defs>
</svg>
