<svg width="30" height="30" viewBox="0 0 30 30" fill="none" xmlns="http://www.w3.org/2000/svg">
<g id="btn_snap_on">
<rect id="&#231;&#159;&#169;&#229;&#189;&#162;" width="30" height="30" rx="4.28571" fill="#874EFF"/>
<g id="ic_snap_on" clip-path="url(#clip0_670_11272)">
<path id="Union" fill-rule="evenodd" clip-rule="evenodd" d="M9.61358 11.9476C9.48876 12.0804 9.31791 12.1604 9.136 12.1714C9.03919 12.177 8.94231 12.1616 8.85203 12.1262C8.76175 12.0908 8.68019 12.0363 8.61299 11.9664C8.5458 11.8964 8.49455 11.8128 8.46276 11.7212C8.43097 11.6296 8.41939 11.5322 8.42884 11.4357V9.80709H7.96456H7.25027C7.07093 9.83228 6.88848 9.79297 6.73542 9.69617C6.58236 9.59936 6.46864 9.45135 6.41455 9.27851V8.97138C6.47201 8.79324 6.59173 8.64176 6.75177 8.54469C6.91181 8.44761 7.10145 8.41144 7.28598 8.4428H8.44314V8.33566V7.20709C8.43341 7.11261 8.4436 7.01714 8.47309 6.92686C8.50258 6.83658 8.5507 6.7535 8.61432 6.68298C8.67795 6.61247 8.75568 6.5561 8.84246 6.51751C8.92925 6.47893 9.02315 6.45898 9.11812 6.45898C9.2131 6.45898 9.30702 6.47893 9.39381 6.51751C9.48059 6.5561 9.55832 6.61247 9.62195 6.68298C9.68557 6.7535 9.73367 6.83658 9.76316 6.92686C9.79265 7.01714 9.80286 7.11261 9.79313 7.20709V8.48566H9.95742H11.386C11.4981 8.4727 11.6117 8.48822 11.7162 8.53077C11.8207 8.57332 11.9128 8.64152 11.984 8.72909C12.0552 8.81666 12.1032 8.92076 12.1235 9.03177C12.1438 9.14278 12.1358 9.25712 12.1003 9.36423C12.0662 9.49468 11.9907 9.61052 11.885 9.69427C11.7794 9.77802 11.6493 9.82514 11.5146 9.82852H10.086H9.80741V11.4571C9.80774 11.6393 9.7384 11.8148 9.61358 11.9476ZM22.2143 20.3428H23.1214C23.2075 20.3483 23.2916 20.3707 23.3689 20.409C23.4462 20.4473 23.5151 20.5005 23.5716 20.5657C23.6281 20.6308 23.6711 20.7066 23.6981 20.7885C23.725 20.8704 23.7354 20.9569 23.7286 21.0428C23.7345 21.2079 23.676 21.3689 23.5653 21.4915C23.4546 21.6142 23.3005 21.689 23.1357 21.7H21.9357H21.7V22.8928C21.7109 22.983 21.7109 23.0741 21.7 23.1643C21.6754 23.3317 21.5885 23.4836 21.4567 23.5897C21.3249 23.6958 21.1579 23.7483 20.9891 23.7365C20.8204 23.7248 20.6622 23.6498 20.5464 23.5264C20.4305 23.4031 20.3655 23.2406 20.3643 23.0714V21.9071V21.7071H18.7214C18.6093 21.7201 18.4958 21.7046 18.3912 21.662C18.2867 21.6195 18.1946 21.5513 18.1234 21.4637C18.0522 21.3761 18.0042 21.272 17.9839 21.161C17.9636 21.05 17.9716 20.9357 18.0071 20.8286C18.0404 20.6982 18.1159 20.5827 18.2219 20.4999C18.3279 20.4172 18.4584 20.372 18.5929 20.3714H20.0643H20.3428V20.1785V18.75C20.3331 18.6555 20.3433 18.56 20.3728 18.4698C20.4023 18.3795 20.4504 18.2964 20.5141 18.2259C20.5777 18.1554 20.6554 18.099 20.7422 18.0604C20.829 18.0218 20.9229 18.0019 21.0179 18.0019C21.1128 18.0019 21.2068 18.0218 21.2935 18.0604C21.3803 18.099 21.458 18.1554 21.5217 18.2259C21.5853 18.2964 21.6334 18.3795 21.6629 18.4698C21.6924 18.56 21.7026 18.6555 21.6929 18.75V20.3428H22.2143ZM18.5857 9.79259C18.7047 9.79972 18.8239 9.79972 18.9429 9.79259C19.2527 9.77694 19.5583 9.8696 19.8072 10.0547C20.0562 10.2397 20.2329 10.5057 20.3072 10.8069C20.3482 11.0427 20.3673 11.2818 20.3643 11.5212C20.3715 11.6918 20.4435 11.8533 20.5656 11.9727C20.6877 12.0921 20.8507 12.1605 21.0214 12.164C21.1085 12.1728 21.1965 12.164 21.2801 12.138C21.3637 12.1119 21.4412 12.0693 21.5079 12.0126C21.5746 11.9559 21.6292 11.8863 21.6683 11.808C21.7075 11.7297 21.7304 11.6443 21.7357 11.5569C21.749 11.2415 21.7298 10.9255 21.6786 10.614C21.5551 10.0017 21.2209 9.45202 20.7342 9.06053C20.2474 8.66904 19.6389 8.4605 19.0143 8.47116C18.8835 8.46395 18.7523 8.46395 18.6215 8.47116C18.4581 8.48817 18.3068 8.56512 18.1968 8.68714C18.0868 8.80917 18.0259 8.9676 18.0259 9.13187C18.0259 9.29614 18.0868 9.45459 18.1968 9.57661C18.3068 9.69863 18.4581 9.77558 18.6215 9.79259H18.5857ZM11.2283 20.3427C11.3472 20.3356 11.4665 20.3356 11.5854 20.3427C11.7489 20.3621 11.8993 20.4416 12.0075 20.5656C12.1157 20.6897 12.174 20.8495 12.1711 21.0141C12.1692 21.1748 12.1098 21.3294 12.0037 21.45C11.8975 21.5705 11.7516 21.6491 11.5925 21.6713H11.1997C10.5732 21.6801 9.96306 21.4713 9.4733 21.0805C8.98355 20.6897 8.6445 20.1412 8.51396 19.5284C8.4653 19.2334 8.44855 18.9341 8.46398 18.6356C8.47141 18.4644 8.54611 18.3031 8.67185 18.1867C8.79758 18.0703 8.96418 18.0083 9.13541 18.0141C9.30983 18.014 9.47742 18.0818 9.60274 18.2031C9.72806 18.3245 9.80125 18.4898 9.80682 18.6641C9.80424 18.8869 9.82339 19.1094 9.86397 19.3284C9.93822 19.6296 10.115 19.8955 10.3639 20.0806C10.6129 20.2657 10.9185 20.3583 11.2283 20.3427ZM16.0578 8.44273H14.1149C13.9925 8.46049 13.8769 8.50971 13.7792 8.58559C13.6719 8.66618 13.5932 8.779 13.5547 8.90753C13.5161 9.03605 13.5197 9.17353 13.5649 9.29987C13.5983 9.42805 13.6717 9.54224 13.7745 9.62576C13.8773 9.70928 14.0041 9.75777 14.1364 9.76416H15.0863H15.6435H16.0649C16.2259 9.74323 16.3736 9.6641 16.4801 9.54171C16.5867 9.41933 16.6448 9.26216 16.6435 9.09987C16.6461 8.93684 16.5873 8.77879 16.4788 8.65706C16.3703 8.53534 16.22 8.45884 16.0578 8.44273ZM15.0929 20.3428H16.0357C16.1382 20.3504 16.2374 20.3819 16.3254 20.4347C16.4135 20.4876 16.4879 20.5603 16.5428 20.6471C16.5977 20.7339 16.6314 20.8324 16.6414 20.9346C16.6513 21.0368 16.6371 21.1399 16.6 21.2357C16.5654 21.3561 16.4935 21.4624 16.3947 21.5394C16.2959 21.6164 16.1752 21.6601 16.05 21.6643H14.1215C13.956 21.6515 13.8019 21.5752 13.6914 21.4514C13.5809 21.3276 13.5226 21.1658 13.5286 21C13.5263 20.8347 13.5871 20.6747 13.6985 20.5526C13.81 20.4306 13.9638 20.3555 14.1286 20.3428H15.0929ZM9.12924 16.6355C9.22174 16.6367 9.31348 16.6187 9.39871 16.5828C9.48394 16.5468 9.56083 16.4936 9.62454 16.4266C9.68826 16.3595 9.73742 16.28 9.76896 16.193C9.80049 16.1061 9.81371 16.0135 9.8078 15.9212V14.2641C9.81753 14.1696 9.80734 14.0741 9.77785 13.9839C9.74836 13.8936 9.70024 13.8105 9.63662 13.74C9.57299 13.6695 9.49528 13.6131 9.4085 13.5745C9.32172 13.5359 9.22779 13.516 9.13282 13.516C9.03784 13.516 8.94392 13.5359 8.85713 13.5745C8.77035 13.6131 8.69264 13.6695 8.62902 13.74C8.56539 13.8105 8.51727 13.8936 8.48778 13.9839C8.45829 14.0741 8.44808 14.1696 8.45781 14.2641V15.9355C8.45292 16.0263 8.46672 16.1171 8.49836 16.2024C8.52999 16.2876 8.57878 16.3655 8.64172 16.4311C8.70467 16.4967 8.78043 16.5487 8.86428 16.5839C8.94814 16.619 9.03832 16.6366 9.12924 16.6355ZM20.774 13.5883C20.8592 13.5523 20.951 13.5344 21.0435 13.5356C21.1341 13.5355 21.2238 13.5537 21.3072 13.5893C21.3906 13.6248 21.4659 13.6768 21.5286 13.7422C21.5914 13.8076 21.6402 13.885 21.6722 13.9698C21.7042 14.0546 21.7187 14.145 21.7149 14.2356V15.907C21.7246 16.0015 21.7144 16.0969 21.6849 16.1872C21.6554 16.2775 21.6073 16.3606 21.5437 16.4311C21.4801 16.5016 21.4024 16.558 21.3156 16.5966C21.2288 16.6351 21.1349 16.6551 21.0399 16.6551C20.9449 16.6551 20.851 16.6351 20.7642 16.5966C20.6774 16.558 20.5997 16.5016 20.5361 16.4311C20.4725 16.3606 20.4243 16.2775 20.3949 16.1872C20.3654 16.0969 20.3552 16.0015 20.3649 15.907V15.0784V14.2498C20.359 14.1575 20.3722 14.065 20.4037 13.978C20.4353 13.8911 20.4844 13.8116 20.5482 13.7445C20.6119 13.6774 20.6888 13.6242 20.774 13.5883Z" fill="white"/>
<rect id="Rectangle 654" x="11.4285" y="11.4287" width="7.14286" height="7.14286" rx="1.42857" fill="white"/>
</g>
</g>
<defs>
<clipPath id="clip0_670_11272">
<rect width="17.1429" height="17.1429" fill="white" transform="translate(6.42847 6.42871)"/>
</clipPath>
</defs>
</svg>
