<svg width="30" height="30" viewBox="0 0 30 30" fill="none" xmlns="http://www.w3.org/2000/svg">
<g id="btn_snap_off">
<rect id="&#231;&#159;&#169;&#229;&#189;&#162;" width="30" height="30" rx="6" fill="#6216FF"/>
<g id="ic_snap" clip-path="url(#clip0_670_11038)">
<path id="Union" fill-rule="evenodd" clip-rule="evenodd" d="M9.13624 12.1714C9.31816 12.1604 9.489 12.0804 9.61382 11.9476C9.73864 11.8148 9.80798 11.6393 9.80765 11.4571V9.82852H10.0862H11.5148C11.6496 9.82514 11.7796 9.77802 11.8853 9.69427C11.9909 9.61052 12.0665 9.49468 12.1005 9.36423C12.1361 9.25712 12.1441 9.14278 12.1238 9.03177C12.1034 8.92076 12.0555 8.81666 11.9843 8.72909C11.9131 8.64152 11.821 8.57332 11.7164 8.53077C11.6119 8.48822 11.4983 8.4727 11.3862 8.48566H9.95767H9.79337V7.20709C9.80311 7.11261 9.79289 7.01714 9.7634 6.92686C9.73391 6.83658 9.68582 6.7535 9.62219 6.68298C9.55857 6.61247 9.48084 6.5561 9.39405 6.51751C9.30727 6.47893 9.21334 6.45898 9.11837 6.45898C9.02339 6.45898 8.92949 6.47893 8.84271 6.51751C8.75592 6.5561 8.67819 6.61247 8.61457 6.68298C8.55094 6.7535 8.50283 6.83658 8.47334 6.92686C8.44385 7.01714 8.43365 7.11261 8.44339 7.20709V8.33566V8.4428H7.28622C7.10169 8.41144 6.91205 8.44761 6.75201 8.54469C6.59198 8.64176 6.47225 8.79324 6.41479 8.97138V9.27851C6.46889 9.45135 6.58261 9.59936 6.73567 9.69617C6.88872 9.79297 7.07118 9.83228 7.25052 9.80709H7.9648H8.42909V11.4357C8.41964 11.5322 8.43121 11.6296 8.463 11.7212C8.49479 11.8128 8.54604 11.8964 8.61324 11.9664C8.68043 12.0363 8.762 12.0908 8.85228 12.1262C8.94256 12.1616 9.03944 12.177 9.13624 12.1714ZM23.1216 20.3428H22.2145H21.693V18.7499C21.7028 18.6554 21.6926 18.56 21.6631 18.4697C21.6336 18.3794 21.5855 18.2963 21.5218 18.2258C21.4582 18.1553 21.3805 18.0989 21.2937 18.0603C21.2069 18.0218 21.113 18.0018 21.018 18.0018C20.9231 18.0018 20.8291 18.0218 20.7423 18.0603C20.6556 18.0989 20.5779 18.1553 20.5142 18.2258C20.4506 18.2963 20.4025 18.3794 20.373 18.4697C20.3435 18.56 20.3333 18.6554 20.343 18.7499V20.1785V20.3713H20.0645H18.593C18.4586 20.3719 18.3281 20.4171 18.2221 20.4999C18.1161 20.5826 18.0405 20.6982 18.0073 20.8285C17.9718 20.9356 17.9638 21.0499 17.9841 21.161C18.0044 21.272 18.0524 21.3761 18.1236 21.4636C18.1948 21.5512 18.2869 21.6194 18.3914 21.662C18.4959 21.7045 18.6095 21.72 18.7216 21.7071H20.3645V21.9071V23.0713C20.3657 23.2405 20.4307 23.4031 20.5465 23.5264C20.6624 23.6497 20.8205 23.7247 20.9893 23.7365C21.1581 23.7482 21.3251 23.6958 21.4569 23.5897C21.5887 23.4836 21.6756 23.3316 21.7002 23.1642C21.711 23.0741 21.711 22.9829 21.7002 22.8928V21.6999H21.9359H23.1359C23.3007 21.6889 23.4548 21.6141 23.5655 21.4915C23.6761 21.3688 23.7347 21.2079 23.7288 21.0428C23.7356 20.9568 23.7252 20.8703 23.6982 20.7884C23.6713 20.7065 23.6283 20.6308 23.5718 20.5656C23.5153 20.5005 23.4464 20.4472 23.3691 20.4089C23.2918 20.3707 23.2077 20.3482 23.1216 20.3428ZM18.943 9.79279C18.8241 9.79992 18.7048 9.79992 18.5859 9.79279H18.6216C18.4582 9.77578 18.307 9.69883 18.197 9.57681C18.087 9.45479 18.0261 9.29634 18.0261 9.13207C18.0261 8.9678 18.087 8.80937 18.197 8.68735C18.307 8.56532 18.4582 8.48837 18.6216 8.47136C18.7525 8.46415 18.8836 8.46415 19.0145 8.47136C19.639 8.4607 20.2476 8.66924 20.7343 9.06073C21.2211 9.45222 21.5553 10.0019 21.6788 10.6142C21.73 10.9257 21.7492 11.2417 21.7359 11.5571C21.7306 11.6445 21.7077 11.7299 21.6685 11.8082C21.6294 11.8865 21.5748 11.9561 21.5081 12.0128C21.4414 12.0695 21.3639 12.1121 21.2803 12.1382C21.1967 12.1642 21.1087 12.173 21.0216 12.1642C20.8509 12.1607 20.6879 12.0923 20.5658 11.9729C20.4437 11.8535 20.3717 11.692 20.3645 11.5214C20.3675 11.282 20.3483 11.0429 20.3073 10.8071C20.2331 10.5059 20.0563 10.2399 19.8074 10.0549C19.5585 9.8698 19.2528 9.77714 18.943 9.79279ZM11.5856 20.3428C11.4666 20.3357 11.3474 20.3357 11.2284 20.3428C10.9186 20.3585 10.613 20.2658 10.3641 20.0807C10.1152 19.8957 9.9384 19.6297 9.86415 19.3285C9.82356 19.1095 9.80441 18.887 9.80699 18.6642C9.80143 18.4899 9.72824 18.3246 9.60292 18.2033C9.4776 18.0819 9.31001 18.0141 9.13558 18.0142C8.96436 18.0084 8.79776 18.0704 8.67202 18.1868C8.54629 18.3032 8.47159 18.4645 8.46415 18.6357C8.44872 18.9342 8.46547 19.2336 8.51414 19.5285C8.64467 20.1413 8.98372 20.6899 9.47348 21.0806C9.96323 21.4714 10.5734 21.6802 11.1999 21.6714H11.5927C11.7518 21.6492 11.8977 21.5707 12.0038 21.4501C12.11 21.3295 12.1694 21.1749 12.1713 21.0142C12.1742 20.8496 12.1159 20.6898 12.0077 20.5658C11.8995 20.4417 11.7491 20.3623 11.5856 20.3428ZM14.1151 8.4428H16.0579C16.2202 8.45891 16.3705 8.53541 16.479 8.65713C16.5875 8.77886 16.6462 8.93691 16.6437 9.09994C16.645 9.26223 16.5869 9.4194 16.4803 9.54178C16.3737 9.66417 16.226 9.7433 16.0651 9.76423H15.6437H15.0865H14.1365C14.0042 9.75784 13.8774 9.70935 13.7746 9.62583C13.6718 9.54231 13.5984 9.42812 13.5651 9.29994C13.5199 9.1736 13.5163 9.03612 13.5549 8.90759C13.5934 8.77907 13.6721 8.66625 13.7794 8.58566C13.877 8.50978 13.9927 8.46056 14.1151 8.4428ZM16.0359 20.3428H15.0931H14.1288C13.964 20.3555 13.8102 20.4305 13.6987 20.5526C13.5872 20.6747 13.5265 20.8346 13.5288 20.9999C13.5228 21.1658 13.5811 21.3275 13.6916 21.4513C13.8021 21.5751 13.9562 21.6514 14.1216 21.6642H16.0502C16.1754 21.66 16.2961 21.6163 16.3949 21.5393C16.4937 21.4623 16.5656 21.356 16.6002 21.2356C16.6373 21.1399 16.6515 21.0368 16.6415 20.9345C16.6316 20.8323 16.5978 20.7339 16.543 20.6471C16.4881 20.5602 16.4137 20.4875 16.3256 20.4347C16.2375 20.3818 16.1383 20.3504 16.0359 20.3428ZM9.39889 16.5829C9.31365 16.6189 9.22191 16.6368 9.12942 16.6357C9.03849 16.6368 8.94832 16.6192 8.86446 16.584C8.7806 16.5489 8.70484 16.4969 8.6419 16.4313C8.57895 16.3656 8.53017 16.2878 8.49853 16.2025C8.46689 16.1173 8.45309 16.0265 8.45799 15.9357V14.2642C8.44825 14.1697 8.45847 14.0743 8.48796 13.984C8.51745 13.8937 8.56557 13.8106 8.62919 13.7401C8.69281 13.6696 8.77052 13.6132 8.85731 13.5746C8.94409 13.5361 9.03802 13.5161 9.13299 13.5161C9.22797 13.5161 9.32189 13.5361 9.40867 13.5746C9.49546 13.6132 9.57317 13.6696 9.63679 13.7401C9.70042 13.8106 9.74853 13.8937 9.77802 13.984C9.80751 14.0743 9.81771 14.1697 9.80797 14.2642V15.9214C9.81389 16.0137 9.80067 16.1062 9.76913 16.1932C9.73759 16.2802 9.68843 16.3597 9.62472 16.4267C9.561 16.4938 9.48412 16.547 9.39889 16.5829ZM21.0436 13.5357C20.9511 13.5345 20.8594 13.5524 20.7742 13.5884C20.6889 13.6244 20.612 13.6775 20.5483 13.7446C20.4846 13.8117 20.4355 13.8912 20.4039 13.9781C20.3724 14.0651 20.3592 14.1576 20.3651 14.25V15.0785V15.9071C20.3553 16.0016 20.3655 16.097 20.395 16.1873C20.4245 16.2776 20.4726 16.3607 20.5363 16.4312C20.5999 16.5017 20.6776 16.5581 20.7644 16.5967C20.8512 16.6353 20.9451 16.6552 21.0401 16.6552C21.135 16.6552 21.229 16.6353 21.3157 16.5967C21.4025 16.5581 21.4802 16.5017 21.5439 16.4312C21.6075 16.3607 21.6556 16.2776 21.6851 16.1873C21.7146 16.097 21.7248 16.0016 21.7151 15.9071V14.2357C21.7189 14.1451 21.7044 14.0547 21.6724 13.9699C21.6404 13.8851 21.5915 13.8077 21.5288 13.7423C21.4661 13.6769 21.3907 13.6249 21.3073 13.5894C21.224 13.5539 21.1343 13.5356 21.0436 13.5357ZM15.3281 17.6619C15.2033 17.7947 15.0324 17.8747 14.8505 17.8857C14.7537 17.8913 14.6568 17.8759 14.5666 17.8405C14.4763 17.8051 14.3947 17.7505 14.3275 17.6806C14.2603 17.6107 14.2091 17.5271 14.1773 17.4355C14.1455 17.3439 14.1339 17.2465 14.1434 17.1499V15.5214H13.6791H12.9648C12.7855 15.5466 12.603 15.5073 12.45 15.4105C12.2969 15.3137 12.1832 15.1656 12.1291 14.9928V14.6857C12.1865 14.5075 12.3063 14.356 12.4663 14.259C12.6263 14.1619 12.816 14.1257 13.0005 14.1571H14.1577V14.0499V12.9214C14.1479 12.8269 14.1581 12.7314 14.1876 12.6411C14.2171 12.5509 14.2652 12.4678 14.3289 12.3973C14.3925 12.3268 14.4702 12.2704 14.557 12.2318C14.6438 12.1932 14.7377 12.1733 14.8327 12.1733C14.9276 12.1733 15.0216 12.1932 15.1083 12.2318C15.1951 12.2704 15.2729 12.3268 15.3365 12.3973C15.4001 12.4678 15.4482 12.5509 15.4777 12.6411C15.5072 12.7314 15.5174 12.8269 15.5077 12.9214V14.1999H15.672H17.1005C17.2126 14.187 17.3262 14.2025 17.4307 14.2451C17.5353 14.2876 17.6274 14.3558 17.6986 14.4434C17.7698 14.5309 17.8177 14.635 17.838 14.7461C17.8584 14.8571 17.8504 14.9714 17.8148 15.0785C17.7808 15.209 17.7052 15.3248 17.5996 15.4086C17.4939 15.4923 17.3639 15.5394 17.2291 15.5428H15.8005H15.5219V17.1714C15.5223 17.3536 15.4529 17.5291 15.3281 17.6619Z" fill="white" fill-opacity="0.6"/>
</g>
</g>
<defs>
<clipPath id="clip0_670_11038">
<rect width="17.1429" height="17.1429" fill="white" transform="translate(6.42871 6.42871)"/>
</clipPath>
</defs>
</svg>
