<svg width="30" height="30" viewBox="0 0 30 30" fill="none" xmlns="http://www.w3.org/2000/svg">
<rect width="30" height="30" rx="6" fill="#424242"/>
<g clip-path="url(#clip0_5355_21691)">
<path d="M15 23C14.4865 23 14.0028 22.7403 13.6605 22.2876L12.5442 20.8033C12.5219 20.7737 12.4326 20.7365 12.3953 20.7291H12.0233C8.92 20.7291 7 19.8905 7 15.7199V12.0093C7 8.72913 8.73395 7 12.0233 7H17.9767C21.266 7 23 8.72913 23 12.0093V15.7199C23 19 21.266 20.7291 17.9767 20.7291H17.6047C17.5451 20.7291 17.493 20.7588 17.4558 20.8033L16.3395 22.2876C15.9972 22.7403 15.5135 23 15 23ZM12.0233 8.11317C9.35907 8.11317 8.11628 9.3525 8.11628 12.0093V15.7199C8.11628 19.0742 9.26977 19.616 12.0233 19.616H12.3953C12.7749 19.616 13.2065 19.8312 13.4372 20.1354L14.5535 21.6197C14.814 21.961 15.186 21.961 15.4465 21.6197L16.5628 20.1354C16.8084 19.8089 17.1953 19.616 17.6047 19.616H17.9767C20.6409 19.616 21.8837 18.3766 21.8837 15.7199V12.0093C21.8837 9.3525 20.6409 8.11317 17.9767 8.11317H12.0233Z" fill="#B3B3B3" stroke="#B3B3B3" stroke-width="0.1"/>
<path d="M14.7214 16.7124C14.9034 16.7015 15.0742 16.6214 15.199 16.4886C15.3238 16.3558 15.3932 16.1803 15.3929 15.9981V14.3695H15.6714C16.15 14.3695 16.6286 14.3695 17.1 14.3695C17.2348 14.3662 17.3648 14.319 17.4705 14.2353C17.5761 14.1515 17.6517 14.0357 17.6857 13.9052C17.7213 13.7981 17.7293 13.6838 17.709 13.5728C17.6886 13.4618 17.6407 13.3577 17.5695 13.2701C17.4983 13.1825 17.4062 13.1143 17.3016 13.0718C17.1971 13.0292 17.0836 13.0137 16.9714 13.0267C16.4929 13.0267 16.0214 13.0267 15.5429 13.0267H15.3786C15.3786 12.5981 15.3786 12.1695 15.3786 11.7481C15.3883 11.6536 15.3781 11.5582 15.3486 11.4679C15.3191 11.3776 15.271 11.2945 15.2074 11.224C15.1438 11.1535 15.066 11.0971 14.9793 11.0585C14.8925 11.0199 14.7985 11 14.7036 11C14.6086 11 14.5147 11.0199 14.4279 11.0585C14.3411 11.0971 14.2634 11.1535 14.1998 11.224C14.1361 11.2945 14.088 11.3776 14.0585 11.4679C14.0291 11.5582 14.0189 11.6536 14.0286 11.7481C14.0286 12.1195 14.0286 12.4981 14.0286 12.8767V12.9838C13.6214 12.9838 13.25 12.9838 12.8714 12.9838C12.6869 12.9525 12.4973 12.9886 12.3372 13.0857C12.1772 13.1828 12.0575 13.3343 12 13.5124V13.8195C12.0541 13.9924 12.1678 14.1404 12.3209 14.2372C12.4739 14.334 12.6564 14.3733 12.8357 14.3481C13.0786 14.3481 13.3214 14.3481 13.55 14.3481H14.0143C14.0143 14.9052 14.0143 15.441 14.0143 15.9767C14.0048 16.0732 14.0164 16.1706 14.0482 16.2622C14.08 16.3538 14.1312 16.4375 14.1984 16.5074C14.2656 16.5773 14.3472 16.6318 14.4375 16.6672C14.5278 16.7026 14.6246 16.718 14.7214 16.7124Z" fill="#B3B3B3"/>
</g>
<defs>
<clipPath id="clip0_5355_21691">
<rect width="18" height="18" fill="white" transform="translate(6 6)"/>
</clipPath>
</defs>
</svg>
