<svg width="30" height="30" viewBox="0 0 30 30" fill="none" xmlns="http://www.w3.org/2000/svg">
<rect width="30" height="30" rx="6" fill="#424242"/>
<g filter="url(#filter0_d_3510_115635)">
<path fill-rule="evenodd" clip-rule="evenodd" d="M10.1094 8H18.8594C19.6879 8.00099 20.4822 8.33055 21.068 8.91639C21.6538 9.50222 21.9834 10.2965 21.9844 11.125V19.875C21.9834 20.7035 21.6538 21.4978 21.068 22.0836C20.4822 22.6694 19.6879 22.999 18.8594 23H10.1094C9.28088 22.999 8.4866 22.6694 7.90076 22.0836C7.31493 21.4978 6.98537 20.7035 6.98438 19.875V11.125C6.98537 10.2965 7.31493 9.50222 7.90076 8.91639C8.4866 8.33055 9.28088 8.00099 10.1094 8ZM18.8594 9.25H10.1094C9.61209 9.25 9.13518 9.44754 8.78355 9.79917C8.43192 10.1508 8.23438 10.6277 8.23438 11.125V17.1163L10.4 14.9512C10.6902 14.661 11.0347 14.4307 11.4139 14.2736C11.7931 14.1165 12.1996 14.0357 12.61 14.0357C13.0205 14.0357 13.4269 14.1165 13.8061 14.2736C14.1853 14.4307 14.5298 14.661 14.82 14.9512L20.5469 20.6781C20.6692 20.428 20.7333 20.1534 20.7344 19.875V11.125C20.7344 10.6277 20.5368 10.1508 20.1852 9.79917C19.8336 9.44754 19.3567 9.25 18.8594 9.25ZM8.78355 21.2008C9.13518 21.5525 9.61209 21.75 10.1094 21.75H18.8594C19.1378 21.7489 19.4124 21.6848 19.6625 21.5625L13.9356 15.835C13.7615 15.6608 13.5547 15.5225 13.3272 15.4282C13.0996 15.3339 12.8557 15.2854 12.6094 15.2854C12.363 15.2854 12.1191 15.3339 11.8916 15.4282C11.664 15.5225 11.4573 15.6608 11.2831 15.835L8.23438 18.8837V19.875C8.23438 20.3723 8.43192 20.8492 8.78355 21.2008ZM18.1996 14.1938C17.8399 14.4341 17.4169 14.5624 16.9843 14.5624C16.4041 14.5624 15.8477 14.332 15.4375 13.9217C15.0273 13.5115 14.7968 12.9551 14.7968 12.3749C14.7968 11.9423 14.9251 11.5193 15.1655 11.1596C15.4058 10.7999 15.7475 10.5195 16.1472 10.3539C16.5469 10.1884 16.9867 10.1451 17.4111 10.2295C17.8354 10.3139 18.2252 10.5222 18.5311 10.8281C18.837 11.1341 19.0454 11.5238 19.1298 11.9482C19.2142 12.3725 19.1709 12.8123 19.0053 13.212C18.8397 13.6118 18.5593 13.9534 18.1996 14.1938ZM17.5051 11.5954C17.351 11.4924 17.1697 11.4374 16.9843 11.4374C16.7357 11.4374 16.4972 11.5362 16.3214 11.712C16.1456 11.8878 16.0468 12.1263 16.0468 12.3749C16.0468 12.5603 16.1018 12.7416 16.2048 12.8958C16.3078 13.0499 16.4542 13.1701 16.6255 13.2411C16.7968 13.312 16.9853 13.3306 17.1672 13.2944C17.3491 13.2582 17.5161 13.1689 17.6472 13.0378C17.7783 12.9067 17.8676 12.7397 17.9038 12.5578C17.94 12.376 17.9214 12.1875 17.8504 12.0162C17.7795 11.8449 17.6593 11.6984 17.5051 11.5954Z" fill="#B3B3B3"/>
</g>
<defs>
<filter id="filter0_d_3510_115635" x="4.92187" y="6.625" width="19.125" height="19.125" filterUnits="userSpaceOnUse" color-interpolation-filters="sRGB">
<feFlood flood-opacity="0" result="BackgroundImageFix"/>
<feColorMatrix in="SourceAlpha" type="matrix" values="0 0 0 0 0 0 0 0 0 0 0 0 0 0 0 0 0 0 127 0" result="hardAlpha"/>
<feOffset dy="0.6875"/>
<feGaussianBlur stdDeviation="1.03125"/>
<feComposite in2="hardAlpha" operator="out"/>
<feColorMatrix type="matrix" values="0 0 0 0 0 0 0 0 0 0 0 0 0 0 0 0 0 0 0.15 0"/>
<feBlend mode="normal" in2="BackgroundImageFix" result="effect1_dropShadow_3510_115635"/>
<feBlend mode="normal" in="SourceGraphic" in2="effect1_dropShadow_3510_115635" result="shape"/>
</filter>
</defs>
</svg>
