<svg width="30" height="30" viewBox="0 0 30 30" fill="none" xmlns="http://www.w3.org/2000/svg">
<rect width="30" height="30" rx="6" fill="#424242"/>
<g clip-path="url(#clip0_11391_45320)" filter="url(#filter0_d_11391_45320)">
<g filter="url(#filter1_d_11391_45320)">
<path d="M14.2264 9.55664H8.04207C7.80173 9.55664 7.60687 9.7515 7.60687 9.99184V16.1762C7.60687 16.4165 7.80173 16.6114 8.04207 16.6114H10.6823L13.0957 12.4312C13.4032 11.8989 14.0565 11.6391 14.6616 11.854V9.99184C14.6616 9.7515 14.4668 9.55664 14.2264 9.55664Z" fill="#B3B3B3"/>
<path d="M18.392 19.4304C15.8959 15.1068 16.673 16.4527 14.603 12.8677C14.4359 12.5782 14.0167 12.5777 13.8492 12.8677L10.0603 19.4304C9.89316 19.7198 10.1024 20.0831 10.4372 20.0831H18.0151C18.3493 20.0831 18.5593 19.7204 18.392 19.4304Z" fill="#B3B3B3"/>
<path d="M17.6626 9.21484C16.8761 9.21484 16.1438 9.45075 15.5324 9.85534V12.7359C17.3872 15.9482 16.8733 15.0582 17.9627 16.9452C19.9574 16.7915 21.5335 15.1192 21.5335 13.0858C21.5335 10.9514 19.797 9.21484 17.6626 9.21484Z" fill="#B3B3B3"/>
</g>
</g>
<defs>
<filter id="filter0_d_11391_45320" x="4.39313" y="4.92875" width="20.3538" height="20.3544" filterUnits="userSpaceOnUse" color-interpolation-filters="sRGB">
<feFlood flood-opacity="0" result="BackgroundImageFix"/>
<feColorMatrix in="SourceAlpha" type="matrix" values="0 0 0 0 0 0 0 0 0 0 0 0 0 0 0 0 0 0 127 0" result="hardAlpha"/>
<feOffset dy="0.535625"/>
<feGaussianBlur stdDeviation="0.803437"/>
<feComposite in2="hardAlpha" operator="out"/>
<feColorMatrix type="matrix" values="0 0 0 0 0 0 0 0 0 0 0 0 0 0 0 0 0 0 0.15 0"/>
<feBlend mode="normal" in2="BackgroundImageFix" result="effect1_dropShadow_11391_45320"/>
<feBlend mode="normal" in="SourceGraphic" in2="effect1_dropShadow_11391_45320" result="shape"/>
</filter>
<filter id="filter1_d_11391_45320" x="6" y="8.14359" width="17.1404" height="14.0829" filterUnits="userSpaceOnUse" color-interpolation-filters="sRGB">
<feFlood flood-opacity="0" result="BackgroundImageFix"/>
<feColorMatrix in="SourceAlpha" type="matrix" values="0 0 0 0 0 0 0 0 0 0 0 0 0 0 0 0 0 0 127 0" result="hardAlpha"/>
<feOffset dy="0.535625"/>
<feGaussianBlur stdDeviation="0.803437"/>
<feComposite in2="hardAlpha" operator="out"/>
<feColorMatrix type="matrix" values="0 0 0 0 0 0 0 0 0 0 0 0 0 0 0 0 0 0 0.15 0"/>
<feBlend mode="normal" in2="BackgroundImageFix" result="effect1_dropShadow_11391_45320"/>
<feBlend mode="normal" in="SourceGraphic" in2="effect1_dropShadow_11391_45320" result="shape"/>
</filter>
<clipPath id="clip0_11391_45320">
<rect width="17.14" height="17.14" fill="white" transform="translate(6 6)"/>
</clipPath>
</defs>
</svg>
