<svg width="34" height="34" viewBox="0 0 34 34" fill="none" xmlns="http://www.w3.org/2000/svg">
<path d="M25.9655 15.9658H25.9646C25.8287 15.9659 25.6942 15.9928 25.5687 16.0449C25.4433 16.097 25.3293 16.1733 25.2333 16.2695C25.1373 16.3656 25.0612 16.4797 25.0093 16.6053C24.9574 16.7308 24.9308 16.8654 24.9309 17.0012C24.9296 18.4516 24.5308 19.8739 23.7778 21.1134C23.0248 22.353 21.9464 23.3624 20.6598 24.032C19.3733 24.7016 17.9278 25.0057 16.4806 24.9114C15.0333 24.817 13.6396 24.3277 12.4509 23.4966C8.86886 20.9885 7.99517 16.0336 10.5034 12.4516C13.0115 8.8695 17.9664 7.99572 21.5484 10.504C22.0904 10.8825 22.5829 11.3272 23.0145 11.8278H20.1032C19.8288 11.8278 19.5657 11.9367 19.3717 12.1308C19.1777 12.3248 19.0687 12.5879 19.0687 12.8623C19.0687 13.1366 19.1777 13.3998 19.3717 13.5938C19.5657 13.7878 19.8288 13.8968 20.1032 13.8968H24.931C25.2053 13.8968 25.4685 13.7878 25.6625 13.5938C25.8565 13.3998 25.9655 13.1366 25.9655 12.8623V8.03452C25.9655 7.76015 25.8565 7.49701 25.6625 7.303C25.4685 7.10899 25.2053 7 24.931 7C24.6566 7 24.3935 7.10899 24.1994 7.303C24.0054 7.49701 23.8964 7.76015 23.8964 8.03452V9.75729C23.5334 9.41284 23.1453 9.09586 22.7352 8.80898C21.6595 8.05579 20.446 7.52183 19.164 7.23762C17.8819 6.9534 16.5564 6.92449 15.2632 7.15252C13.97 7.38056 12.7344 7.86108 11.6268 8.56665C10.5193 9.27222 9.56163 10.189 8.80843 11.2647C7.28728 13.4372 6.69143 16.1249 7.15197 18.7367C7.61251 21.3485 9.09171 23.6703 11.2642 25.1915C12.9368 26.3696 14.9326 27.0021 16.9785 27.0025C17.5677 27.0023 18.1558 26.9505 18.7361 26.848C21.0514 26.4396 23.1489 25.2285 24.6601 23.4274C26.1714 21.6264 26.9998 19.3505 27 16.9994C26.9998 16.7252 26.8907 16.4623 26.6967 16.2685C26.5027 16.0747 26.2397 15.9658 25.9655 15.9658Z" fill="white" stroke="white" stroke-width="0.4"/>
<circle cx="17" cy="17" r="16.5" stroke="#707070"/>
</svg>
