<svg width="41" height="41" viewBox="0 0 41 41" fill="none" xmlns="http://www.w3.org/2000/svg">
<g clip-path="url(#clip0_5355_22778)">
<path d="M20.4999 0C9.17808 0 0 9.17808 0 20.4999C0 31.8217 9.17808 41.0001 20.4999 41.0001C31.8217 41.0001 41.0001 31.8217 41.0001 20.4999C40.9874 9.18333 31.8168 0.0127624 20.4999 0ZM20.4999 38.9499C10.3102 38.9499 2.04987 30.6896 2.04987 20.4999C2.04987 10.3102 10.3102 2.04987 20.4999 2.04987C30.6896 2.04987 38.9499 10.3102 38.9499 20.4999C38.9382 30.6847 30.6847 38.9382 20.4999 38.9499Z" fill="white"/>
<path d="M18.0998 12.5542C17.6734 12.1815 17.0259 12.225 16.6531 12.6511C16.2808 13.0775 16.3243 13.725 16.7503 14.0977L24.0685 20.5007L16.75 26.9041C16.3236 27.2768 16.2804 27.9243 16.6527 28.3504C17.0255 28.7768 17.673 28.8203 18.0994 28.4476L26.2993 21.2725C26.5219 21.078 26.6495 20.7965 26.6495 20.5007C26.6495 20.2049 26.5219 19.9238 26.2993 19.729L18.0998 12.5542Z" fill="white"/>
</g>
<defs>
<clipPath id="clip0_5355_22778">
<rect width="41" height="41" fill="white"/>
</clipPath>
</defs>
</svg>
