<svg width="41" height="41" viewBox="0 0 41 41" fill="none" xmlns="http://www.w3.org/2000/svg">
<g clip-path="url(#clip0_5355_22779)">
<path d="M20.5001 41C31.8219 41 41 31.8219 41 20.5001C41 9.17833 31.8219 -0.000122873 20.5001 -0.000123862C9.17833 -0.000124852 -0.000119288 9.17833 -0.000120278 20.5001C0.0126389 31.8167 9.18321 40.9872 20.5001 41ZM20.5001 2.05013C30.6898 2.05013 38.9501 10.3104 38.9501 20.5001C38.9501 30.6898 30.6898 38.9501 20.5001 38.9501C10.3104 38.9501 2.05013 30.6898 2.05013 20.5001C2.06177 10.3153 10.3153 2.06176 20.5001 2.05013Z" fill="white" />
<path d="M22.9002 28.4458C23.3266 28.8185 23.9741 28.775 24.3469 28.3489C24.7192 27.9225 24.6757 27.275 24.2497 26.9023L16.9315 20.4993L24.25 14.0959C24.6764 13.7232 24.7196 13.0757 24.3473 12.6496C23.9745 12.2232 23.327 12.1797 22.9006 12.5524L14.7007 19.7275C14.4781 19.922 14.3505 20.2035 14.3505 20.4993C14.3505 20.7951 14.4781 21.0762 14.7007 21.271L22.9002 28.4458Z" fill="white" />
</g>
<defs>
<clipPath id="clip0_5355_22779">
<rect width="41" height="41" fill="white" transform="translate(41 41) rotate(-180)"/>
</clipPath>
</defs>
</svg>
