<svg width="22" height="22" viewBox="0 0 22 22" fill="none" xmlns="http://www.w3.org/2000/svg">
<g clip-path="url(#clip0_5355_22119)">
<path d="M11.4542 4.59888C9.59861 4.47054 7.77511 5.14967 6.45963 6.46516C5.14949 7.77529 4.47036 9.59879 4.5987 11.4544C4.82864 14.7966 7.72164 17.4168 11.1815 17.4168H14.7429C16.3151 17.4168 17.4166 16.1334 17.4166 14.2885V11.1763C17.4166 7.72182 14.7964 4.82882 11.4542 4.59888ZM16.3471 14.2885C16.3471 15.5185 15.7001 16.3473 14.7429 16.3473H11.1815C8.28313 16.3473 5.86071 14.1656 5.6682 11.3849C5.56125 9.83408 6.12809 8.31539 7.21897 7.21915C8.2243 6.21383 9.58792 5.65234 11.0103 5.65234C11.1333 5.65234 11.2617 5.65234 11.3847 5.66303C14.1707 5.85554 16.3471 8.27796 16.3471 11.1763V14.2885Z" fill="white" stroke="white" stroke-width="0.5"/>
</g>
<defs>
<clipPath id="clip0_5355_22119">
<rect width="22" height="22" fill="white"/>
</clipPath>
</defs>
</svg>
