<svg width="21" height="20" viewBox="0 0 21 20" fill="none" xmlns="http://www.w3.org/2000/svg">
<g clip-path="url(#clip0_5355_22089)">
<path d="M10.24 1C8.43623 1 6.67297 1.52784 5.1732 2.51677C3.67342 3.50571 2.50449 4.91131 1.81422 6.55585C1.12395 8.20038 0.94334 10.01 1.29524 11.7558C1.64713 13.5016 2.51573 15.1053 3.79118 16.364C5.06664 17.6226 6.69167 18.4798 8.46077 18.8271C10.2299 19.1743 12.0636 18.9961 13.7301 18.3149C15.3965 17.6337 16.8209 16.4802 17.823 15.0001C18.8251 13.5201 19.36 11.78 19.36 10C19.36 7.61305 18.3991 5.32387 16.6888 3.63604C14.9785 1.94821 12.6588 1 10.24 1ZM10.24 17.8019C8.67636 17.8019 7.14783 17.3443 5.84772 16.487C4.5476 15.6297 3.53428 14.4113 2.9359 12.9856C2.33752 11.56 2.18096 9.99134 2.48601 8.47793C2.79106 6.96451 3.54402 5.57435 4.64968 4.48324C5.75534 3.39213 7.16404 2.64907 8.69763 2.34804C10.2312 2.047 11.8208 2.2015 13.2655 2.79201C14.7101 3.38251 15.9448 4.3825 16.8135 5.66551C17.6822 6.94852 18.1459 8.45693 18.1459 10C18.1444 12.0687 17.311 14.0523 15.8286 15.5151C14.3463 16.9779 12.3363 17.8004 10.24 17.8019Z" fill="#A77CFF"/>
<path d="M10.24 1V0.85V1ZM19.36 10H19.51H19.36ZM10.24 17.8019V17.9519H10.2401L10.24 17.8019ZM18.1459 10L18.2959 10.0001V10H18.1459ZM10.24 0.85C8.407 0.85 6.61501 1.38638 5.09062 2.39155L5.25577 2.642C6.73093 1.6693 8.46546 1.15 10.24 1.15V0.85ZM5.09062 2.39155C3.56621 3.39672 2.37778 4.82563 1.67591 6.49779L1.95253 6.6139C2.6312 4.997 3.78063 3.61469 5.25577 2.642L5.09062 2.39155ZM1.67591 6.49779C0.974029 8.16998 0.790353 10.0101 1.14819 11.7854L1.44228 11.7262C1.09633 10.0098 1.27386 8.23078 1.95253 6.6139L1.67591 6.49779ZM1.14819 11.7854C1.50603 13.5608 2.38924 15.1912 3.68582 16.4707L3.89655 16.2572C2.64222 15.0194 1.78824 13.4425 1.44228 11.7262L1.14819 11.7854ZM3.68582 16.4707C4.98238 17.7502 6.63406 18.6214 8.43188 18.9743L8.48967 18.6799C6.74928 18.3382 5.1509 17.495 3.89655 16.2572L3.68582 16.4707ZM8.43188 18.9743C10.2297 19.3272 12.0932 19.1461 13.7868 18.4538L13.6733 18.1761C12.034 18.8461 10.2301 19.0215 8.48967 18.6799L8.43188 18.9743ZM13.7868 18.4538C15.4805 17.7615 16.9284 16.589 17.9472 15.0842L17.6988 14.916C16.7134 16.3714 15.3126 17.506 13.6733 18.1761L13.7868 18.4538ZM17.9472 15.0842C18.9661 13.5795 19.51 11.8101 19.51 10H19.21C19.21 11.7499 18.6842 13.4607 17.6988 14.916L17.9472 15.0842ZM19.51 10C19.51 7.57262 18.5328 5.24507 16.7942 3.52927L16.5834 3.7428C18.2654 5.40266 19.21 7.65348 19.21 10H19.51ZM16.7942 3.52927C15.0556 1.81354 12.6979 0.85 10.24 0.85V1.15C12.6196 1.15 14.9014 2.08288 16.5834 3.7428L16.7942 3.52927ZM10.24 17.6519C8.70559 17.6519 7.20579 17.2028 5.93029 16.3618L5.76514 16.6122C7.08987 17.4858 8.64713 17.9519 10.24 17.9519V17.6519ZM5.93029 16.3618C4.65481 15.5208 3.66099 14.3256 3.07421 12.9276L2.79759 13.0437C3.40757 14.4969 4.44039 15.7387 5.76514 16.6122L5.93029 16.3618ZM3.07421 12.9276C2.48744 11.5296 2.33394 9.99149 2.63305 8.50757L2.33897 8.44829C2.02797 9.9912 2.1876 11.5904 2.79759 13.0437L3.07421 12.9276ZM2.63305 8.50757C2.93216 7.02363 3.67051 5.66027 4.75504 4.59001L4.54432 4.37647C3.41754 5.48843 2.64996 6.9054 2.33897 8.44829L2.63305 8.50757ZM4.75504 4.59001C5.8396 3.51972 7.22165 2.79063 8.72653 2.49523L8.66874 2.20084C7.10643 2.50752 5.67108 3.26454 4.54432 4.37647L4.75504 4.59001ZM8.72653 2.49523C10.2314 2.19982 11.7912 2.35145 13.2087 2.93086L13.3222 2.65316C11.8504 2.05155 10.231 1.89417 8.66874 2.20084L8.72653 2.49523ZM13.2087 2.93086C14.6261 3.51025 15.8373 4.49129 16.6893 5.74961L16.9377 5.58141C16.0523 4.27371 14.794 3.25478 13.3222 2.65316L13.2087 2.93086ZM16.6893 5.74961C17.5413 7.0079 17.9959 8.48705 17.9959 10H18.2959C18.2959 8.42682 17.8232 6.88914 16.9377 5.58141L16.6893 5.74961ZM17.9959 9.99989C17.9944 12.0282 17.1773 13.9735 15.7233 15.4083L15.934 15.6219C17.4446 14.1311 18.2944 12.1092 18.2959 10.0001L17.9959 9.99989ZM15.7233 15.4083C14.2692 16.8433 12.2971 17.6504 10.2399 17.6519L10.2401 17.9519C12.3755 17.9504 14.4234 17.1126 15.934 15.6219L15.7233 15.4083Z" fill="#A77CFF"/>
<rect x="7.06921" y="6.9624" width="6.075" height="6.075" rx="1" fill="#A77CFF"/>
</g>
<defs>
<clipPath id="clip0_5355_22089">
<rect width="20.2667" height="20" fill="white" transform="translate(0.106689)"/>
</clipPath>
</defs>
</svg>
