<svg width="22" height="20" viewBox="0 0 22 20" fill="none" xmlns="http://www.w3.org/2000/svg">
<path fill-rule="evenodd" clip-rule="evenodd" d="M19.7084 12.9803L19.9247 12.7148C20.2978 12.258 20.5746 11.7207 20.7362 11.1395C20.8978 10.5583 20.9405 9.94675 20.8613 9.34637L20.2641 4.81746C20.1268 3.80898 19.6552 2.88668 18.9351 2.21839C18.215 1.5501 17.2942 1.18025 16.3404 1.17613H7.57127V14.2748C7.58665 14.2946 7.60014 14.3161 7.61155 14.3387L9.23396 17.8522C9.77362 19.0213 10.3271 19.561 11.6262 19.0004C11.6994 18.9672 11.7701 18.9281 11.8379 18.8836C12.2306 18.6254 12.5427 18.2483 12.7347 17.8003C12.9266 17.3523 12.9897 16.8535 12.916 16.3672L12.6307 14.5231C12.6237 14.4797 12.6257 14.4352 12.6367 14.3927C12.6476 14.3502 12.6672 14.3108 12.694 14.2773C12.72 14.2445 12.7525 14.2181 12.7891 14.2001C12.8256 14.1821 12.8654 14.1727 12.9057 14.1728H17.2598C17.724 14.1726 18.1828 14.0661 18.6052 13.8604C19.0276 13.6547 19.4038 13.3546 19.7084 12.9803ZM2.26361 12.9286C3.00589 13.7219 4.01179 14.1692 5.06167 14.1727H5.16871C5.25416 14.1727 5.3361 14.1365 5.39652 14.0719C5.45694 14.0074 5.49089 13.9198 5.49089 13.8285V1.52029C5.49089 1.429 5.45694 1.34145 5.39652 1.2769C5.3361 1.21235 5.25416 1.17609 5.16871 1.17609H5.06167C4.0119 1.17933 3.00599 1.6263 2.26368 2.41937C1.52138 3.21245 1.10301 4.28715 1.09998 5.40872V9.93887C1.10301 11.0605 1.52134 12.1354 2.26361 12.9286Z" fill="#767B82"/>
</svg>
