<svg width="22" height="22" viewBox="0 0 22 22" fill="none" xmlns="http://www.w3.org/2000/svg">
<path fill-rule="evenodd" clip-rule="evenodd" d="M17.8287 1.63839H18.5629C18.6665 1.63595 18.7695 1.656 18.8656 1.69729C18.9618 1.73857 19.0492 1.80026 19.1225 1.87864C19.1957 1.95701 19.2534 2.05044 19.292 2.15331C19.3306 2.25617 19.3494 2.36631 19.3471 2.47712V3.26232C19.336 3.3755 19.3472 3.48992 19.38 3.59815C19.4129 3.70638 19.4667 3.80602 19.5379 3.8906C19.6091 3.97517 19.6961 4.04279 19.7933 4.08908C19.8905 4.13537 19.9957 4.1593 20.1021 4.1593C20.2085 4.1593 20.3137 4.13537 20.4109 4.08908C20.5081 4.04279 20.5951 3.97517 20.6663 3.8906C20.7375 3.80602 20.7913 3.70638 20.8242 3.59815C20.857 3.48992 20.8683 3.3755 20.8571 3.26232V2.78049V2.45036C20.8653 1.90817 20.7002 1.37924 20.3893 0.950944C20.0783 0.522649 19.64 0.220631 19.1469 0.0947831C18.7032 0.0154087 18.2531 -0.0144992 17.8037 0.00555084C17.7045 0.00311023 17.6058 0.0222062 17.5137 0.0616988C17.4215 0.101191 17.3379 0.160255 17.2677 0.235316C17.1975 0.310377 17.1423 0.399878 17.1054 0.498411C17.0684 0.596944 17.0506 0.702462 17.0529 0.808586C17.0494 0.918565 17.067 1.02813 17.1048 1.1305C17.1425 1.23286 17.1996 1.32586 17.2723 1.40367C17.3451 1.48148 17.432 1.54246 17.5277 1.58284C17.6234 1.62322 17.7259 1.64212 17.8287 1.63839ZM13.9412 4.89518H3.47107C3.1576 4.88014 2.8446 4.93478 2.55189 5.05567C2.25917 5.17656 1.99308 5.36106 1.77042 5.59752C1.54776 5.83398 1.37337 6.11727 1.25827 6.42948C1.14317 6.74168 1.08987 7.076 1.10172 7.41136V18.6361C1.09008 18.9691 1.1427 19.3011 1.25628 19.6114C1.36987 19.9218 1.54201 20.2037 1.76194 20.4398C1.98188 20.6758 2.24491 20.8609 2.53465 20.9835C2.82439 21.1061 3.13461 21.1636 3.44601 21.1523H13.9662C14.2754 21.1634 14.5835 21.1067 14.8715 20.9857C15.1595 20.8648 15.4213 20.6821 15.6409 20.4489C15.8604 20.2158 16.0331 19.9371 16.1483 19.6299C16.2634 19.3228 16.3186 18.9937 16.3105 18.6629V7.43812C16.3259 7.10057 16.2752 6.76331 16.1617 6.44791C16.0482 6.13251 15.8744 5.84592 15.6514 5.60653C15.4283 5.36714 15.161 5.18021 14.8665 5.05772C14.572 4.93522 14.2568 4.87987 13.9412 4.89518ZM14.7754 18.5558C14.7754 19.2161 14.4751 19.5284 13.8494 19.5284H3.55447C2.90374 19.5284 2.6201 19.225 2.6201 18.5201V7.51845C2.6201 6.82248 2.90376 6.51909 3.54615 6.51909H13.8744C13.9981 6.50504 14.1232 6.52078 14.2406 6.56513C14.3579 6.60949 14.4644 6.68136 14.5524 6.77546C14.6404 6.86956 14.7076 6.98353 14.7491 7.109C14.7905 7.23447 14.8052 7.36825 14.7921 7.50059L14.7754 18.5558ZM20.6267 12.4696C20.7662 12.6038 20.8542 12.7885 20.8738 12.988C20.9087 13.4185 20.9087 13.8514 20.8738 14.2818C20.7737 14.8533 20.4839 15.3667 20.0576 15.7275C19.6314 16.0882 19.0975 16.272 18.5545 16.2448H17.8204C17.6338 16.2238 17.4611 16.1297 17.3356 15.9806C17.2101 15.8315 17.1407 15.638 17.1407 15.4373C17.1407 15.2367 17.2101 15.0432 17.3356 14.8941C17.4611 14.745 17.6338 14.6508 17.8204 14.6298H18.5796C18.6828 14.6335 18.7856 14.6146 18.8817 14.5743C18.9779 14.534 19.0653 14.4732 19.1387 14.3955C19.2121 14.3179 19.27 14.225 19.3087 14.1226C19.3473 14.0202 19.3661 13.9104 19.3638 13.8V12.988C19.3834 12.7885 19.4714 12.6038 19.6108 12.4696C19.7502 12.3354 19.9312 12.2611 20.1188 12.2611C20.3064 12.2611 20.4873 12.3354 20.6267 12.4696ZM5.66504 3.28018C5.66504 3.49553 5.74503 3.70205 5.8874 3.85432C6.02978 4.00659 6.22288 4.09212 6.42423 4.09212C6.62558 4.09212 6.81867 4.00659 6.96105 3.85432C7.10342 3.70205 7.18342 3.49553 7.18342 3.28018V2.52175C7.17463 2.40218 7.1902 2.28199 7.22902 2.16947C7.26783 2.05696 7.32898 1.95478 7.40828 1.86997C7.48757 1.78517 7.58311 1.71974 7.68831 1.67822C7.79352 1.6367 7.90589 1.62008 8.01769 1.62948H8.75185C8.9532 1.62948 9.1463 1.54393 9.28867 1.39165C9.43105 1.23938 9.51104 1.03286 9.51104 0.817513C9.51104 0.602166 9.43105 0.395644 9.28867 0.243371C9.1463 0.0910985 8.9532 0.00554566 8.75185 0.00554566H7.91758C7.36749 0.0019501 6.83668 0.222023 6.43258 0.621213C6.15902 0.873372 5.9464 1.19242 5.81278 1.55125C5.67916 1.91008 5.62847 2.29809 5.66504 2.68235V3.28018ZM14.7836 1.63839H11.7719C11.6722 1.63839 11.5735 1.61741 11.4814 1.57661C11.3893 1.5358 11.3056 1.47599 11.2351 1.4006C11.1646 1.3252 11.1087 1.23569 11.0705 1.13717C11.0324 1.03866 11.0127 0.933082 11.0127 0.826454C11.0127 0.719825 11.0324 0.614219 11.0705 0.515707C11.1087 0.417195 11.1646 0.327683 11.2351 0.252285C11.3056 0.176887 11.3893 0.117104 11.4814 0.0762986C11.5735 0.0354936 11.6722 0.0144868 11.7719 0.0144868H14.7836C14.8833 0.0144868 14.982 0.0354936 15.0742 0.0762986C15.1663 0.117104 15.25 0.176887 15.3205 0.252285C15.391 0.327683 15.4469 0.417195 15.485 0.515707C15.5232 0.614219 15.5428 0.719825 15.5428 0.826454C15.5428 0.933082 15.5232 1.03866 15.485 1.13717C15.4469 1.23569 15.391 1.3252 15.3205 1.4006C15.25 1.47599 15.1663 1.5358 15.0742 1.57661C14.982 1.61741 14.8833 1.63839 14.7836 1.63839ZM20.1146 5.70716C20.0113 5.70442 19.9087 5.72474 19.8132 5.76685C19.7177 5.80896 19.6315 5.87193 19.56 5.95171C19.4886 6.03149 19.4335 6.12632 19.3982 6.23016C19.363 6.33401 19.3484 6.44458 19.3554 6.5548V9.74913C19.3443 9.86231 19.3555 9.9767 19.3884 10.0849C19.4213 10.1932 19.475 10.2928 19.5462 10.3774C19.6174 10.462 19.7044 10.5296 19.8016 10.5759C19.8988 10.6222 20.004 10.6461 20.1104 10.6461C20.2168 10.6461 20.3221 10.6222 20.4193 10.5759C20.5165 10.5296 20.6035 10.462 20.6747 10.3774C20.7459 10.2928 20.7996 10.1932 20.8325 10.0849C20.8654 9.9767 20.8766 9.86231 20.8654 9.74913V8.15197V6.5548C20.8711 6.44565 20.8559 6.33642 20.8207 6.23379C20.7856 6.13115 20.7311 6.03725 20.6608 5.95789C20.5905 5.87853 20.5059 5.81536 20.4119 5.77224C20.318 5.72912 20.2168 5.70699 20.1146 5.70716ZM9.46099 12.2118H10.9293C11.1306 12.2118 11.3238 12.2973 11.4661 12.4496C11.6085 12.6019 11.6885 12.8084 11.6885 13.0237C11.6885 13.2391 11.6085 13.4456 11.4661 13.5979C11.3238 13.7501 11.1306 13.8357 10.9293 13.8357H9.45264V15.4418C9.4563 15.56 9.43494 15.6776 9.39016 15.7857C9.34538 15.8939 9.27833 15.9898 9.19402 16.0664C9.08912 16.1641 8.95995 16.227 8.8222 16.2476C8.68445 16.2682 8.54407 16.2456 8.41815 16.1824C8.27907 16.1298 8.15904 16.0317 8.07516 15.9019C7.99127 15.7721 7.94781 15.6174 7.95096 15.4596V13.8H6.40756C6.28064 13.7959 6.15671 13.7579 6.0471 13.6894C5.93748 13.6209 5.84567 13.524 5.7801 13.4077C5.71453 13.2914 5.67729 13.1594 5.67177 13.0237C5.66624 12.8881 5.69261 12.7531 5.74848 12.6311C5.80682 12.4908 5.90321 12.3724 6.02518 12.2912C6.14714 12.2101 6.28907 12.17 6.43258 12.1761H7.90091H7.95096V10.7841C7.93828 10.6596 7.93828 10.5339 7.95096 10.4094C7.99116 10.2116 8.09899 10.0369 8.25332 9.91975C8.40766 9.80255 8.59736 9.75126 8.78523 9.77589C8.96894 9.79362 9.13988 9.88382 9.2648 10.029C9.38971 10.1741 9.45966 10.3638 9.46099 10.5611V12.2118Z" fill="#767B82"/>
</svg>
