<svg width="20" height="20" viewBox="0 0 20 20" fill="none" xmlns="http://www.w3.org/2000/svg">
<path fill-rule="evenodd" clip-rule="evenodd" d="M4.44431 1.68533C6.0888 0.586519 8.02218 0 10 0C12.6522 0 15.1957 1.0536 17.0711 2.92896C18.9464 4.80432 20 7.34783 20 10C20 11.9778 19.4135 13.9112 18.3147 15.5557C17.2159 17.2002 15.6541 18.4819 13.8268 19.2388C11.9996 19.9957 9.98889 20.1937 8.04908 19.8078C6.10928 19.422 4.32745 18.4696 2.92892 17.0711C1.5304 15.6725 0.577999 13.8907 0.192147 11.9509C-0.193705 10.0111 0.00434696 8.00043 0.761223 6.17317C1.5181 4.34591 2.79982 2.78415 4.44431 1.68533ZM5.24307 17.1463C6.6524 18.0827 8.30791 18.58 10 18.575C12.2633 18.5684 14.4316 17.6646 16.0296 16.0619C17.6276 14.4592 18.525 12.2883 18.525 10.025C18.525 8.33293 18.0229 6.67887 17.0823 5.27229C16.1417 3.86571 14.8049 2.76988 13.2412 2.12349C11.6774 1.4771 9.95698 1.30922 8.29776 1.64116C6.63855 1.97309 5.11514 2.78991 3.9204 3.98815C2.72566 5.18639 1.91334 6.7122 1.58627 8.37238C1.25919 10.0326 1.43205 11.7525 2.08301 13.3143C2.73398 14.8762 3.83375 16.2098 5.24307 17.1463ZM9.95075 11.9005C10.0746 11.9095 10.1989 11.8905 10.3143 11.8448C10.4297 11.7991 10.5333 11.7279 10.6174 11.6366C10.7015 11.5453 10.764 11.4362 10.8 11.3174C10.8361 11.1986 10.8449 11.0732 10.8258 10.9505V5.95053C10.8328 5.83921 10.8165 5.72764 10.7778 5.623C10.7392 5.51836 10.6791 5.42297 10.6014 5.34293C10.5237 5.26288 10.4302 5.19996 10.3267 5.15822C10.2233 5.11648 10.1122 5.09683 10.0008 5.10054C9.88908 5.10005 9.77853 5.12294 9.67624 5.16775C9.57395 5.21256 9.48217 5.27828 9.40681 5.3607C9.33145 5.44312 9.27418 5.54042 9.2387 5.64631C9.20321 5.7522 9.19031 5.86433 9.20078 5.97552V10.9755C9.18691 11.0859 9.19549 11.1979 9.22603 11.3049C9.25657 11.4119 9.30844 11.5115 9.3785 11.598C9.44856 11.6844 9.53536 11.7557 9.63371 11.8077C9.73205 11.8597 9.83989 11.8913 9.95075 11.9005ZM9.97511 12.8995C9.75656 12.8945 9.54147 12.9548 9.35732 13.0726C9.17317 13.1904 9.02828 13.3604 8.94118 13.5609C8.85407 13.7614 8.8287 13.9833 8.86828 14.1983C8.90786 14.4133 9.01059 14.6117 9.16338 14.768C9.31618 14.9244 9.51209 15.0316 9.72613 15.0761C9.94016 15.1206 10.1626 15.1004 10.3651 15.0179C10.5675 14.9354 10.7408 14.7945 10.8628 14.6131C10.9848 14.4317 11.05 14.2181 11.0501 13.9995C11.0534 13.8562 11.0281 13.7137 10.9756 13.5804C10.923 13.4471 10.8444 13.3256 10.7442 13.2231C10.6441 13.1206 10.5244 13.0392 10.3924 12.9836C10.2603 12.928 10.1184 12.8994 9.97511 12.8995Z" fill="#FF3737"/>
</svg>
