<svg width="20" height="18" viewBox="0 0 20 18" fill="none" xmlns="http://www.w3.org/2000/svg">
<path fill-rule="evenodd" clip-rule="evenodd" d="M12.9224 3.74847C12.1555 3.42541 11.3321 3.25765 10.4998 3.25492C8.93191 3.25699 7.42142 3.84527 6.2651 4.90419C5.10878 5.96312 4.39021 7.41615 4.25055 8.97784C4.23431 9.13044 4.1617 9.27148 4.04694 9.37337C3.93218 9.47525 3.78352 9.53063 3.63008 9.52868C3.54233 9.52844 3.4556 9.50993 3.37541 9.47433C3.29522 9.43873 3.22332 9.38681 3.1643 9.32188C3.10528 9.25696 3.06043 9.18045 3.0326 9.09724C3.00478 9.01403 2.9946 8.92593 3.0027 8.83856C3.12858 7.44877 3.63886 6.12145 4.47641 5.00525C5.31396 3.88906 6.4457 3.02805 7.74489 2.51867C9.04409 2.00928 10.4594 1.87162 11.8324 2.1211C13.2054 2.37058 14.4819 2.99736 15.5188 3.93123V2.62755C15.5188 2.46116 15.5849 2.30158 15.7026 2.18393C15.8202 2.06627 15.9798 2.00017 16.1462 2.00017C16.3126 2.00017 16.4722 2.06627 16.5898 2.18393C16.7075 2.30158 16.7736 2.46116 16.7736 2.62755V5.22676C16.7734 5.5357 16.6506 5.83194 16.4322 6.05039C16.2137 6.26884 15.9175 6.39163 15.6086 6.3918H13.0093C12.8429 6.3918 12.6834 6.3257 12.5657 6.20805C12.4481 6.09039 12.382 5.93082 12.382 5.76443C12.382 5.59803 12.4481 5.43846 12.5657 5.3208C12.6834 5.20315 12.8429 5.13705 13.0093 5.13705H14.968C14.3847 4.5435 13.6894 4.07154 12.9224 3.74847ZM16.9536 9.68397C17.0684 9.58209 17.217 9.52671 17.3705 9.52866C17.4582 9.5289 17.5443 9.54741 17.6245 9.58301C17.7047 9.61862 17.7766 9.67053 17.8356 9.73546C17.8947 9.80038 17.9395 9.87689 17.9673 9.9601C17.9951 10.0433 18.0053 10.1314 17.9972 10.2188C17.8713 11.6086 17.3611 12.9359 16.5235 14.0521C15.686 15.1683 14.5542 16.0293 13.255 16.5387C11.9558 17.0481 10.5405 17.1857 9.16749 16.9362C7.79448 16.6868 6.51804 16.06 5.48109 15.1261V16.4298C5.48109 16.5962 5.41499 16.7558 5.29734 16.8734C5.17968 16.9911 5.02011 17.0572 4.85372 17.0572C4.68733 17.0572 4.52775 16.9911 4.41009 16.8734C4.29244 16.7558 4.22634 16.5962 4.22634 16.4298V13.8306C4.22626 13.6776 4.25634 13.526 4.31486 13.3846C4.37338 13.2433 4.45919 13.1148 4.56739 13.0066C4.67559 12.8984 4.80405 12.8126 4.94544 12.7541C5.08683 12.6955 5.23836 12.6655 5.39138 12.6655H7.99059C8.15698 12.6655 8.31656 12.7316 8.43421 12.8493C8.55187 12.967 8.61797 13.1265 8.61797 13.2929C8.61797 13.4593 8.55187 13.6189 8.43421 13.7365C8.31656 13.8542 8.15698 13.9203 7.99059 13.9203H6.03193C6.87041 14.7767 7.93695 15.3746 9.10503 15.6431C10.2731 15.9116 11.4937 15.8394 12.622 15.4351C13.7503 15.0308 14.7389 14.3113 15.4706 13.3621C16.2023 12.4128 16.6463 11.2735 16.75 10.0795C16.7662 9.9269 16.8389 9.78586 16.9536 9.68397Z" fill="white"/>
<path d="M10.4998 3.25492L10.5002 3.15492L10.4997 3.15492L10.4998 3.25492ZM6.2651 4.90419L6.19757 4.83044L6.2651 4.90419ZM4.25055 8.97784L4.35 8.98842L4.35015 8.98675L4.25055 8.97784ZM3.63008 9.52868L3.63135 9.42868L3.63034 9.42868L3.63008 9.52868ZM3.37541 9.47433L3.41599 9.38293H3.41599L3.37541 9.47433ZM3.1643 9.32188L3.0903 9.38915H3.0903L3.1643 9.32188ZM3.0326 9.09724L2.93776 9.12895L2.93776 9.12895L3.0326 9.09724ZM3.0027 8.83856L3.10227 8.8478L3.10229 8.84758L3.0027 8.83856ZM4.47641 5.00525L4.5564 5.06527L4.47641 5.00525ZM7.74489 2.51867L7.70839 2.42557L7.74489 2.51867ZM15.5188 3.93123L15.4519 4.00554L15.6188 4.15587V3.93123H15.5188ZM15.7026 2.18393L15.6319 2.11322L15.6319 2.11322L15.7026 2.18393ZM16.5898 2.18393L16.6605 2.11322L16.6605 2.11322L16.5898 2.18393ZM16.7736 5.22676L16.8736 5.22682V5.22676H16.7736ZM16.4322 6.05039L16.5029 6.1211L16.4322 6.05039ZM15.6086 6.3918V6.4918H15.6086L15.6086 6.3918ZM12.5657 6.20805L12.495 6.27876H12.495L12.5657 6.20805ZM12.5657 5.3208L12.6364 5.39151H12.6364L12.5657 5.3208ZM14.968 5.13705V5.23705H15.2065L15.0393 5.06695L14.968 5.13705ZM17.3705 9.52866L17.3692 9.62866L17.3702 9.62866L17.3705 9.52866ZM16.9536 9.68397L16.8872 9.60919L16.9536 9.68397ZM17.8356 9.73546L17.7616 9.80272V9.80272L17.8356 9.73546ZM17.9673 9.9601L18.0622 9.92839L18.0622 9.92839L17.9673 9.9601ZM17.9972 10.2188L17.8977 10.2095L17.8976 10.2098L17.9972 10.2188ZM13.255 16.5387L13.2915 16.6318L13.255 16.5387ZM9.16749 16.9362L9.18536 16.8379H9.18536L9.16749 16.9362ZM5.48109 15.1261L5.54801 15.0518L5.38109 14.9015V15.1261H5.48109ZM5.29734 16.8734L5.22663 16.8027V16.8027L5.29734 16.8734ZM4.22634 13.8306H4.32634V13.8305L4.22634 13.8306ZM4.56739 13.0066L4.6381 13.0773V13.0773L4.56739 13.0066ZM4.94544 12.7541L4.9072 12.6617H4.9072L4.94544 12.7541ZM5.39138 12.6655L5.39132 12.7655H5.39138V12.6655ZM6.03193 13.9203V13.8203H5.79407L5.96047 13.9903L6.03193 13.9203ZM9.10503 15.6431L9.12743 15.5457L9.10503 15.6431ZM16.75 10.0795L16.6505 10.0689L16.6504 10.0708L16.75 10.0795ZM10.4995 3.35492C11.3185 3.35761 12.1288 3.5227 12.8836 3.84063L12.9612 3.65631C12.1821 3.32811 11.3456 3.1577 10.5002 3.15492L10.4995 3.35492ZM6.33264 4.97794C7.47055 3.93587 8.957 3.35696 10.5 3.35492L10.4997 3.15492C8.90682 3.15702 7.37229 3.75466 6.19757 4.83044L6.33264 4.97794ZM4.35015 8.98675C4.48759 7.44991 5.19472 6.02001 6.33264 4.97794L6.19757 4.83044C5.02284 5.90622 4.29283 7.38238 4.15095 8.96893L4.35015 8.98675ZM4.11333 9.44815C4.24672 9.32973 4.33111 9.16579 4.34999 8.98842L4.15111 8.96726C4.13751 9.09509 4.07669 9.21324 3.98055 9.29858L4.11333 9.44815ZM3.6288 9.62867C3.80716 9.63094 3.97994 9.56657 4.11333 9.44815L3.98055 9.29858C3.88442 9.38393 3.75989 9.43032 3.63135 9.42868L3.6288 9.62867ZM3.33483 9.56573C3.42772 9.60697 3.52818 9.6284 3.62981 9.62868L3.63034 9.42868C3.55649 9.42848 3.48349 9.4129 3.41599 9.38293L3.33483 9.56573ZM3.0903 9.38915C3.15867 9.46435 3.24195 9.52449 3.33483 9.56573L3.41599 9.38293C3.34849 9.35296 3.28797 9.30926 3.23829 9.25462L3.0903 9.38915ZM2.93776 9.12895C2.96999 9.22534 3.02194 9.31395 3.0903 9.38915L3.23829 9.25462C3.18861 9.19997 3.15086 9.13557 3.12744 9.06553L2.93776 9.12895ZM2.90313 8.82933C2.89374 8.93052 2.90554 9.03257 2.93776 9.12895L3.12744 9.06553C3.10402 8.99549 3.09545 8.92134 3.10227 8.8478L2.90313 8.82933ZM4.39643 4.94523C3.54773 6.07628 3.03066 7.42126 2.90311 8.82954L3.10229 8.84758C3.2265 7.47628 3.72999 6.16662 4.5564 5.06527L4.39643 4.94523ZM7.70839 2.42557C6.39191 2.94173 5.24512 3.81419 4.39643 4.94523L4.5564 5.06527C5.3828 3.96392 6.49949 3.11438 7.7814 2.61177L7.70839 2.42557ZM11.8503 2.02271C10.459 1.76991 9.02487 1.9094 7.70839 2.42557L7.7814 2.61177C9.06331 2.10915 10.4598 1.97332 11.8146 2.21949L11.8503 2.02271ZM15.5858 3.85693C14.535 2.91063 13.2416 2.27551 11.8503 2.02271L11.8146 2.21949C13.1693 2.46565 14.4288 3.08409 15.4519 4.00554L15.5858 3.85693ZM15.4188 2.62755V3.93123H15.6188V2.62755H15.4188ZM15.6319 2.11322C15.4955 2.24963 15.4188 2.43464 15.4188 2.62755H15.6188C15.6188 2.48768 15.6744 2.35354 15.7733 2.25464L15.6319 2.11322ZM16.1462 1.90017C15.9533 1.90017 15.7683 1.97681 15.6319 2.11322L15.7733 2.25464C15.8722 2.15574 16.0063 2.10017 16.1462 2.10017V1.90017ZM16.6605 2.11322C16.5241 1.97681 16.3391 1.90017 16.1462 1.90017V2.10017C16.2861 2.10017 16.4202 2.15574 16.5191 2.25464L16.6605 2.11322ZM16.8736 2.62755C16.8736 2.43464 16.797 2.24963 16.6605 2.11322L16.5191 2.25464C16.618 2.35354 16.6736 2.48768 16.6736 2.62755H16.8736ZM16.8736 5.22676V2.62755H16.6736V5.22676H16.8736ZM16.5029 6.1211C16.7401 5.88391 16.8734 5.56226 16.8736 5.22682L16.6736 5.22671C16.6734 5.50914 16.5612 5.77996 16.3615 5.97968L16.5029 6.1211ZM15.6086 6.4918C15.944 6.49162 16.2657 6.35829 16.5029 6.1211L16.3615 5.97968C16.1618 6.17939 15.8909 6.29165 15.6085 6.2918L15.6086 6.4918ZM13.0093 6.4918H15.6086V6.2918H13.0093V6.4918ZM12.495 6.27876C12.6314 6.41517 12.8164 6.4918 13.0093 6.4918V6.2918C12.8695 6.2918 12.7353 6.23624 12.6364 6.13734L12.495 6.27876ZM12.282 5.76443C12.282 5.95734 12.3586 6.14235 12.495 6.27876L12.6364 6.13734C12.5375 6.03843 12.482 5.90429 12.482 5.76443H12.282ZM12.495 5.25009C12.3586 5.3865 12.282 5.57151 12.282 5.76443H12.482C12.482 5.62456 12.5375 5.49042 12.6364 5.39151L12.495 5.25009ZM13.0093 5.03705C12.8164 5.03705 12.6314 5.11368 12.495 5.25009L12.6364 5.39151C12.7353 5.29261 12.8695 5.23705 13.0093 5.23705V5.03705ZM14.968 5.03705H13.0093V5.23705H14.968V5.03705ZM12.8836 3.84063C13.6384 4.15856 14.3226 4.62303 14.8967 5.20714L15.0393 5.06695C14.4467 4.46398 13.7404 3.98451 12.9612 3.65631L12.8836 3.84063ZM17.3718 9.42867C17.1934 9.4264 17.0206 9.49077 16.8872 9.60919L17.02 9.75876C17.1161 9.67341 17.2407 9.62702 17.3692 9.62866L17.3718 9.42867ZM17.6651 9.49161C17.5723 9.45042 17.4725 9.42894 17.3707 9.42867L17.3702 9.62866C17.444 9.62886 17.5163 9.6444 17.5839 9.67441L17.6651 9.49161ZM17.9096 9.66819C17.8413 9.59299 17.758 9.53285 17.6651 9.49161L17.5839 9.67441C17.6514 9.70438 17.712 9.74808 17.7616 9.80272L17.9096 9.66819ZM18.0622 9.92839C18.0299 9.83201 17.978 9.74339 17.9096 9.66819L17.7616 9.80272C17.8113 9.85737 17.8491 9.92177 17.8725 9.99181L18.0622 9.92839ZM18.0968 10.228C18.1062 10.1268 18.0944 10.0248 18.0622 9.92839L17.8725 9.99181C17.8959 10.0619 17.9045 10.136 17.8977 10.2095L18.0968 10.228ZM16.6035 14.1121C17.4522 12.9811 17.9693 11.6361 18.0968 10.2278L17.8976 10.2098C17.7734 11.5811 17.2699 12.8907 16.4435 13.9921L16.6035 14.1121ZM13.2915 16.6318C14.608 16.1156 15.7548 15.2432 16.6035 14.1121L16.4435 13.9921C15.6171 15.0934 14.5004 15.943 13.2185 16.4456L13.2915 16.6318ZM9.14961 17.0346C10.5409 17.2874 11.9751 17.1479 13.2915 16.6318L13.2185 16.4456C11.9366 16.9482 10.5401 17.084 9.18536 16.8379L9.14961 17.0346ZM5.41417 15.2004C6.46491 16.1467 7.75834 16.7818 9.14961 17.0346L9.18536 16.8379C7.83063 16.5917 6.57116 15.9733 5.54801 15.0518L5.41417 15.2004ZM5.58109 16.4298V15.1261H5.38109V16.4298H5.58109ZM5.36805 16.9441C5.50446 16.8077 5.58109 16.6227 5.58109 16.4298H5.38109C5.38109 16.5697 5.32553 16.7038 5.22663 16.8027L5.36805 16.9441ZM4.85372 17.1572C5.04663 17.1572 5.23164 17.0805 5.36805 16.9441L5.22663 16.8027C5.12772 16.9016 4.99359 16.9572 4.85372 16.9572V17.1572ZM4.33938 16.9441C4.47579 17.0805 4.6608 17.1572 4.85372 17.1572V16.9572C4.71385 16.9572 4.57971 16.9016 4.48081 16.8027L4.33938 16.9441ZM4.12634 16.4298C4.12634 16.6227 4.20297 16.8077 4.33938 16.9441L4.48081 16.8027C4.3819 16.7038 4.32634 16.5697 4.32634 16.4298H4.12634ZM4.12634 13.8306V16.4298H4.32634V13.8306H4.12634ZM4.22246 13.3464C4.15891 13.4999 4.12625 13.6645 4.12634 13.8306L4.32634 13.8305C4.32627 13.6906 4.35376 13.5521 4.40725 13.4229L4.22246 13.3464ZM4.49668 12.9359C4.37919 13.0534 4.286 13.1929 4.22246 13.3464L4.40725 13.4229C4.46075 13.2936 4.53919 13.1762 4.6381 13.0773L4.49668 12.9359ZM4.9072 12.6617C4.75367 12.7252 4.61417 12.8184 4.49668 12.9359L4.6381 13.0773C4.73701 12.9784 4.85444 12.8999 4.98368 12.8465L4.9072 12.6617ZM5.39143 12.5655C5.22527 12.5655 5.06072 12.5981 4.9072 12.6617L4.98368 12.8465C5.11293 12.793 5.25145 12.7655 5.39132 12.7655L5.39143 12.5655ZM7.99059 12.5655H5.39138V12.7655H7.99059V12.5655ZM8.50492 12.7786C8.36851 12.6422 8.1835 12.5655 7.99059 12.5655V12.7655C8.13046 12.7655 8.2646 12.8211 8.3635 12.92L8.50492 12.7786ZM8.71797 13.2929C8.71797 13.1 8.64133 12.915 8.50492 12.7786L8.3635 12.92C8.4624 13.0189 8.51797 13.153 8.51797 13.2929H8.71797ZM8.50492 13.8072C8.64133 13.6708 8.71797 13.4858 8.71797 13.2929H8.51797C8.51797 13.4328 8.4624 13.5669 8.3635 13.6658L8.50492 13.8072ZM7.99059 14.0203C8.1835 14.0203 8.36851 13.9437 8.50492 13.8072L8.3635 13.6658C8.2646 13.7647 8.13046 13.8203 7.99059 13.8203V14.0203ZM6.03193 14.0203H7.99059V13.8203H6.03193V14.0203ZM9.12743 15.5457C7.978 15.2815 6.92848 14.6931 6.10338 13.8503L5.96047 13.9903C6.81234 14.8603 7.89591 15.4678 9.08263 15.7406L9.12743 15.5457ZM12.5882 15.341C11.478 15.7388 10.2769 15.8099 9.12743 15.5457L9.08263 15.7406C10.2693 16.0134 11.5094 15.94 12.6557 15.5293L12.5882 15.341ZM15.3914 13.301C14.6714 14.2351 13.6985 14.9431 12.5882 15.341L12.6557 15.5293C13.802 15.1185 14.8064 14.3875 15.5498 13.4231L15.3914 13.301ZM16.6504 10.0708C16.5483 11.2458 16.1114 12.3669 15.3914 13.301L15.5498 13.4231C16.2931 12.4587 16.7443 11.3013 16.8496 10.0882L16.6504 10.0708ZM16.8872 9.60919C16.7538 9.72761 16.6694 9.89155 16.6506 10.0689L16.8494 10.0901C16.863 9.96225 16.9239 9.8441 17.02 9.75876L16.8872 9.60919Z" fill="white"/>
</svg>
