<svg width="22" height="20" viewBox="0 0 22 20" fill="none" xmlns="http://www.w3.org/2000/svg">
<path d="M19.9293 7.67649C19.5576 7.21803 19.098 6.85049 18.5817 6.59883C18.0654 6.34717 17.5046 6.21728 16.9372 6.21799H13.5562C13.5158 6.21781 13.476 6.20826 13.4394 6.18998C13.4029 6.1717 13.3705 6.14515 13.3444 6.11215C13.3175 6.07873 13.2979 6.03925 13.2871 5.99664C13.2764 5.95403 13.2747 5.90938 13.2823 5.86599L13.5665 4.01979C13.6517 3.43984 13.5403 2.84643 13.2523 2.34663C12.9644 1.84682 12.5189 1.47352 11.9963 1.29408C11.4737 1.11464 10.9083 1.14087 10.4022 1.36805C9.89603 1.59523 9.48247 2.00839 9.2361 2.53299L7.61347 6.05184C7.59028 6.10152 7.55467 6.14335 7.51058 6.17268C7.4665 6.20201 7.41567 6.2177 7.36375 6.21799H5.06216C4.01226 6.22124 3.00622 6.66875 2.26383 7.46275C1.52143 8.25676 1.10301 9.33273 1.09998 10.4556V14.9911C1.10301 16.114 1.52143 17.19 2.26383 17.984C3.00622 18.778 4.01226 19.2255 5.06216 19.2287H16.34C17.2939 19.2246 18.2148 18.8543 18.935 18.1853C19.6552 17.5162 20.1269 16.5928 20.2642 15.5831L20.8614 11.0489C20.9404 10.4478 20.8977 9.83556 20.7361 9.2537C20.5744 8.67184 20.2977 8.13394 19.9247 7.67649H19.9293ZM7.04038 17.7124C7.04038 17.7515 7.03317 17.7902 7.01918 17.8264C7.00518 17.8625 6.98467 17.8954 6.95881 17.923C6.93295 17.9507 6.90225 17.9726 6.86846 17.9876C6.83467 18.0026 6.79846 18.0103 6.76189 18.0103H5.06562C4.31722 18.0093 3.59973 17.6909 3.07053 17.1249C2.54133 16.5589 2.24363 15.7915 2.24272 14.9911V10.4556C2.24333 9.6551 2.54093 8.88755 3.0702 8.32149C3.59946 7.75543 4.31712 7.43714 5.06562 7.43648H6.76189C6.83575 7.43648 6.90658 7.46787 6.95881 7.52372C7.01104 7.57958 7.04038 7.65534 7.04038 7.73434V17.7124ZM19.7348 10.8766L19.1329 15.4133C19.0359 16.1315 18.7011 16.7887 18.1894 17.2653C17.6777 17.7419 17.0231 18.0062 16.3446 18.0103H8.45816C8.3843 18.0103 8.31346 17.9789 8.26124 17.923C8.20901 17.8672 8.17967 17.7914 8.17967 17.7124V7.49679C8.17957 7.45412 8.18805 7.41193 8.20453 7.37307C8.22101 7.33421 8.2451 7.29959 8.27518 7.27155C8.32813 7.22227 8.37221 7.16304 8.40522 7.09678L10.2603 3.07701L10.2661 3.06469C10.3572 2.88931 10.4859 2.73952 10.6416 2.6276C10.7974 2.51567 10.9757 2.4448 11.1619 2.42078C11.3482 2.39676 11.5371 2.42029 11.7133 2.48942C11.8894 2.55856 12.0477 2.67134 12.1752 2.81853C12.1758 2.82138 12.1758 2.82431 12.1752 2.82715C12.2856 2.96365 12.3663 3.12465 12.4115 3.29854C12.4567 3.47243 12.4652 3.65487 12.4365 3.83271L11.998 6.73001C11.9753 6.88941 12.0121 7.05196 12.1003 7.18269C12.1885 7.31343 12.3212 7.40191 12.4698 7.4291C12.4999 7.43401 12.5303 7.43648 12.5607 7.43648H16.9464C17.3508 7.43654 17.7505 7.52954 18.1184 7.70918C18.4863 7.88881 18.8138 8.1509 19.0788 8.47768C19.3437 8.80447 19.5399 9.18832 19.6541 9.60325C19.7683 10.0182 19.7978 10.4545 19.7406 10.8827L19.7348 10.8766Z" fill="#767B82" stroke="#767B82" stroke-width="0.2"/>
</svg>
