<svg width="22" height="20" viewBox="0 0 22 20" fill="none" xmlns="http://www.w3.org/2000/svg">
<path d="M19.9293 12.7288C19.5576 13.1872 19.098 13.5548 18.5817 13.8064C18.0654 14.0581 17.5046 14.188 16.9372 14.1873H13.5562C13.5158 14.1875 13.476 14.197 13.4394 14.2153C13.4029 14.2336 13.3704 14.2601 13.3444 14.2931C13.3175 14.3265 13.2979 14.366 13.2871 14.4086C13.2764 14.4512 13.2747 14.4959 13.2823 14.5393L13.5665 16.3855C13.6517 16.9654 13.5403 17.5588 13.2523 18.0586C12.9644 18.5585 12.5189 18.9318 11.9963 19.1112C11.4737 19.2906 10.9083 19.2644 10.4022 19.0372C9.89603 18.81 9.48247 18.3969 9.2361 17.8723L7.61347 14.3534C7.59028 14.3038 7.55467 14.2619 7.51058 14.2326C7.4665 14.2033 7.41567 14.1876 7.36375 14.1873H5.06216C4.01226 14.184 3.00622 13.7365 2.26383 12.9425C1.52143 12.1485 1.10301 11.0725 1.09998 9.94965V5.41416C1.10301 4.29127 1.52143 3.2153 2.26383 2.42129C3.00622 1.62729 4.01226 1.17978 5.06216 1.17653H16.34C17.2939 1.18065 18.2148 1.55094 18.935 2.22002C19.6552 2.8891 20.1269 3.81248 20.2642 4.82215L20.8614 9.35641C20.9404 9.95749 20.8977 10.5697 20.7361 11.1516C20.5744 11.7334 20.2977 12.2713 19.9247 12.7288H19.9293ZM7.04038 2.69287C7.04038 2.65376 7.03317 2.61503 7.01918 2.57889C7.00518 2.54275 6.98467 2.50992 6.95881 2.48226C6.93295 2.4546 6.90225 2.43266 6.86846 2.41769C6.83467 2.40273 6.79846 2.39502 6.76189 2.39502H5.06562C4.31722 2.396 3.59973 2.7144 3.07053 3.28039C2.54133 3.84637 2.24363 4.61373 2.24272 5.41416V9.94965C2.24333 10.7502 2.54093 11.5177 3.0702 12.0838C3.59946 12.6498 4.31712 12.9681 5.06562 12.9688H6.76189C6.83575 12.9688 6.90658 12.9374 6.95881 12.8816C7.01104 12.8257 7.04038 12.7499 7.04038 12.6709V2.69287ZM19.7348 9.52871L19.1329 4.992C19.0359 4.27375 18.7011 3.61658 18.1894 3.13999C17.6777 2.66341 17.0231 2.39907 16.3446 2.39502H8.45816C8.3843 2.39502 8.31346 2.4264 8.26123 2.48226C8.20901 2.53812 8.17967 2.61388 8.17967 2.69287V12.9085C8.17957 12.9512 8.18805 12.9933 8.20453 13.0322C8.22101 13.0711 8.2451 13.1057 8.27518 13.1337C8.32813 13.183 8.37221 13.2422 8.40522 13.3085L10.2603 17.3283L10.2661 17.3406C10.3572 17.516 10.4859 17.6658 10.6416 17.7777C10.7974 17.8896 10.9757 17.9605 11.1619 17.9845C11.3482 18.0085 11.5371 17.985 11.7133 17.9158C11.8894 17.8467 12.0477 17.7339 12.1752 17.5867C12.1758 17.5839 12.1758 17.581 12.1752 17.5781C12.2856 17.4416 12.3663 17.2806 12.4115 17.1067C12.4567 16.9328 12.4652 16.7504 12.4365 16.5726L11.998 13.6753C11.9753 13.5159 12.0121 13.3533 12.1003 13.2226C12.1885 13.0918 12.3212 13.0034 12.4698 12.9762C12.4999 12.9713 12.5303 12.9688 12.5607 12.9688H16.9464C17.3508 12.9687 17.7505 12.8757 18.1184 12.6961C18.4863 12.5165 18.8138 12.2544 19.0788 11.9276C19.3437 11.6008 19.5399 11.217 19.6541 10.802C19.7683 10.3871 19.7978 9.95074 19.7406 9.52256L19.7348 9.52871Z" fill="#767B82" stroke="#767B82" stroke-width="0.2"/>
</svg>
