<svg width="22" height="22" viewBox="0 0 22 22" fill="none" xmlns="http://www.w3.org/2000/svg">
<path fill-rule="evenodd" clip-rule="evenodd" d="M17.8288 1.63839H18.5629C18.6665 1.63595 18.7695 1.656 18.8657 1.69729C18.9619 1.73857 19.0492 1.80026 19.1225 1.87864C19.1958 1.95701 19.2535 2.05044 19.2921 2.15331C19.3307 2.25617 19.3494 2.36631 19.3472 2.47712V3.26232C19.336 3.3755 19.3472 3.48992 19.3801 3.59815C19.413 3.70638 19.4667 3.80602 19.5379 3.8906C19.6091 3.97517 19.6961 4.04279 19.7933 4.08908C19.8905 4.13537 19.9958 4.1593 20.1022 4.1593C20.2086 4.1593 20.3138 4.13537 20.411 4.08908C20.5082 4.04279 20.5952 3.97517 20.6664 3.8906C20.7376 3.80602 20.7913 3.70638 20.8242 3.59815C20.8571 3.48992 20.8683 3.3755 20.8572 3.26232V2.78049V2.45036C20.8653 1.90817 20.7003 1.37924 20.3893 0.950944C20.0784 0.522649 19.6401 0.220631 19.1469 0.0947831C18.7033 0.0154087 18.2532 -0.0144992 17.8037 0.00555084C17.7045 0.00311023 17.6059 0.0222062 17.5137 0.0616988C17.4216 0.101191 17.3379 0.160255 17.2677 0.235316C17.1976 0.310377 17.1423 0.399878 17.1054 0.498411C17.0685 0.596944 17.0506 0.702462 17.0529 0.808586C17.0494 0.918565 17.0671 1.02813 17.1048 1.1305C17.1426 1.23286 17.1996 1.32586 17.2724 1.40367C17.3451 1.48148 17.4321 1.54246 17.5278 1.58284C17.6235 1.62322 17.7259 1.64212 17.8288 1.63839ZM20.8739 12.988C20.8542 12.7885 20.7662 12.6038 20.6268 12.4696C20.4874 12.3354 20.3064 12.2611 20.1188 12.2611C19.9313 12.2611 19.7503 12.3354 19.6109 12.4696C19.4715 12.6038 19.3835 12.7885 19.3638 12.988V13.8C19.3662 13.9104 19.3474 14.0202 19.3087 14.1226C19.27 14.225 19.2122 14.3179 19.1388 14.3955C19.0654 14.4732 18.9779 14.534 18.8818 14.5743C18.7856 14.6146 18.6828 14.6335 18.5796 14.6298H17.8204C17.6339 14.6508 17.4612 14.745 17.3357 14.8941C17.2102 15.0432 17.1407 15.2367 17.1407 15.4373C17.1407 15.638 17.2102 15.8315 17.3357 15.9806C17.4612 16.1297 17.6339 16.2238 17.8204 16.2448H18.5546C19.0976 16.272 19.6314 16.0882 20.0577 15.7275C20.4839 15.3667 20.7738 14.8533 20.8739 14.2818C20.9087 13.8514 20.9087 13.4185 20.8739 12.988ZM5.88746 3.85432C5.74509 3.70205 5.6651 3.49553 5.6651 3.28018V2.68235C5.62853 2.29809 5.67922 1.91008 5.81284 1.55125C5.94646 1.19242 6.15908 0.873372 6.43264 0.621213C6.83674 0.222023 7.36755 0.0019501 7.91764 0.00554566H8.75191C8.95326 0.00554566 9.14636 0.0910985 9.28873 0.243371C9.43111 0.395644 9.5111 0.602167 9.5111 0.817513C9.5111 1.03286 9.43111 1.23938 9.28873 1.39165C9.14636 1.54393 8.95326 1.62948 8.75191 1.62948H8.01775C7.90595 1.62008 7.79358 1.6367 7.68837 1.67822C7.58317 1.71974 7.48763 1.78517 7.40834 1.86997C7.32904 1.95478 7.26789 2.05696 7.22907 2.16947C7.19026 2.28199 7.17469 2.40218 7.18348 2.52175V3.28018C7.18348 3.49553 7.10348 3.70205 6.96111 3.85432C6.81873 4.00659 6.62564 4.09212 6.42429 4.09212C6.22294 4.09212 6.02984 4.00659 5.88746 3.85432ZM11.772 1.63839H14.7837C14.8834 1.63839 14.9821 1.61741 15.0742 1.57661C15.1663 1.5358 15.25 1.47599 15.3205 1.4006C15.391 1.3252 15.4469 1.23569 15.4851 1.13717C15.5232 1.03866 15.5429 0.933082 15.5429 0.826454C15.5429 0.719825 15.5232 0.614219 15.4851 0.515707C15.4469 0.417195 15.391 0.327683 15.3205 0.252285C15.25 0.176887 15.1663 0.117104 15.0742 0.0762986C14.9821 0.0354936 14.8834 0.0144868 14.7837 0.0144868H11.772C11.6723 0.0144868 11.5735 0.0354936 11.4814 0.0762986C11.3893 0.117104 11.3056 0.176887 11.2351 0.252285C11.1646 0.327683 11.1087 0.417195 11.0706 0.515707C11.0324 0.614219 11.0128 0.719825 11.0128 0.826454C11.0128 0.933082 11.0324 1.03866 11.0706 1.13717C11.1087 1.23569 11.1646 1.3252 11.2351 1.4006C11.3056 1.47599 11.3893 1.5358 11.4814 1.57661C11.5735 1.61741 11.6723 1.63839 11.772 1.63839ZM19.8132 5.76685C19.9087 5.72474 20.0114 5.70442 20.1147 5.70716C20.2169 5.70699 20.3181 5.72912 20.412 5.77224C20.5059 5.81536 20.5906 5.87853 20.6609 5.95789C20.7312 6.03725 20.7856 6.13115 20.8208 6.23379C20.856 6.33642 20.8712 6.44565 20.8655 6.5548V8.15197V9.74913C20.8766 9.86231 20.8654 9.9767 20.8326 10.0849C20.7997 10.1932 20.7459 10.2928 20.6747 10.3774C20.6035 10.462 20.5165 10.5296 20.4193 10.5759C20.3221 10.6222 20.2169 10.6461 20.1105 10.6461C20.0041 10.6461 19.8989 10.6222 19.8017 10.5759C19.7045 10.5296 19.6175 10.462 19.5463 10.3774C19.4751 10.2928 19.4213 10.1932 19.3884 10.0849C19.3556 9.9767 19.3443 9.86231 19.3555 9.74913V6.5548C19.3485 6.44458 19.3631 6.33401 19.3983 6.23016C19.4335 6.12632 19.4886 6.03149 19.5601 5.95171C19.6315 5.87193 19.7177 5.80896 19.8132 5.76685Z" fill="#767B82"/>
<path fill-rule="evenodd" clip-rule="evenodd" d="M3.47156 4.89507H13.9416C14.2573 4.87976 14.5725 4.93511 14.867 5.05761C15.1615 5.1801 15.4288 5.36703 15.6519 5.60642C15.8749 5.84581 16.0487 6.1324 16.1622 6.4478C16.2757 6.7632 16.3264 7.10046 16.311 7.43801V18.6628C16.3191 18.9936 16.2639 19.3227 16.1488 19.6298C16.0336 19.9369 15.8609 20.2157 15.6414 20.4488C15.4218 20.682 15.16 20.8646 14.872 20.9856C14.584 21.1066 14.2759 21.1633 13.9667 21.1522H3.4465C3.13509 21.1635 2.82488 21.106 2.53514 20.9834C2.2454 20.8608 1.98236 20.6757 1.76243 20.4397C1.5425 20.2036 1.37036 19.9217 1.25677 19.6113C1.14319 19.301 1.09057 18.969 1.10221 18.636V7.41125C1.09035 7.07589 1.14366 6.74157 1.25876 6.42936C1.37386 6.11716 1.54825 5.83387 1.77091 5.59741C1.99357 5.36095 2.25966 5.17645 2.55238 5.05556C2.84509 4.93467 3.15809 4.88003 3.47156 4.89507ZM9.46182 12.2117H10.9301C11.1315 12.2117 11.3246 12.2972 11.467 12.4495C11.6093 12.6018 11.6893 12.8083 11.6893 13.0237C11.6893 13.239 11.6093 13.4455 11.467 13.5978C11.3246 13.7501 11.1315 13.8356 10.9301 13.8356H9.45347V15.4417C9.45713 15.5599 9.43577 15.6775 9.39099 15.7857C9.34621 15.8938 9.27916 15.9897 9.19485 16.0663C9.08995 16.164 8.96078 16.2269 8.82303 16.2475C8.68528 16.2681 8.5449 16.2455 8.41898 16.1823C8.2799 16.1297 8.15987 16.0316 8.07598 15.9018C7.9921 15.7721 7.94864 15.6173 7.95179 15.4596V13.7999H6.40839C6.28147 13.7959 6.15754 13.7578 6.04792 13.6893C5.93831 13.6208 5.8465 13.5239 5.78093 13.4077C5.71536 13.2914 5.67812 13.1593 5.67259 13.0237C5.66707 12.888 5.69344 12.753 5.74931 12.6311C5.80765 12.4907 5.90404 12.3723 6.026 12.2911C6.14797 12.21 6.2899 12.1699 6.43341 12.176H7.90174H7.95179V10.7841C7.93911 10.6595 7.93911 10.5339 7.95179 10.4093C7.99198 10.2115 8.09982 10.0369 8.25415 9.91967C8.40849 9.80247 8.59819 9.75118 8.78606 9.77581C8.96977 9.79354 9.14071 9.88374 9.26562 10.0289C9.39054 10.174 9.46049 10.3637 9.46182 10.561V12.2117Z" fill="#767B82"/>
</svg>
