<svg width="22" height="20" viewBox="0 0 22 20" fill="none" xmlns="http://www.w3.org/2000/svg">
<path fill-rule="evenodd" clip-rule="evenodd" d="M19.7084 7.4191L19.9247 7.68463C20.2978 8.14146 20.5746 8.67871 20.7362 9.25991C20.8978 9.84111 20.9405 10.4527 20.8613 11.053L20.2641 15.582C20.1268 16.5904 19.6552 17.5127 18.9351 18.181C18.215 18.8493 17.2942 19.2192 16.3404 19.2233H7.57127V6.12459C7.58665 6.10476 7.60014 6.08336 7.61155 6.06067L9.23396 2.54719C9.77362 1.37808 10.3271 0.838398 11.6262 1.39898C11.6994 1.43224 11.7701 1.47127 11.8379 1.51577C12.2306 1.77405 12.5427 2.15108 12.7347 2.59908C12.9266 3.04708 12.9897 3.54587 12.916 4.03225L12.6307 5.87627C12.6237 5.9197 12.6257 5.96425 12.6367 6.00674C12.6476 6.04924 12.6672 6.08864 12.694 6.12214C12.72 6.15494 12.7525 6.18127 12.7891 6.19932C12.8256 6.21736 12.8654 6.22668 12.9057 6.22663H17.2598C17.724 6.22677 18.1828 6.33329 18.6052 6.539C19.0276 6.74471 19.4038 7.04483 19.7084 7.4191ZM2.26361 7.47077C3.00589 6.6775 4.01179 6.23024 5.06167 6.22668H5.16871C5.25416 6.22668 5.3361 6.26295 5.39652 6.3275C5.45694 6.39205 5.49089 6.4796 5.49089 6.57089V18.8791C5.49089 18.9704 5.45694 19.058 5.39652 19.1225C5.3361 19.1871 5.25416 19.2233 5.16871 19.2233H5.06167C4.0119 19.2201 3.00599 18.7731 2.26368 17.98C1.52138 17.187 1.10301 16.1123 1.09998 14.9907V10.4605C1.10301 9.33886 1.52134 8.26403 2.26361 7.47077Z" fill="#767B82"/>
</svg>
