<svg width="46" height="46" viewBox="0 0 46 46" fill="none" xmlns="http://www.w3.org/2000/svg">
<g clip-path="url(#clip0_5355_21652)">
<g clip-path="url(#clip1_5355_21652)">
<path d="M25.9109 35.4278C34.3875 35.4278 41.2591 28.5562 41.2591 20.0796C41.2591 11.6031 34.3875 4.73145 25.9109 4.73145C17.4344 4.73145 10.5627 11.6031 10.5627 20.0796C10.5627 28.5562 17.4344 35.4278 25.9109 35.4278Z" fill="#FFF5F5"/>
<path d="M25.9108 31.9539C32.4688 31.9539 37.7852 26.6375 37.7852 20.0795C37.7852 13.5214 32.4688 8.20508 25.9108 8.20508C19.3527 8.20508 14.0364 13.5214 14.0364 20.0795C14.0364 26.6375 19.3527 31.9539 25.9108 31.9539Z" fill="#D194DF"/>
<path d="M15.0565 30.9341C14.2001 30.0777 13.4688 29.1539 12.8625 28.1724L5.75138 35.2835C4.38496 36.65 4.38496 38.8728 5.75138 40.2488C7.1178 41.6153 9.34064 41.6153 10.7167 40.2488L17.8279 33.1377C16.8463 32.5314 15.9129 31.8001 15.0661 30.9437L15.0565 30.9341Z" fill="#FF7E99"/>
<path d="M37.285 8.71512C34.2538 5.67435 30.2123 4 25.9206 4C21.6289 4 17.5873 5.67435 14.5466 8.71512C11.5058 11.7559 9.83145 15.7878 9.83145 20.0891C9.83145 22.9278 10.5628 25.6607 11.9388 28.0663L5.23181 34.7734C3.5767 36.4285 3.5767 39.1132 5.23181 40.7683C6.05936 41.5958 7.14672 42.0096 8.23408 42.0096C9.32145 42.0096 10.4088 41.5958 11.2364 40.7683L17.9434 34.0613C20.3491 35.4373 23.0723 36.1686 25.9206 36.1686C30.2123 36.1686 34.2538 34.4943 37.2946 31.4535C40.3354 28.4128 42.0097 24.3809 42.0097 20.0795C42.0097 15.7782 40.3354 11.7463 37.3042 8.70549L37.285 8.71512ZM10.2067 39.729C9.11937 40.8164 7.35842 40.8164 6.28068 39.729C5.19331 38.6417 5.19331 36.8807 6.28068 35.803L10.1105 31.9732L14.0269 35.8126C14.1713 35.957 14.3541 36.0243 14.5466 36.0243C14.739 36.0243 14.9219 35.957 15.0662 35.8126C15.3549 35.5239 15.3549 35.062 15.0662 34.783L11.1498 30.9435L12.7664 29.3269C13.0262 29.6926 13.3052 30.0582 13.6035 30.4047C13.6132 30.4239 13.6324 30.4335 13.642 30.4528C13.6998 30.5201 13.7575 30.5875 13.8249 30.6645C13.8537 30.6933 13.8826 30.7222 13.9018 30.7511C13.95 30.8088 14.0077 30.8665 14.0558 30.9243C14.0943 30.9724 14.1424 31.0109 14.1809 31.059C14.2194 31.1071 14.2675 31.1456 14.306 31.1937C14.383 31.2707 14.46 31.3573 14.5369 31.4343C14.5369 31.4343 14.5562 31.4535 14.5658 31.4632C14.5658 31.4632 14.5851 31.4824 14.5947 31.492C14.6717 31.569 14.7486 31.646 14.8352 31.723C14.8834 31.7615 14.9219 31.8096 14.97 31.8481C15.0181 31.8866 15.0566 31.9347 15.1047 31.9732C15.1624 32.0213 15.2202 32.079 15.2779 32.1271C15.3068 32.156 15.3356 32.1849 15.3645 32.2041C15.4319 32.2618 15.4992 32.3196 15.5762 32.3869C15.5954 32.3966 15.6051 32.4158 15.6243 32.4254C15.9707 32.7237 16.3364 32.9932 16.7021 33.2626L10.226 39.7387L10.2067 39.729ZM36.2554 30.4239C33.4936 33.1856 29.8178 34.706 25.9206 34.706C23.1685 34.706 20.5223 33.9458 18.2417 32.5313C18.2417 32.5313 18.2321 32.5216 18.2224 32.512C17.6355 32.1464 17.0773 31.7422 16.5481 31.2996C16.5288 31.2899 16.5192 31.2707 16.5 31.2611C16.4134 31.1937 16.3364 31.1167 16.2498 31.0398C16.2305 31.0205 16.2017 31.0013 16.1824 30.9724C16.1054 30.905 16.0285 30.8377 15.9611 30.7607C15.9322 30.7415 15.913 30.7126 15.8841 30.6933C15.7975 30.6067 15.7013 30.5201 15.6147 30.4335C15.6147 30.4335 15.6051 30.4239 15.5954 30.4143C15.5954 30.4143 15.5858 30.4047 15.5762 30.395C15.4896 30.3084 15.403 30.2122 15.3164 30.1256C15.2971 30.0967 15.2683 30.0775 15.249 30.0486C15.1817 29.9716 15.1143 29.8947 15.0373 29.8273C15.0181 29.8081 14.9988 29.7792 14.9796 29.7599C14.9026 29.6733 14.8352 29.5964 14.7583 29.5097C14.7486 29.4905 14.7294 29.4809 14.7198 29.4616C14.2771 28.9324 13.8634 28.3646 13.5073 27.7873C13.5073 27.7873 13.4977 27.7777 13.4881 27.768C12.0735 25.4778 11.3133 22.8412 11.3133 20.0891C11.3133 16.1823 12.8337 12.5161 15.5954 9.75437C18.3572 6.99266 22.0138 5.46265 25.9206 5.46265C29.8274 5.46265 33.4936 6.98303 36.2554 9.74475C39.0171 12.5065 40.5374 16.1823 40.5374 20.0795C40.5374 23.9767 39.0171 27.6526 36.2554 30.4143V30.4239Z" fill="black"/>
<path d="M34.831 11.1687C32.4542 8.79194 29.2884 7.47363 25.9204 7.47363C22.5525 7.47363 19.3866 8.78232 17.0098 11.1687C14.633 13.5552 13.3147 16.7114 13.3147 20.0794C13.3147 23.4473 14.6234 26.6132 17.0098 28.99C19.3962 31.3668 22.5525 32.6851 25.9204 32.6851C29.2884 32.6851 32.4542 31.3764 34.831 28.99C37.2078 26.6035 38.5261 23.4473 38.5261 20.0794C38.5261 16.7114 37.2175 13.5455 34.831 11.1687ZM33.8014 27.9603C31.694 30.0677 28.9035 31.2224 25.9204 31.2224C22.9374 31.2224 20.1468 30.0677 18.0394 27.9603C15.9321 25.853 14.7773 23.0624 14.7773 20.0794C14.7773 17.0963 15.9321 14.3057 18.0394 12.1984C20.1468 10.091 22.9374 8.93628 25.9204 8.93628C28.9035 8.93628 31.694 10.091 33.8014 12.1984C35.9088 14.3057 37.0635 17.0963 37.0635 20.0794C37.0635 23.0624 35.9088 25.853 33.8014 27.9603Z" fill="black"/>
<path d="M27.9124 22.033L27.2003 26.5075C27.1233 26.9694 26.5075 27.0753 26.2861 26.6615L24.1595 22.6585L19.6754 23.3513C19.2135 23.4187 18.9248 22.8605 19.252 22.5237L22.4178 19.3001L20.3489 15.249C20.1372 14.8352 20.5799 14.3829 20.9937 14.585L25.0833 16.5865L28.2492 13.3629C28.5763 13.0261 29.1441 13.3052 29.0767 13.7671L28.4609 18.2609L32.5024 20.3201C32.9162 20.5318 32.8296 21.1573 32.3677 21.2343L27.9027 22.0234L27.9124 22.033Z" fill="#FFCE62"/>
<path d="M26.7193 27.672C26.267 27.672 25.8628 27.4314 25.6415 27.0176L23.7555 23.4765L19.7909 24.0923C19.2617 24.1693 18.7517 23.9095 18.5111 23.438C18.2705 22.9665 18.3571 22.3987 18.7324 22.0138L21.523 19.1655L19.6947 15.5859C19.4541 15.1144 19.5407 14.5466 19.916 14.1617C20.2913 13.7864 20.859 13.6902 21.3306 13.9211L24.9391 15.6821L27.7296 12.8338C28.1049 12.4585 28.6727 12.3623 29.1442 12.5932C29.6253 12.8242 29.8947 13.3342 29.8178 13.8634L29.2789 17.8376L32.8489 19.6563C33.33 19.8968 33.5899 20.3972 33.5033 20.9361C33.4263 21.4653 33.0317 21.8695 32.5025 21.9657L28.5572 22.6682L27.9317 26.6231C27.8451 27.1523 27.4506 27.5565 26.9213 27.6431C26.854 27.6527 26.777 27.6623 26.7096 27.6623L26.7193 27.672ZM24.1692 21.9272C24.4387 21.9272 24.6985 22.0716 24.8236 22.3218L26.5942 25.6512L27.1812 21.9272C27.2293 21.6193 27.4698 21.3691 27.7874 21.3114L31.5017 20.657L28.1434 18.9442C27.8644 18.7999 27.7008 18.4919 27.7489 18.184L28.2589 14.4504L25.6319 17.1255C25.4106 17.3564 25.0642 17.4142 24.7755 17.2698L21.369 15.6051L23.0915 18.9731C23.2358 19.2617 23.1877 19.5985 22.9568 19.8295L20.3298 22.5046L24.0538 21.9272C24.0538 21.9272 24.1308 21.9272 24.1692 21.9272Z" fill="black"/>
</g>
</g>
<defs>
<clipPath id="clip0_5355_21652">
<rect width="46" height="46" fill="white"/>
</clipPath>
<clipPath id="clip1_5355_21652">
<rect width="38" height="38" fill="white" transform="translate(4 4)"/>
</clipPath>
</defs>
</svg>
