<svg width="46" height="46" viewBox="0 0 46 46" fill="none" xmlns="http://www.w3.org/2000/svg">
<g clip-path="url(#clip0_5355_21620)">
<g clip-path="url(#clip1_5355_21620)">
<path d="M40.6066 11.3511C39.7335 10.478 38.3313 10.478 37.4583 11.3511C36.3295 12.4799 35.6328 13.0355 35.5446 13.1237L4.74072 13.1942V35.4615H17.6249C19.6444 35.4615 21.5757 36.2641 23.0044 37.6839C24.433 36.2552 26.3643 35.4615 28.3838 35.4615H41.268V12.9208C41.268 12.3476 41.0475 11.7832 40.6154 11.3511" fill="#FF7B79"/>
<path d="M27.3874 10.2399C24.8564 10.6632 22.9957 12.8591 22.9957 15.4253C22.9957 12.8591 21.1349 10.6632 18.6039 10.2399L9.19434 8.74072V31.0081L18.6039 32.4984C21.1349 32.9217 22.9957 35.1176 22.9957 37.6839C22.9957 35.1176 24.8564 32.9217 27.3874 32.4984L36.797 31.0081V8.74072L27.3874 10.2311V10.2399Z" fill="#FFF5F5"/>
<path d="M39.0281 16.078C39.0281 16.078 32.6874 22.4187 32.6786 22.4275L29.5303 19.2792L35.8798 12.9297L39.0281 16.078Z" fill="#91DEF5"/>
<path d="M32.6786 22.4276L26.9023 25.0556L29.5303 19.2793L32.6786 22.4276Z" fill="#FFDA8F"/>
<path d="M22.9957 38.4247C22.59 38.4247 22.2549 38.0896 22.2549 37.684C22.2549 36.2641 22.7576 34.8884 23.6747 33.8037C24.5919 32.719 25.8706 31.9959 27.2639 31.7666L36.0474 30.3732V18.3003C36.0474 17.8947 36.3825 17.5596 36.7882 17.5596C37.1938 17.5596 37.529 17.8947 37.529 18.3003V31.0082C37.529 31.3697 37.2644 31.6872 36.9028 31.7401L27.4932 33.2305C25.3062 33.5921 23.7276 35.4705 23.7276 37.684C23.7276 38.0896 23.3925 38.4247 22.9868 38.4247H22.9957Z" fill="black"/>
<path d="M22.9957 16.1661C22.59 16.1661 22.2549 15.831 22.2549 15.4253C22.2549 14.0055 22.7576 12.6298 23.6747 11.5451C24.5919 10.4604 25.8706 9.73723 27.2639 9.50794L36.6824 8.00875C36.894 7.97348 37.1145 8.03521 37.282 8.17631C37.4496 8.31741 37.5466 8.52024 37.5466 8.74071V12.0036C37.5466 12.4093 37.2115 12.7444 36.8058 12.7444C36.4002 12.7444 36.065 12.4093 36.065 12.0036V9.61377L27.5109 10.9719C25.3238 11.3334 23.7453 13.2118 23.7453 15.4253C23.7453 15.831 23.4101 16.1661 23.0045 16.1661H22.9957Z" fill="black"/>
<path d="M22.9955 38.4246C22.5898 38.4246 22.2547 38.0895 22.2547 37.6839C22.2547 35.4703 20.6673 33.6008 18.4891 33.2304L9.0795 31.74C8.71793 31.6871 8.45337 31.3696 8.45337 31.0081V8.74071C8.45337 8.52024 8.55038 8.31741 8.71793 8.17631C8.88549 8.03521 9.10596 7.97348 9.31761 8.00875L18.7272 9.49912C20.1294 9.72841 21.3993 10.4604 22.3164 11.5363C23.2336 12.621 23.7363 13.9967 23.7363 15.4165V37.6839C23.7363 38.0895 23.4012 38.4246 22.9955 38.4246ZM9.93492 30.3731L18.7184 31.7665C20.0853 31.9958 21.3376 32.6924 22.2459 33.7331V15.4253C22.2459 13.2118 20.6585 11.3422 18.4803 10.9719L9.93492 9.61377V30.3731Z" fill="black"/>
<path d="M26.8934 25.7965C26.6994 25.7965 26.5142 25.7171 26.3643 25.576C26.1438 25.3556 26.0821 25.0293 26.2144 24.7471L28.8424 18.9708C28.8776 18.8914 28.9305 18.8121 28.9923 18.7503L36.2678 11.4749L36.9203 10.8223C37.4847 10.2579 38.2255 9.94922 39.0192 9.94922C39.8129 9.94922 40.5537 10.2579 41.1181 10.8223C41.6825 11.3779 41.9911 12.1275 41.9911 12.9211C41.9911 13.7148 41.6825 14.4644 41.1181 15.02L37.3172 18.8209L33.19 22.9481C33.1283 23.0098 33.0577 23.0627 32.9695 23.098L27.1933 25.726C27.0962 25.7701 26.9904 25.7965 26.8846 25.7965H26.8934ZM30.1475 19.7028L28.3926 23.5566L32.2464 21.8016L38.5077 15.5403L40.0775 13.9618C40.3597 13.6796 40.5096 13.3092 40.5096 12.9123C40.5096 12.5155 40.3597 12.1451 40.0775 11.8629C39.7953 11.5807 39.4249 11.4308 39.028 11.4308C38.6312 11.4308 38.2608 11.5895 37.9786 11.8629L37.326 12.5155L30.1475 19.6939V19.7028Z" fill="black"/>
<path d="M32.6786 23.1682C32.4846 23.1682 32.2994 23.0976 32.1495 22.9477L29.0012 19.7994C28.7102 19.5084 28.7102 19.041 29.0012 18.75C29.2922 18.459 29.7596 18.459 30.0507 18.75L33.1989 21.8983C33.49 22.1893 33.49 22.6567 33.1989 22.9477C33.0578 23.0888 32.8638 23.1682 32.6698 23.1682H32.6786Z" fill="black"/>
<path d="M39.028 16.8186C38.834 16.8186 38.6488 16.748 38.4989 16.5981L35.3506 13.4498C35.0596 13.1588 35.0596 12.6914 35.3506 12.4004C35.6416 12.1094 36.109 12.1094 36.4 12.4004L39.5483 15.5487C39.8393 15.8397 39.8393 16.3071 39.5483 16.5981C39.4072 16.7392 39.2132 16.8186 39.0192 16.8186H39.028Z" fill="black"/>
<path d="M22.9956 38.4248C22.8016 38.4248 22.6164 38.3543 22.4665 38.2044C21.1701 36.908 19.4505 36.1937 17.6162 36.1937H4.74078C4.33511 36.1937 4 35.8586 4 35.4529V13.1944C4 12.7887 4.33511 12.4536 4.74078 12.4536H9.19424C9.59991 12.4536 9.93502 12.7887 9.93502 13.1944C9.93502 13.6001 9.59991 13.9352 9.19424 13.9352H5.48155V34.7121H17.625C19.618 34.7121 21.4964 35.4 23.0044 36.6699C24.5036 35.4 26.3908 34.7121 28.3838 34.7121H31.2852C31.6909 34.7121 32.026 35.0473 32.026 35.4529C32.026 35.8586 31.6909 36.1937 31.2852 36.1937H28.3838C26.5495 36.1937 24.8299 36.908 23.5335 38.2044C23.3924 38.3455 23.1984 38.4248 23.0044 38.4248H22.9956Z" fill="black"/>
<path d="M41.2593 36.2025H31.2588C30.8532 36.2025 30.5181 35.8673 30.5181 35.4617C30.5181 35.056 30.8532 34.7209 31.2588 34.7209H40.5185V12.921C40.5185 12.5153 40.8536 12.1802 41.2593 12.1802C41.665 12.1802 42.0001 12.5153 42.0001 12.921V35.4529C42.0001 35.8585 41.665 36.1936 41.2593 36.1936V36.2025Z" fill="black"/>
</g>
</g>
<defs>
<clipPath id="clip0_5355_21620">
<rect width="46" height="46" fill="white"/>
</clipPath>
<clipPath id="clip1_5355_21620">
<rect width="38" height="30.4247" fill="white" transform="translate(4 8)"/>
</clipPath>
</defs>
</svg>
