<svg width="46" height="46" viewBox="0 0 46 46" fill="none" xmlns="http://www.w3.org/2000/svg">
<g clip-path="url(#clip0_5355_21600)">
<g clip-path="url(#clip1_5355_21600)">
<path d="M29.7201 34.82H6.62011C5.10011 34.82 3.86011 36.12 3.86011 37.73C3.86011 39.34 5.09011 40.64 6.62011 40.64H29.7201C30.6701 40.64 31.4401 39.83 31.4401 38.82V33C31.4401 34 30.6701 34.82 29.7201 34.82Z" fill="white"/>
<path d="M3.86011 38.0902V9.18016C3.86011 7.37016 5.25011 5.91016 6.96011 5.91016H29.7101C30.6601 5.91016 31.4301 6.72016 31.4301 7.73016V33.0002C31.4301 34.0002 30.6601 34.8202 29.7101 34.8202H3.86011V38.0902Z" fill="#6A80FF"/>
<path d="M29.72 41.55C31.15 41.55 32.31 40.33 32.31 38.82V7.73C32.31 6.23 31.15 5 29.72 5H6.96C4.78 5 3 6.88 3 9.18V38.09C3 38.21 3.02 38.32 3.06 38.43C3.37 40.2 4.85 41.55 6.62 41.55M4.72 9.18C4.72 7.88 5.73 6.82 6.96 6.82H29.71C30.19 6.82 30.57 7.23 30.57 7.73V33C30.57 33.5 30.18 33.91 29.71 33.91H8.86V14.67C8.86 14.17 8.47 13.76 8 13.76C7.53 13.76 7.14 14.17 7.14 14.67V33.91H6.62C5.93 33.91 5.28 34.12 4.72 34.48V9.18ZM4.72 37.73C4.72 36.63 5.57 35.73 6.62 35.73H29.72C30.02 35.73 30.31 35.67 30.58 35.57V38.82C30.58 39.32 30.19 39.73 29.72 39.73H6.62C5.57 39.73 4.72 38.83 4.72 37.73Z" fill="black"/>
<path d="M18.4099 14.59V23.6L14.4299 27.64C13.6399 28.44 14.2099 29.79 15.3299 29.79H36.7499C37.6499 29.79 38.3799 29.06 38.3799 28.16V14.59C38.3799 13.69 37.6499 12.96 36.7499 12.96H20.0299C19.1299 12.96 18.3999 13.69 18.3999 14.59H18.4099Z" fill="#62EAFA"/>
<path d="M31.8 21.3698H30V16.0798C30 15.4898 29.27 15.1998 28.87 15.6398L24.26 20.5298C23.97 20.8498 24.19 21.3698 24.63 21.3698H26.43V26.6598C26.43 27.2498 27.16 27.5398 27.56 27.0998L32.17 22.2098C32.46 21.8898 32.24 21.3698 31.8 21.3698Z" fill="#FFDD74"/>
<path d="M36.67 30.5599H15.33C14.49 30.5599 13.77 30.0799 13.45 29.3099C13.13 28.5399 13.29 27.6899 13.88 27.0899L17.64 23.2799V14.5899C17.64 13.2699 18.72 12.1899 20.04 12.1899H36.68C38 12.1899 39.08 13.2699 39.08 14.5899V28.1599C39.08 29.4799 38 30.5599 36.68 30.5599H36.67ZM20.03 13.7299C19.56 13.7299 19.18 14.1099 19.18 14.5799V23.5899C19.18 23.7899 19.1 23.9899 18.96 24.1299L14.98 28.1699C14.77 28.3799 14.84 28.6099 14.88 28.6999C14.92 28.7899 15.04 28.9999 15.33 28.9999H36.67C37.14 28.9999 37.52 28.6199 37.52 28.1499V14.5799C37.52 14.1099 37.14 13.7299 36.67 13.7299H20.03Z" fill="black"/>
<path d="M27.0001 27.4402C26.8401 27.4402 26.6701 27.4102 26.5101 27.3502C25.9901 27.1502 25.6501 26.6602 25.6501 26.1002V22.1602H24.8701C24.3901 22.1602 23.9501 21.8802 23.7601 21.4302C23.5701 20.9902 23.6501 20.4702 23.9701 20.1202L27.9601 15.7502C28.3401 15.3402 28.9201 15.2002 29.4401 15.4002C29.9601 15.6002 30.3001 16.0902 30.3001 16.6502V20.5902H31.0801C31.5601 20.5902 32.0001 20.8702 32.1901 21.3202C32.3801 21.7602 32.3001 22.2802 31.9801 22.6302L27.9901 27.0002C27.7301 27.2902 27.3701 27.4402 27.0001 27.4402ZM25.3401 20.4802H26.2201C26.7101 20.4802 27.1101 20.8802 27.1101 21.3702V26.1002L30.6201 22.2602H29.7401C29.2501 22.2602 28.8501 21.8602 28.8501 21.3702V16.6402L25.3401 20.4802Z" fill="black"/>
<path d="M39.41 12.6399C39.21 12.6399 39.01 12.5599 38.86 12.4099C38.56 12.1099 38.56 11.6199 38.86 11.3199L39.68 10.4999C39.98 10.1999 40.47 10.1999 40.77 10.4999C41.07 10.7999 41.07 11.2899 40.77 11.5899L39.95 12.4099C39.8 12.5599 39.6 12.6399 39.4 12.6399H39.41Z" fill="black"/>
<path d="M35.4901 10.53C35.4201 10.53 35.3601 10.53 35.2901 10.5C34.8801 10.39 34.6301 9.96998 34.7401 9.54998L35.0401 8.42998C35.1501 8.01998 35.5701 7.76998 35.9901 7.87998C36.4001 7.98998 36.6501 8.40997 36.5401 8.82997L36.2401 9.94997C36.1501 10.3 35.8401 10.52 35.4901 10.52V10.53Z" fill="black"/>
<path d="M41.52 16.56C41.18 16.56 40.87 16.33 40.77 15.99C40.66 15.58 40.9 15.15 41.32 15.04L42.44 14.74C42.85 14.63 43.28 14.87 43.39 15.29C43.5 15.7 43.26 16.13 42.84 16.24L41.72 16.54C41.65 16.56 41.59 16.57 41.52 16.57V16.56Z" fill="black"/>
</g>
</g>
<defs>
<clipPath id="clip0_5355_21600">
<rect width="46" height="46" fill="white"/>
</clipPath>
<clipPath id="clip1_5355_21600">
<rect width="40.41" height="36.55" fill="white" transform="translate(3 5)"/>
</clipPath>
</defs>
</svg>
