<svg width="20" height="20" viewBox="0 0 20 20" fill="none" xmlns="http://www.w3.org/2000/svg">
<path d="M18.9529 7.5176C18.8344 7.15312 18.5111 6.89508 18.1302 6.86061L12.9341 6.38888L10.8806 1.58119C10.729 1.22797 10.384 1 10 1C9.61603 1 9.27092 1.22797 9.12027 1.58119L7.06675 6.38888L1.86987 6.86061C1.48891 6.89576 1.16632 7.15381 1.04712 7.5176C0.928599 7.88208 1.03805 8.28185 1.32617 8.53454L5.25398 11.9787L4.09587 17.0794C4.01113 17.4545 4.15671 17.8423 4.4679 18.0672C4.63517 18.1888 4.83169 18.2495 5.0289 18.2495C5.19836 18.2495 5.36797 18.2044 5.51944 18.1138L10 15.4347L14.4798 18.1138C14.8084 18.3102 15.2216 18.2922 15.5321 18.0672C15.8433 17.8423 15.9889 17.4545 15.9042 17.0794L14.746 11.9787L18.6738 8.53454C18.9618 8.28185 19.0714 7.8829 18.9529 7.5176Z" fill="#B3B3B3"/>
</svg>
