<svg width="12" height="12" viewBox="0 0 12 12" fill="none" xmlns="http://www.w3.org/2000/svg">
<path d="M8.31438 4.40356L9.35888 3.35906C9.35893 3.35902 9.35897 3.35898 9.35902 3.35893L9.35903 3.35892L9.42267 3.42256L8.31438 4.40356ZM8.31438 4.40356L6.41259 2.50177L6.41258 2.50176C6.23497 2.3242 5.9941 2.22445 5.74295 2.22445C5.49181 2.22445 5.25094 2.3242 5.07333 2.50176L5.07332 2.50177L3.17153 4.40356L2.12688 3.35892L2.12687 3.35891C1.99441 3.22649 1.82566 3.13631 1.64196 3.09978C1.45826 3.06326 1.26785 3.08201 1.09481 3.15368C0.921769 3.22535 0.773861 3.34672 0.669784 3.50244C0.565708 3.65816 0.510138 3.84124 0.510098 4.02854V4.02856L0.510098 8.56541L0.510098 8.56552C0.510807 9.15747 0.74627 9.72496 1.16484 10.1435C1.58341 10.5621 2.1509 10.7976 2.74285 10.7983H2.74295H8.74296H8.74306C9.33501 10.7976 9.9025 10.5621 10.3211 10.1435C10.7396 9.72496 10.9751 9.15746 10.9758 8.56552V8.56541V4.02858C10.9758 4.02857 10.9758 4.02856 10.9758 4.02856C10.9759 3.84125 10.9204 3.65814 10.8163 3.50237C10.7124 3.34664 10.5645 3.22522 10.3916 3.15348L8.31438 4.40356ZM8.68102 5.50348L9.93867 4.24584V8.56541C9.93867 8.88254 9.81269 9.18667 9.58845 9.41091C9.36421 9.63515 9.06008 9.76113 8.74296 9.76113H2.74295C2.42583 9.76113 2.1217 9.63515 1.89746 9.41091C1.67322 9.18667 1.54724 8.88254 1.54724 8.56541V4.24584L2.80489 5.50348L2.8049 5.50349C2.90214 5.60071 3.03402 5.65532 3.17153 5.65532C3.30903 5.65532 3.44091 5.60071 3.53816 5.50349L3.53817 5.50348L5.74295 3.29869L7.94774 5.50348L7.94775 5.50349C8.045 5.60071 8.17688 5.65532 8.31438 5.65532C8.45189 5.65532 8.58377 5.60071 8.68101 5.50349L8.68102 5.50348Z" fill="white" stroke="white" stroke-width="0.18"/>
<circle cx="5.6998" cy="0.9" r="0.9" fill="white"/>
<circle cx="1.5001" cy="0.9" r="0.9" fill="white"/>
<circle cx="9.9" cy="0.9" r="0.9" fill="white"/>
</svg>
