<svg width="20" height="20" viewBox="0 0 20 20" fill="none" xmlns="http://www.w3.org/2000/svg">
<path fill-rule="evenodd" clip-rule="evenodd" d="M6.00582 7.17415L4.49335 6.98574C4.17062 6.94562 3.94907 6.64208 4.01014 6.31761C4.20727 5.20637 4.76725 4.24341 5.68834 3.43048C6.76992 2.47624 8.18819 2 9.94663 2C11.7958 2 13.2681 2.48322 14.3602 3.44967C15.454 4.41611 16 5.54131 16 6.82351C16 7.53351 15.7976 8.20514 15.3964 8.83839C14.9934 9.47338 14.1351 10.3352 12.8181 11.4255C12.1377 11.9907 11.7138 12.4442 11.5498 12.7879C11.4521 12.9885 11.3876 13.2834 11.3527 13.6724C11.3038 14.2132 10.8538 14.6301 10.3095 14.6301H9.45468C8.85807 14.6301 8.38359 14.1347 8.40799 13.5398C8.4359 12.8455 8.54755 12.1529 8.86854 11.5284C9.18255 10.9178 9.8088 10.2305 10.7508 9.46815C11.6911 8.70581 12.2546 8.20688 12.4377 7.96963C12.7203 7.59631 12.8617 7.18462 12.8617 6.73454C12.8617 6.10827 12.6122 5.57445 12.1098 5.12787C11.6074 4.68302 10.9305 4.45973 10.0809 4.45973C9.26103 4.45973 8.57546 4.69349 8.02419 5.15752C7.63517 5.48548 7.33163 5.93556 7.11357 6.50601C6.94086 6.95783 6.48555 7.23346 6.00582 7.17415ZM9.45481 15.7499H10.2747C10.8522 15.7499 11.3214 16.2175 11.3214 16.7966V17.9288C11.3214 18.5062 10.8522 18.9755 10.2747 18.9755H9.45481C8.87738 18.9755 8.40811 18.5062 8.40811 17.9288V16.7966C8.40811 16.2192 8.87738 15.7499 9.45481 15.7499Z" fill="#B3B3B3"/>
</svg>
