<svg width="18" height="18" viewBox="0 0 18 18" fill="none" xmlns="http://www.w3.org/2000/svg">
<path fill-rule="evenodd" clip-rule="evenodd" d="M4.80029 10.3002C4.80029 9.96882 5.06892 9.7002 5.40029 9.7002H14.4003C14.7317 9.7002 15.0003 9.96882 15.0003 10.3002C15.0003 10.6316 14.7317 10.9002 14.4003 10.9002H5.40029C5.06892 10.9002 4.80029 10.6316 4.80029 10.3002Z" fill="white"/>
<path fill-rule="evenodd" clip-rule="evenodd" d="M4.80029 12.7006C4.80029 12.3692 5.06892 12.1006 5.40029 12.1006H14.4003C14.7317 12.1006 15.0003 12.3692 15.0003 12.7006C15.0003 13.032 14.7317 13.3006 14.4003 13.3006H5.40029C5.06892 13.3006 4.80029 13.032 4.80029 12.7006Z" fill="white"/>
<path fill-rule="evenodd" clip-rule="evenodd" d="M10.2002 7.90078C10.2002 7.5694 10.4688 7.30078 10.8002 7.30078H14.4002C14.7316 7.30078 15.0002 7.5694 15.0002 7.90078C15.0002 8.23216 14.7316 8.50078 14.4002 8.50078H10.8002C10.4688 8.50078 10.2002 8.23216 10.2002 7.90078Z" fill="white"/>
<path fill-rule="evenodd" clip-rule="evenodd" d="M10.2002 5.50039C10.2002 5.16902 10.4688 4.90039 10.8002 4.90039H14.4002C14.7316 4.90039 15.0002 5.16902 15.0002 5.50039C15.0002 5.83176 14.7316 6.10039 14.4002 6.10039H10.8002C10.4688 6.10039 10.2002 5.83176 10.2002 5.50039Z" fill="white"/>
<path fill-rule="evenodd" clip-rule="evenodd" d="M8.4001 5.2C8.24098 5.2 8.08834 5.26322 7.97584 5.37573C7.86334 5.48826 7.8001 5.64087 7.8001 5.8V6.1C8.03746 6.1 8.26942 6.17038 8.46676 6.30224C8.6641 6.43409 8.81794 6.62151 8.90878 6.84078C8.99956 7.06005 9.02332 7.30132 8.97706 7.53412C8.93074 7.76686 8.81644 7.9807 8.64862 8.14852C8.4808 8.31634 8.26696 8.43064 8.03422 8.47696C7.80142 8.52322 7.56015 8.49946 7.34088 8.40868C7.12161 8.31784 6.93419 8.164 6.80233 7.96666C6.67048 7.76932 6.6001 7.53736 6.6001 7.3V5.8C6.6001 5.32261 6.78974 4.86477 7.12731 4.52721C7.46487 4.18964 7.92274 4 8.4001 4C8.73148 4 9.0001 4.26863 9.0001 4.6C9.0001 4.93137 8.73148 5.2 8.4001 5.2Z" fill="white"/>
<path fill-rule="evenodd" clip-rule="evenodd" d="M4.8 5.2C4.64087 5.2 4.48826 5.26322 4.37573 5.37573C4.26322 5.48826 4.2 5.64087 4.2 5.8V6.1C4.43734 6.1 4.66934 6.17038 4.86668 6.30224C5.06402 6.43409 5.21783 6.62151 5.30866 6.84078C5.39948 7.06005 5.42324 7.30132 5.37694 7.53412C5.33064 7.76686 5.21635 7.9807 5.04853 8.14852C4.88071 8.31634 4.66688 8.43064 4.43411 8.47696C4.20133 8.52322 3.96005 8.49946 3.74078 8.40868C3.52151 8.31784 3.33409 8.164 3.20224 7.96666C3.07038 7.76932 3 7.53736 3 7.3V5.8C3 5.32261 3.18964 4.86477 3.52721 4.52721C3.86477 4.18964 4.32261 4 4.8 4C5.13137 4 5.4 4.26863 5.4 4.6C5.4 4.93137 5.13137 5.2 4.8 5.2Z" fill="white"/>
</svg>
