<svg width="20" height="20" viewBox="0 0 20 20" fill="none" xmlns="http://www.w3.org/2000/svg">
<path d="M9.16964 3.50674C9.19265 2.91284 9.55523 2.48975 10.0776 2.48975C10.6 2.48975 10.92 2.94406 10.9466 3.55127C10.9699 4.0822 11.0411 8.13931 11.0587 9.15038C11.061 9.28255 11.1569 9.3942 11.2872 9.41651C11.439 9.44251 11.5823 9.34032 11.6055 9.18808C11.7552 8.2015 12.2622 4.87542 12.3755 4.29865C12.5088 3.61991 12.8528 3.28725 13.4023 3.365C13.9186 3.43806 14.1161 3.87274 14.0461 4.58991C13.9849 5.21684 13.5473 8.87533 13.4381 9.78628C13.4235 9.90789 13.4916 10.0241 13.6047 10.0712C13.7539 10.1333 13.9237 10.0543 13.9711 9.89977C14.1808 9.215 14.7191 7.45921 15.0715 6.32243C15.2997 5.58651 15.627 5.27882 16.1527 5.42622C16.6784 5.5736 16.7523 6.00931 16.5956 6.81063C16.4389 7.61197 15.9158 10.4095 15.3262 12.8292C14.4486 16.4303 12.9156 17.7761 10.4857 17.7761C7.66075 17.7761 6.91978 16.799 4.28519 13.7142C3.66556 12.9887 3.46498 12.8389 2.89706 12.0435C2.36182 11.2938 2.34799 10.7902 2.7277 10.4218C3.29582 9.87071 4.04918 10.3503 4.62073 10.813C5.30508 11.367 5.95844 11.8874 6.25075 12.1197C6.34698 12.1962 6.48048 12.2034 6.58481 12.1385C6.67838 12.0802 6.73108 11.9745 6.72092 11.8648C6.61853 10.7592 6.07374 4.8782 6.01723 4.2889C5.95483 3.63814 6.20683 3.12921 6.78655 3.06766C7.36628 3.00612 7.73106 3.5161 7.81347 4.09839C7.88483 4.6028 8.37448 8.15257 8.50417 9.09304C8.52238 9.225 8.63485 9.32125 8.76805 9.32125C8.91298 9.32125 9.03131 9.20785 9.03461 9.06296C9.05869 8.00333 9.14974 4.02092 9.16964 3.50674Z" fill="white"/>
</svg>
