<svg width="20" height="20" viewBox="0 0 20 20" fill="none" xmlns="http://www.w3.org/2000/svg">
<path d="M17.6211 15.6855L13.9426 12.0067C14.5676 11.0116 14.9304 9.83558 14.9304 8.57345C14.9304 5.00269 12.0357 2.1084 8.46505 2.1084C4.89443 2.1084 2 5.00269 2 8.57345C2 12.1443 4.89429 15.0384 8.46505 15.0384C9.83858 15.0384 11.1108 14.6089 12.1577 13.8793L15.7924 17.5143C16.045 17.7666 16.3761 17.8922 16.7068 17.8922C17.0379 17.8922 17.3686 17.7666 17.6215 17.5143C18.1263 17.009 18.1263 16.1906 17.6211 15.6855ZM8.46505 12.9438C6.05163 12.9438 4.09499 10.9873 4.09499 8.57372C4.09499 6.16017 6.05163 4.20352 8.46505 4.20352C10.8786 4.20352 12.8351 6.16017 12.8351 8.57372C12.8351 10.9873 10.8786 12.9438 8.46505 12.9438Z" fill="#B3B3B3"/>
</svg>
