<svg width="20" height="20" viewBox="0 0 20 20" fill="none" xmlns="http://www.w3.org/2000/svg">
<path d="M8.86605 9.34019V2.13395C8.86605 1.83321 8.98552 1.54478 9.19818 1.33213C9.41083 1.11947 9.69926 1 10 1C10.3007 1 10.5892 1.11947 10.8018 1.33213C11.0145 1.54478 11.1339 1.83321 11.1339 2.13395V9.34019C11.1339 9.64093 11.0145 9.92935 10.8018 10.142C10.5892 10.3547 10.3007 10.4741 10 10.4741C9.69926 10.4741 9.41083 10.3547 9.19818 10.142C8.98552 9.92935 8.86605 9.64093 8.86605 9.34019ZM14.6265 3.47768C14.5051 3.39131 14.368 3.32969 14.2228 3.29634C14.0776 3.26299 13.9273 3.25856 13.7804 3.2833C13.6335 3.30805 13.4929 3.36148 13.3667 3.44055C13.2404 3.51963 13.131 3.62279 13.0447 3.74415C12.9583 3.86552 12.8967 4.0027 12.8633 4.14788C12.83 4.29306 12.8255 4.44338 12.8503 4.59027C12.875 4.73716 12.9285 4.87774 13.0075 5.00397C13.0866 5.13021 13.1898 5.23964 13.3111 5.32601C14.3042 6.02878 15.048 7.0293 15.4347 8.1828C15.8215 9.3363 15.8312 10.5829 15.4625 11.7423C15.0938 12.9017 14.3657 13.9137 13.3837 14.6319C12.4017 15.3501 11.2166 15.7372 10 15.7372C8.78339 15.7372 7.59833 15.3501 6.61631 14.6319C5.63428 13.9137 4.90623 12.9017 4.5375 11.7423C4.16877 10.5829 4.17849 9.3363 4.56526 8.1828C4.95202 7.0293 5.69577 6.02878 6.68887 5.32601C6.81024 5.23964 6.9134 5.13021 6.99247 5.00397C7.07155 4.87774 7.12498 4.73716 7.14973 4.59027C7.17447 4.44338 7.17004 4.29306 7.13669 4.14788C7.10334 4.0027 7.04172 3.86552 6.95535 3.74415C6.86898 3.62279 6.75955 3.51963 6.63332 3.44055C6.50708 3.36148 6.3665 3.30805 6.21961 3.2833C5.92296 3.23333 5.6186 3.30325 5.37349 3.47768C3.98873 4.45931 2.95208 5.85595 2.41346 7.46562C1.87483 9.0753 1.86216 10.8146 2.37727 12.4319C2.89237 14.0493 3.90856 15.4609 5.27887 16.4626C6.64919 17.4643 8.3026 18.0042 10 18.0042C11.6974 18.0042 13.3508 17.4643 14.7211 16.4626C16.0914 15.4609 17.1076 14.0493 17.6227 12.4319C18.1378 10.8146 18.1252 9.0753 17.5865 7.46562C17.0479 5.85595 16.0113 4.45931 14.6265 3.47768Z" fill="#B3B3B3"/>
</svg>
