<svg width="18" height="18" viewBox="0 0 18 18" fill="none" xmlns="http://www.w3.org/2000/svg">
<g id="ic_upload_pdf" clip-path="url(#clip0_1419_106)">
<path id="Union" fill-rule="evenodd" clip-rule="evenodd" d="M15.7332 4.58718C14.7182 3.58769 13.7087 2.5855 12.6984 1.58263L12.6962 1.58041C12.361 1.24766 12.0257 0.914837 11.6902 0.582015C11.6474 0.533016 11.6073 0.481849 11.5698 0.428711H4.35013L4.04692 0.514943C3.66645 0.633843 3.33544 0.873258 3.10431 1.19672C2.87319 1.52019 2.75461 1.90998 2.76662 2.30673V9.01395H2.54041C2.36215 9.02319 2.19364 9.09783 2.06742 9.22346C1.9412 9.3491 1.86621 9.51682 1.85693 9.69425V10.5135V13.9629C1.85693 14.5666 2.08316 14.9642 2.78106 14.9546V15.7835C2.78395 16.0659 2.85443 16.3437 2.98669 16.5936C3.11894 16.8436 3.30915 17.0585 3.54153 17.2207C3.87689 17.4617 4.2833 17.5848 4.69668 17.5704H13.9668C14.1135 17.5712 14.2599 17.56 14.4048 17.5369C14.8011 17.4615 15.1611 17.2574 15.4285 16.9566C15.6959 16.6558 15.8555 16.2752 15.8824 15.8745V15.5727V4.95608C15.8855 4.88754 15.8738 4.81914 15.8481 4.7555C15.8223 4.69185 15.7832 4.63445 15.7332 4.58718ZM3.81107 10.547C4.36749 10.4285 4.94484 10.4499 5.49086 10.6093C5.65764 10.6738 5.79963 10.7892 5.89647 10.9389C5.99331 11.0887 6.04003 11.2651 6.02993 11.4429C6.04354 11.6312 5.99865 11.819 5.90136 11.981C5.80406 12.143 5.65907 12.2712 5.48604 12.3484C5.23583 12.4619 4.96156 12.5129 4.68706 12.4969H4.49934V13.5796H3.81107V10.547ZM13.9186 16.4638H4.77369C4.65706 16.4817 4.53782 16.472 4.42565 16.4355C4.31347 16.399 4.21151 16.3367 4.12806 16.2536C4.04461 16.1706 3.98201 16.0691 3.94533 15.9574C3.90865 15.8458 3.89893 15.7271 3.91695 15.611V14.9355H4.14317H12.5854C12.7041 14.9464 12.8237 14.9313 12.9358 14.8912C13.0479 14.8511 13.1498 14.787 13.2343 14.7034C13.3188 14.6197 13.3838 14.5186 13.4247 14.4072C13.4656 14.2959 13.4814 14.1769 13.471 14.0587V9.85714C13.4868 9.74125 13.4755 9.62332 13.4381 9.51246C13.4007 9.4016 13.3381 9.30081 13.2553 9.21789C13.1725 9.13496 13.0715 9.07214 12.9604 9.03428C12.8492 8.99642 12.7308 8.98455 12.6143 8.99958H3.90252V2.3738C3.8871 2.26304 3.89735 2.15022 3.93248 2.04401C3.96761 1.93779 4.02668 1.84098 4.10519 1.76099C4.18369 1.681 4.27954 1.61995 4.3854 1.58251C4.49126 1.54507 4.60433 1.53223 4.71594 1.54498H11.1174V1.77973V4.07456C11.1387 4.36186 11.2633 4.63189 11.4684 4.83516C11.6735 5.03842 11.9453 5.16129 12.2341 5.18125H14.5059H14.7176V5.37768L14.7465 15.611C14.7654 15.7243 14.7574 15.8404 14.7233 15.95C14.6891 16.0597 14.6297 16.16 14.5498 16.2428C14.4699 16.3256 14.3716 16.3887 14.2629 16.427C14.1542 16.4654 14.0379 16.478 13.9235 16.4638H13.9186ZM6.48717 13.5892V10.5518C7.01003 10.468 7.54301 10.468 8.06587 10.5518C8.34743 10.5872 8.60972 10.7129 8.81298 10.91C9.01623 11.1072 9.14935 11.3649 9.19215 11.6441C9.27601 11.9483 9.26423 12.2706 9.15838 12.5679C9.05253 12.8651 8.8577 13.1229 8.60014 13.3066C8.366 13.4585 8.09857 13.5522 7.82042 13.5796C7.37802 13.6051 6.93456 13.6067 6.49198 13.5844L6.48717 13.5892ZM11.4976 11.7879V12.3532H10.4051V13.5844H9.70235V10.5183H11.5843V11.0836H10.4051V11.7879H11.4976ZM8.30105 12.6888C8.41362 12.489 8.47273 12.2639 8.47273 12.0348C8.47273 11.8058 8.41362 11.5806 8.30105 11.3809C8.16721 11.224 7.99014 11.1095 7.79171 11.0516C7.59328 10.9937 7.38215 10.9949 7.1844 11.0551V13.0481C7.38523 13.1071 7.59928 13.1044 7.79853 13.0403C7.99777 12.9761 8.17293 12.8536 8.30105 12.6888ZM5.02438 11.9081C4.85158 11.9443 4.67613 11.9668 4.49974 11.9752C4.49974 11.8665 4.50033 11.7631 4.50088 11.6645C4.50193 11.4806 4.50287 11.3135 4.49974 11.1607C4.49974 11.0793 4.52863 11.0361 4.61527 11.0361C4.72585 11.029 4.83679 11.029 4.94737 11.0361C5.04861 11.0449 5.1434 11.0893 5.21482 11.1613C5.28624 11.2332 5.32963 11.3281 5.33724 11.429C5.35075 11.5328 5.32668 11.638 5.26936 11.7258C5.21204 11.8136 5.1252 11.8782 5.02438 11.9081Z" fill="#B3B3B3"/>
</g>
<defs>
<clipPath id="clip0_1419_106">
<rect width="17.1429" height="17.1429" fill="white" transform="translate(0.428467 0.428711)"/>
</clipPath>
</defs>
</svg>
