<svg width="34" height="34" viewBox="0 0 34 34" fill="none" xmlns="http://www.w3.org/2000/svg">
<mask id="path-1-outside-1_192_6510" maskUnits="userSpaceOnUse" x="6" y="7" width="22" height="20" fill="black">
<rect fill="white" x="6" y="7" width="22" height="20"/>
<path fill-rule="evenodd" clip-rule="evenodd" d="M21.1019 9.5542H23.0273C23.2165 9.53808 23.407 9.56341 23.5854 9.62843C23.7637 9.69344 23.9257 9.79655 24.06 9.93057C24.1943 10.0646 24.2976 10.2263 24.3628 10.4043C24.4279 10.5823 24.4533 10.7724 24.4372 10.9612V12.8372C24.4266 12.9427 24.4383 13.0493 24.4716 13.15C24.5049 13.2507 24.559 13.3433 24.6305 13.4217C24.702 13.5002 24.7892 13.5628 24.8865 13.6054C24.9838 13.6481 25.0889 13.6699 25.1952 13.6693C25.302 13.6696 25.4078 13.6479 25.5058 13.6054C25.6038 13.5629 25.6919 13.5006 25.7645 13.4224C25.8372 13.3442 25.8928 13.2518 25.9279 13.1511C25.9629 13.0504 25.9768 12.9435 25.9684 12.8372V11.7479V10.6738C25.9336 9.96049 25.6269 9.28747 25.1112 8.79246C24.5954 8.29745 23.9096 8.01789 23.194 8.01101H21.1777C21.1026 7.99633 21.0254 7.99633 20.9504 8.01101C20.7743 8.06063 20.6216 8.17096 20.5193 8.32236C20.4171 8.47377 20.3719 8.65645 20.3919 8.83793C20.4119 9.01941 20.4958 9.18793 20.6285 9.31353C20.7613 9.43914 20.9344 9.51369 21.1171 9.52393L21.1019 9.5542ZM26.4835 16.2868C26.3379 16.2636 26.1895 16.2636 26.0439 16.2868H7.65451C7.48237 16.3107 7.32367 16.3928 7.205 16.5195C7.08632 16.6462 7.01488 16.8097 7.00263 16.9827C6.98807 17.1585 7.03426 17.334 7.13356 17.4799C7.23287 17.6258 7.37927 17.7333 7.54838 17.7846C7.68944 17.8002 7.83185 17.8002 7.97291 17.7846H26.3168C26.4857 17.7685 26.644 17.6952 26.7654 17.5768C26.8867 17.4585 26.9638 17.3022 26.9838 17.134C27.0221 16.9559 26.9919 16.77 26.8992 16.6131C26.8066 16.4561 26.6582 16.3397 26.4835 16.2868ZM10.9898 24.4722H12.7939L12.809 24.4571C12.9212 24.4346 13.037 24.4372 13.1481 24.4648C13.2591 24.4924 13.3627 24.5442 13.4513 24.6166C13.5398 24.689 13.6111 24.7801 13.6601 24.8833C13.7091 24.9865 13.7345 25.0993 13.7345 25.2136C13.7345 25.3278 13.7091 25.4406 13.6601 25.5438C13.6111 25.647 13.5398 25.7381 13.4513 25.8105C13.3627 25.8829 13.2591 25.9347 13.1481 25.9623C13.037 25.9899 12.9212 25.9925 12.809 25.97H11.7781C11.3188 26.0003 10.8579 26.0003 10.3985 25.97C9.77111 25.8742 9.19565 25.5667 8.76802 25.0986C8.3404 24.6306 8.08648 24.0303 8.04869 23.398V21.1287C8.04441 21.0262 8.0615 20.924 8.09884 20.8284C8.13618 20.7329 8.19292 20.6461 8.26558 20.5736C8.33825 20.5011 8.42522 20.4444 8.52097 20.4071C8.61671 20.3698 8.7192 20.3528 8.82188 20.3571C8.92408 20.3589 9.02488 20.3814 9.11816 20.4231C9.21144 20.4649 9.29527 20.525 9.36466 20.5999C9.43406 20.6748 9.48759 20.7629 9.52197 20.859C9.55634 20.9551 9.57087 21.0571 9.56471 21.1589V23.0501C9.54299 23.2421 9.5649 23.4365 9.62884 23.6189C9.69277 23.8014 9.79708 23.967 9.93401 24.1037C10.0709 24.2403 10.2369 24.3444 10.4197 24.4082C10.6025 24.472 10.7974 24.4939 10.9898 24.4722ZM25.9682 21.2195C25.9828 21.0989 25.9828 20.977 25.9682 20.8564C25.9127 20.6911 25.7994 20.5512 25.6491 20.4623C25.4988 20.3734 25.3214 20.3415 25.1495 20.3723C24.971 20.3904 24.8052 20.4724 24.6826 20.6031C24.5599 20.7338 24.4889 20.9044 24.4825 21.0834V23.1409C24.489 23.3188 24.4584 23.4961 24.3927 23.6616C24.327 23.827 24.2276 23.9771 24.1007 24.1022C23.9739 24.2274 23.8224 24.3249 23.6558 24.3886C23.4893 24.4523 23.3114 24.4808 23.1332 24.4723H21.1927C21.0805 24.4498 20.9647 24.4524 20.8536 24.48C20.7426 24.5076 20.639 24.5594 20.5504 24.6318C20.4619 24.7042 20.3906 24.7953 20.3416 24.8985C20.2926 25.0017 20.2672 25.1145 20.2672 25.2288C20.2672 25.343 20.2926 25.4558 20.3416 25.559C20.3906 25.6622 20.4619 25.7533 20.5504 25.8257C20.639 25.8981 20.7426 25.9499 20.8536 25.9775C20.9647 26.0051 21.0805 26.0077 21.1927 25.9852H23.2544C23.8653 25.9773 24.4565 25.7683 24.9362 25.3908C25.4159 25.0133 25.7573 24.4883 25.9075 23.8974C25.9962 23.362 26.0469 22.8211 26.0591 22.2786L25.9682 21.2195ZM8.12399 13.2605C8.062 13.1279 8.0309 12.9831 8.03303 12.8369C8.02561 12.6517 8.02182 12.4702 8.0181 12.2923C8.01422 12.1067 8.01042 11.9252 8.00268 11.7476C8.00019 11.2418 8.03057 10.7365 8.09364 10.2346C8.22161 9.61228 8.55907 9.05234 9.04995 8.64778C9.54082 8.24323 10.1556 8.0184 10.7922 8.01065H12.8388C12.9434 8.00435 13.0482 8.01976 13.1466 8.05591C13.2449 8.09205 13.3346 8.14815 13.4101 8.22066C13.4856 8.29316 13.5452 8.3805 13.5852 8.47716C13.6251 8.57382 13.6446 8.6777 13.6423 8.78224C13.6445 8.88545 13.6254 8.988 13.5864 9.08359C13.5473 9.17917 13.4891 9.26576 13.4153 9.33804C13.3414 9.41032 13.2535 9.46676 13.157 9.50387C13.0605 9.54097 12.9573 9.55798 12.854 9.55383H10.9135C10.7322 9.54052 10.5502 9.5661 10.3796 9.62885C10.209 9.6916 10.0539 9.79006 9.92464 9.91762C9.79538 10.0452 9.69499 10.1989 9.63021 10.3684C9.56543 10.5379 9.53775 10.7193 9.54906 10.9003V12.9428C9.54038 13.1077 9.47787 13.2653 9.37103 13.3914C9.26419 13.5176 9.11885 13.6054 8.95732 13.6414C8.7958 13.6774 8.62692 13.6597 8.47644 13.5909C8.32596 13.5221 8.20218 13.4061 8.12399 13.2605Z"/>
</mask>
<path fill-rule="evenodd" clip-rule="evenodd" d="M21.1019 9.5542H23.0273C23.2165 9.53808 23.407 9.56341 23.5854 9.62843C23.7637 9.69344 23.9257 9.79655 24.06 9.93057C24.1943 10.0646 24.2976 10.2263 24.3628 10.4043C24.4279 10.5823 24.4533 10.7724 24.4372 10.9612V12.8372C24.4266 12.9427 24.4383 13.0493 24.4716 13.15C24.5049 13.2507 24.559 13.3433 24.6305 13.4217C24.702 13.5002 24.7892 13.5628 24.8865 13.6054C24.9838 13.6481 25.0889 13.6699 25.1952 13.6693C25.302 13.6696 25.4078 13.6479 25.5058 13.6054C25.6038 13.5629 25.6919 13.5006 25.7645 13.4224C25.8372 13.3442 25.8928 13.2518 25.9279 13.1511C25.9629 13.0504 25.9768 12.9435 25.9684 12.8372V11.7479V10.6738C25.9336 9.96049 25.6269 9.28747 25.1112 8.79246C24.5954 8.29745 23.9096 8.01789 23.194 8.01101H21.1777C21.1026 7.99633 21.0254 7.99633 20.9504 8.01101C20.7743 8.06063 20.6216 8.17096 20.5193 8.32236C20.4171 8.47377 20.3719 8.65645 20.3919 8.83793C20.4119 9.01941 20.4958 9.18793 20.6285 9.31353C20.7613 9.43914 20.9344 9.51369 21.1171 9.52393L21.1019 9.5542ZM26.4835 16.2868C26.3379 16.2636 26.1895 16.2636 26.0439 16.2868H7.65451C7.48237 16.3107 7.32367 16.3928 7.205 16.5195C7.08632 16.6462 7.01488 16.8097 7.00263 16.9827C6.98807 17.1585 7.03426 17.334 7.13356 17.4799C7.23287 17.6258 7.37927 17.7333 7.54838 17.7846C7.68944 17.8002 7.83185 17.8002 7.97291 17.7846H26.3168C26.4857 17.7685 26.644 17.6952 26.7654 17.5768C26.8867 17.4585 26.9638 17.3022 26.9838 17.134C27.0221 16.9559 26.9919 16.77 26.8992 16.6131C26.8066 16.4561 26.6582 16.3397 26.4835 16.2868ZM10.9898 24.4722H12.7939L12.809 24.4571C12.9212 24.4346 13.037 24.4372 13.1481 24.4648C13.2591 24.4924 13.3627 24.5442 13.4513 24.6166C13.5398 24.689 13.6111 24.7801 13.6601 24.8833C13.7091 24.9865 13.7345 25.0993 13.7345 25.2136C13.7345 25.3278 13.7091 25.4406 13.6601 25.5438C13.6111 25.647 13.5398 25.7381 13.4513 25.8105C13.3627 25.8829 13.2591 25.9347 13.1481 25.9623C13.037 25.9899 12.9212 25.9925 12.809 25.97H11.7781C11.3188 26.0003 10.8579 26.0003 10.3985 25.97C9.77111 25.8742 9.19565 25.5667 8.76802 25.0986C8.3404 24.6306 8.08648 24.0303 8.04869 23.398V21.1287C8.04441 21.0262 8.0615 20.924 8.09884 20.8284C8.13618 20.7329 8.19292 20.6461 8.26558 20.5736C8.33825 20.5011 8.42522 20.4444 8.52097 20.4071C8.61671 20.3698 8.7192 20.3528 8.82188 20.3571C8.92408 20.3589 9.02488 20.3814 9.11816 20.4231C9.21144 20.4649 9.29527 20.525 9.36466 20.5999C9.43406 20.6748 9.48759 20.7629 9.52197 20.859C9.55634 20.9551 9.57087 21.0571 9.56471 21.1589V23.0501C9.54299 23.2421 9.5649 23.4365 9.62884 23.6189C9.69277 23.8014 9.79708 23.967 9.93401 24.1037C10.0709 24.2403 10.2369 24.3444 10.4197 24.4082C10.6025 24.472 10.7974 24.4939 10.9898 24.4722ZM25.9682 21.2195C25.9828 21.0989 25.9828 20.977 25.9682 20.8564C25.9127 20.6911 25.7994 20.5512 25.6491 20.4623C25.4988 20.3734 25.3214 20.3415 25.1495 20.3723C24.971 20.3904 24.8052 20.4724 24.6826 20.6031C24.5599 20.7338 24.4889 20.9044 24.4825 21.0834V23.1409C24.489 23.3188 24.4584 23.4961 24.3927 23.6616C24.327 23.827 24.2276 23.9771 24.1007 24.1022C23.9739 24.2274 23.8224 24.3249 23.6558 24.3886C23.4893 24.4523 23.3114 24.4808 23.1332 24.4723H21.1927C21.0805 24.4498 20.9647 24.4524 20.8536 24.48C20.7426 24.5076 20.639 24.5594 20.5504 24.6318C20.4619 24.7042 20.3906 24.7953 20.3416 24.8985C20.2926 25.0017 20.2672 25.1145 20.2672 25.2288C20.2672 25.343 20.2926 25.4558 20.3416 25.559C20.3906 25.6622 20.4619 25.7533 20.5504 25.8257C20.639 25.8981 20.7426 25.9499 20.8536 25.9775C20.9647 26.0051 21.0805 26.0077 21.1927 25.9852H23.2544C23.8653 25.9773 24.4565 25.7683 24.9362 25.3908C25.4159 25.0133 25.7573 24.4883 25.9075 23.8974C25.9962 23.362 26.0469 22.8211 26.0591 22.2786L25.9682 21.2195ZM8.12399 13.2605C8.062 13.1279 8.0309 12.9831 8.03303 12.8369C8.02561 12.6517 8.02182 12.4702 8.0181 12.2923C8.01422 12.1067 8.01042 11.9252 8.00268 11.7476C8.00019 11.2418 8.03057 10.7365 8.09364 10.2346C8.22161 9.61228 8.55907 9.05234 9.04995 8.64778C9.54082 8.24323 10.1556 8.0184 10.7922 8.01065H12.8388C12.9434 8.00435 13.0482 8.01976 13.1466 8.05591C13.2449 8.09205 13.3346 8.14815 13.4101 8.22066C13.4856 8.29316 13.5452 8.3805 13.5852 8.47716C13.6251 8.57382 13.6446 8.6777 13.6423 8.78224C13.6445 8.88545 13.6254 8.988 13.5864 9.08359C13.5473 9.17917 13.4891 9.26576 13.4153 9.33804C13.3414 9.41032 13.2535 9.46676 13.157 9.50387C13.0605 9.54097 12.9573 9.55798 12.854 9.55383H10.9135C10.7322 9.54052 10.5502 9.5661 10.3796 9.62885C10.209 9.6916 10.0539 9.79006 9.92464 9.91762C9.79538 10.0452 9.69499 10.1989 9.63021 10.3684C9.56543 10.5379 9.53775 10.7193 9.54906 10.9003V12.9428C9.54038 13.1077 9.47787 13.2653 9.37103 13.3914C9.26419 13.5176 9.11885 13.6054 8.95732 13.6414C8.7958 13.6774 8.62692 13.6597 8.47644 13.5909C8.32596 13.5221 8.20218 13.4061 8.12399 13.2605Z" fill="white"/>
<path d="M23.0273 9.5542V9.8542H23.04L23.0528 9.85311L23.0273 9.5542ZM21.1019 9.5542L20.8337 9.41973L20.6159 9.8542H21.1019V9.5542ZM24.06 9.93057L23.8481 10.1429L23.8481 10.1429L24.06 9.93057ZM24.3628 10.4043L24.0811 10.5074L24.0811 10.5074L24.3628 10.4043ZM24.4372 10.9612L24.1383 10.9357L24.1372 10.9484V10.9612H24.4372ZM24.4372 12.8372L24.7357 12.8673L24.7372 12.8523V12.8372H24.4372ZM24.4716 13.15L24.1868 13.2442V13.2442L24.4716 13.15ZM24.6305 13.4217L24.8523 13.2197L24.8523 13.2197L24.6305 13.4217ZM24.8865 13.6054L24.766 13.8802L24.766 13.8802L24.8865 13.6054ZM25.1952 13.6693L25.1961 13.3693L25.1937 13.3693L25.1952 13.6693ZM25.5058 13.6054L25.3864 13.3302L25.3864 13.3302L25.5058 13.6054ZM25.9684 12.8372H25.6684V12.849L25.6693 12.8608L25.9684 12.8372ZM25.9684 10.6738H26.2684V10.6664L26.268 10.6591L25.9684 10.6738ZM25.1112 8.79246L24.9034 9.0089V9.0089L25.1112 8.79246ZM23.194 8.01101L23.1969 7.71101H23.194V8.01101ZM21.1777 8.01101L21.1201 8.30544L21.1486 8.31101H21.1777V8.01101ZM20.9504 8.01101L20.8928 7.71659L20.8808 7.71894L20.869 7.72226L20.9504 8.01101ZM20.5193 8.32236L20.2707 8.15447L20.2707 8.15447L20.5193 8.32236ZM20.3919 8.83793L20.0937 8.8708V8.8708L20.3919 8.83793ZM20.6285 9.31353L20.4224 9.53147L20.4224 9.53147L20.6285 9.31353ZM21.1171 9.52393L21.3853 9.6584L21.5901 9.24998L21.1339 9.2244L21.1171 9.52393ZM26.0439 16.2868V16.5868H26.0676L26.0911 16.5831L26.0439 16.2868ZM26.4835 16.2868L26.5704 15.9997L26.5509 15.9938L26.5307 15.9905L26.4835 16.2868ZM7.65451 16.2868V15.9868H7.63383L7.61334 15.9896L7.65451 16.2868ZM7.205 16.5195L7.42394 16.7246L7.42395 16.7246L7.205 16.5195ZM7.00263 16.9827L7.30163 17.0075L7.30188 17.0039L7.00263 16.9827ZM7.13356 17.4799L6.88556 17.6487H6.88556L7.13356 17.4799ZM7.54838 17.7846L7.46133 18.0717L7.48784 18.0797L7.51537 18.0828L7.54838 17.7846ZM7.97291 17.7846V17.4846H7.95636L7.93991 17.4864L7.97291 17.7846ZM26.3168 17.7846V18.0846H26.331L26.3452 18.0832L26.3168 17.7846ZM26.7654 17.5768L26.9748 17.7916L26.9748 17.7916L26.7654 17.5768ZM26.9838 17.134L26.6905 17.071L26.6876 17.0847L26.6859 17.0986L26.9838 17.134ZM26.8992 16.6131L27.1576 16.4605L27.1576 16.4605L26.8992 16.6131ZM12.7939 24.4722V24.7722H12.9179L13.0057 24.6847L12.7939 24.4722ZM10.9898 24.4722V24.1722H10.9729L10.9562 24.1741L10.9898 24.4722ZM12.809 24.4571L12.75 24.163L12.6613 24.1808L12.5972 24.2447L12.809 24.4571ZM13.1481 24.4648L13.2204 24.1737H13.2204L13.1481 24.4648ZM13.4513 24.6166L13.6411 24.3843L13.6411 24.3843L13.4513 24.6166ZM13.6601 24.8833L13.3891 25.0119L13.3891 25.0119L13.6601 24.8833ZM13.6601 25.5438L13.3891 25.4152L13.3891 25.4152L13.6601 25.5438ZM13.1481 25.9623L13.0757 25.6711H13.0757L13.1481 25.9623ZM12.809 25.97L12.868 25.6759L12.8388 25.67H12.809V25.97ZM11.7781 25.97V25.67H11.7683L11.7584 25.6707L11.7781 25.97ZM10.3985 25.97L10.3532 26.2666L10.366 26.2685L10.3788 26.2694L10.3985 25.97ZM8.04869 23.398H7.74869V23.407L7.74923 23.4159L8.04869 23.398ZM8.04869 21.1287H8.34895L8.34843 21.1161L8.04869 21.1287ZM8.09884 20.8284L8.37826 20.9376L8.37826 20.9376L8.09884 20.8284ZM8.52097 20.4071L8.62978 20.6867L8.62978 20.6867L8.52097 20.4071ZM8.82188 20.3571L8.80939 20.6569L8.81643 20.657L8.82188 20.3571ZM9.11816 20.4231L8.99566 20.697L8.99566 20.697L9.11816 20.4231ZM9.36466 20.5999L9.14459 20.8038L9.14459 20.8038L9.36466 20.5999ZM9.52197 20.859L9.23951 20.9601H9.23951L9.52197 20.859ZM9.56471 21.1589L9.26526 21.1408L9.26471 21.1499V21.1589H9.56471ZM9.56471 23.0501L9.86281 23.0838L9.86471 23.067V23.0501H9.56471ZM9.62884 23.6189L9.34573 23.7182H9.34573L9.62884 23.6189ZM9.93401 24.1037L10.1459 23.8913L10.1459 23.8913L9.93401 24.1037ZM10.4197 24.4082L10.3208 24.6915H10.3208L10.4197 24.4082ZM25.9682 20.8564L26.266 20.8203L26.2623 20.79L26.2526 20.761L25.9682 20.8564ZM25.9682 21.2195L25.6704 21.1834L25.6666 21.2143L25.6693 21.2452L25.9682 21.2195ZM25.1495 20.3723L25.1798 20.6707L25.1912 20.6696L25.2024 20.6676L25.1495 20.3723ZM24.6826 20.6031L24.9014 20.8084L24.9014 20.8084L24.6826 20.6031ZM24.4825 21.0834L24.1825 21.0726V21.0834H24.4825ZM24.4825 23.1409H24.1823L24.1827 23.1519L24.4825 23.1409ZM24.3927 23.6616L24.1138 23.5508L24.1138 23.5508L24.3927 23.6616ZM24.1007 24.1022L24.3114 24.3158L24.3114 24.3158L24.1007 24.1022ZM23.6558 24.3886L23.5487 24.1084H23.5487L23.6558 24.3886ZM23.1332 24.4723L23.1475 24.1726L23.1404 24.1723H23.1332V24.4723ZM21.1927 24.4723L21.1337 24.7664L21.1629 24.7723H21.1927V24.4723ZM20.8536 24.48L20.926 24.7712H20.926L20.8536 24.48ZM20.3416 24.8985L20.6126 25.0271L20.6126 25.0271L20.3416 24.8985ZM20.3416 25.559L20.6126 25.4304L20.6126 25.4304L20.3416 25.559ZM20.5504 25.8257L20.3606 26.058L20.3606 26.058L20.5504 25.8257ZM21.1927 25.9852V25.6852H21.1629L21.1337 25.6911L21.1927 25.9852ZM23.2544 25.9852V26.2852L23.2583 26.2852L23.2544 25.9852ZM25.9075 23.8974L26.1982 23.9713L26.2014 23.959L26.2034 23.9464L25.9075 23.8974ZM26.0591 22.2786L26.3591 22.2853L26.3594 22.2691L26.358 22.2529L26.0591 22.2786ZM8.03303 12.8369L8.333 12.8412L8.33312 12.833L8.33279 12.8248L8.03303 12.8369ZM8.12399 13.2605L7.85225 13.3876L7.85577 13.3951L7.8597 13.4024L8.12399 13.2605ZM8.0181 12.2923L7.71816 12.2985L8.0181 12.2923ZM8.00268 11.7476L7.70246 11.749L7.70297 11.7606L8.00268 11.7476ZM8.09364 10.2346L7.79979 10.1742L7.79744 10.1857L7.79598 10.1972L8.09364 10.2346ZM9.04995 8.64778L8.85915 8.41627L8.85915 8.41627L9.04995 8.64778ZM10.7922 8.01065V7.71063L10.7886 7.71067L10.7922 8.01065ZM12.8388 8.01065V8.31065H12.8478L12.8568 8.31011L12.8388 8.01065ZM13.1466 8.05591L13.2501 7.77433L13.2501 7.77433L13.1466 8.05591ZM13.4101 8.22066L13.6179 8.00427V8.00427L13.4101 8.22066ZM13.5852 8.47716L13.8624 8.36251L13.8624 8.36251L13.5852 8.47716ZM13.6423 8.78224L13.3421 8.77568L13.3424 8.7885L13.6423 8.78224ZM13.157 9.50387L13.0494 9.22385L13.0494 9.22385L13.157 9.50387ZM12.854 9.55383L12.866 9.25383H12.854V9.55383ZM10.9135 9.55383L10.8916 9.85303L10.9025 9.85383H10.9135V9.55383ZM10.3796 9.62885L10.4832 9.9104L10.3796 9.62885ZM9.92464 9.91762L10.1354 10.1312L10.1354 10.1312L9.92464 9.91762ZM9.63021 10.3684L9.91044 10.4755V10.4755L9.63021 10.3684ZM9.54906 10.9003H9.84906V10.891L9.84847 10.8816L9.54906 10.9003ZM9.54906 12.9428L9.84864 12.9585L9.84906 12.9506V12.9428H9.54906ZM8.95732 13.6414L9.02261 13.9342L8.95732 13.6414ZM8.47644 13.5909L8.60115 13.318L8.47644 13.5909ZM23.0273 9.2542H21.1019V9.8542H23.0273V9.2542ZM23.6881 9.34656C23.4687 9.26661 23.2345 9.23547 23.0018 9.25528L23.0528 9.85311C23.1985 9.8407 23.3452 9.86022 23.4826 9.91029L23.6881 9.34656ZM24.2719 9.71822C24.1067 9.55334 23.9074 9.42651 23.6881 9.34656L23.4826 9.91029C23.62 9.96037 23.7448 10.0398 23.8481 10.1429L24.2719 9.71822ZM24.6445 10.3012C24.5643 10.0821 24.4372 9.8831 24.2719 9.71822L23.8481 10.1429C23.9515 10.2461 24.031 10.3705 24.0811 10.5074L24.6445 10.3012ZM24.7361 10.9868C24.756 10.7543 24.7247 10.5203 24.6445 10.3012L24.0811 10.5074C24.1312 10.6443 24.1507 10.7905 24.1383 10.9357L24.7361 10.9868ZM24.7372 12.8372V10.9612H24.1372V12.8372H24.7372ZM24.7564 13.0558C24.7363 12.995 24.7293 12.9308 24.7357 12.8673L24.1387 12.8072C24.1238 12.9546 24.1403 13.1035 24.1868 13.2442L24.7564 13.0558ZM24.8523 13.2197C24.8092 13.1724 24.7765 13.1166 24.7564 13.0558L24.1868 13.2442C24.2333 13.3848 24.3088 13.5141 24.4087 13.6238L24.8523 13.2197ZM25.007 13.3307C24.9481 13.3049 24.8954 13.267 24.8523 13.2197L24.4087 13.6238C24.5086 13.7334 24.6304 13.8207 24.766 13.8802L25.007 13.3307ZM25.1937 13.3693C25.1294 13.3696 25.0658 13.3565 25.007 13.3307L24.766 13.8802C24.9018 13.9397 25.0485 13.9701 25.1967 13.9693L25.1937 13.3693ZM25.3864 13.3302C25.3265 13.3562 25.2616 13.3695 25.1961 13.3693L25.1943 13.9693C25.3425 13.9698 25.4892 13.9396 25.6252 13.8806L25.3864 13.3302ZM25.5448 13.2182C25.5003 13.266 25.4464 13.3041 25.3864 13.3302L25.6252 13.8806C25.7612 13.8216 25.8835 13.7351 25.9843 13.6266L25.5448 13.2182ZM25.6446 13.0524C25.6231 13.114 25.5891 13.1704 25.5448 13.2182L25.9843 13.6266C26.0852 13.518 26.1624 13.3897 26.2112 13.2498L25.6446 13.0524ZM25.6693 12.8608C25.6744 12.9256 25.666 12.9909 25.6446 13.0524L26.2112 13.2498C26.2599 13.1099 26.2791 12.9614 26.2675 12.8136L25.6693 12.8608ZM25.6684 11.7479V12.8372H26.2684V11.7479H25.6684ZM25.6684 10.6738V11.7479H26.2684V10.6738H25.6684ZM24.9034 9.0089C25.364 9.45091 25.6377 10.0517 25.6687 10.6884L26.268 10.6591C26.2295 9.86924 25.8899 9.12403 25.3189 8.57602L24.9034 9.0089ZM23.1912 8.311C23.8303 8.31714 24.4429 8.56688 24.9034 9.0089L25.3189 8.57602C24.748 8.02803 23.9888 7.71864 23.1969 7.71103L23.1912 8.311ZM21.1777 8.31101H23.194V7.71101H21.1777V8.31101ZM21.0079 8.30544C21.045 8.29819 21.0831 8.29819 21.1201 8.30544L21.2353 7.71659C21.1222 7.69447 21.0059 7.69447 20.8928 7.71659L21.0079 8.30544ZM20.768 8.49026C20.8305 8.39771 20.9239 8.33016 21.0317 8.29976L20.869 7.72226C20.6247 7.79111 20.4127 7.94421 20.2707 8.15447L20.768 8.49026ZM20.6901 8.80506C20.6779 8.69436 20.7055 8.58281 20.768 8.49026L20.2707 8.15447C20.1287 8.36472 20.0659 8.61853 20.0937 8.8708L20.6901 8.80506ZM20.8347 9.0956C20.7535 9.01879 20.7023 8.91584 20.6901 8.80506L20.0937 8.8708C20.1215 9.12298 20.238 9.35706 20.4224 9.53147L20.8347 9.0956ZM21.1339 9.2244C21.0219 9.21812 20.9159 9.17243 20.8347 9.0956L20.4224 9.53147C20.6067 9.70585 20.8469 9.80925 21.1003 9.82346L21.1339 9.2244ZM21.3701 9.68866L21.3853 9.6584L20.8489 9.38947L20.8337 9.41973L21.3701 9.68866ZM26.0911 16.5831C26.2054 16.5649 26.3219 16.5649 26.4363 16.5831L26.5307 15.9905C26.3538 15.9624 26.1736 15.9624 25.9967 15.9905L26.0911 16.5831ZM7.65451 16.5868H26.0439V15.9868H7.65451V16.5868ZM7.42395 16.7246C7.4956 16.6481 7.59152 16.5984 7.69568 16.584L7.61334 15.9896C7.37323 16.0229 7.15175 16.1375 6.98605 16.3144L7.42395 16.7246ZM7.30188 17.0039C7.30927 16.8997 7.35231 16.8011 7.42394 16.7246L6.98605 16.3144C6.82033 16.4913 6.7205 16.7198 6.70338 16.9616L7.30188 17.0039ZM7.38157 17.3111C7.32091 17.222 7.29272 17.1148 7.30161 17.0075L6.70366 16.958C6.68342 17.2022 6.74761 17.446 6.88556 17.6487L7.38157 17.3111ZM7.63543 17.4975C7.53181 17.4661 7.44225 17.4002 7.38157 17.3111L6.88556 17.6487C7.02349 17.8513 7.22673 18.0006 7.46133 18.0717L7.63543 17.4975ZM7.93991 17.4864C7.82078 17.4996 7.70051 17.4996 7.58138 17.4864L7.51537 18.0828C7.67837 18.1008 7.84291 18.1008 8.00591 18.0828L7.93991 17.4864ZM26.3168 17.4846H7.97291V18.0846H26.3168V17.4846ZM26.5559 17.362C26.4836 17.4326 26.3892 17.4763 26.2883 17.4859L26.3452 18.0832C26.5822 18.0607 26.8044 17.9578 26.9748 17.7916L26.5559 17.362ZM26.6859 17.0986C26.674 17.1985 26.6282 17.2915 26.5559 17.362L26.9748 17.7916C27.1452 17.6254 27.2536 17.4058 27.2817 17.1695L26.6859 17.0986ZM26.6409 16.7656C26.6953 16.8576 26.7129 16.9666 26.6905 17.071L27.2771 17.1971C27.3312 16.9452 27.2885 16.6823 27.1576 16.4605L26.6409 16.7656ZM26.3966 16.5739C26.4994 16.6051 26.5866 16.6735 26.6409 16.7656L27.1576 16.4605C27.0266 16.2387 26.8169 16.0743 26.5704 15.9997L26.3966 16.5739ZM12.7939 24.1722H10.9898V24.7722H12.7939V24.1722ZM12.5972 24.2447L12.582 24.2598L13.0057 24.6847L13.0209 24.6695L12.5972 24.2447ZM13.2204 24.1737C13.0663 24.1354 12.9057 24.1317 12.75 24.163L12.868 24.7512C12.9368 24.7374 13.0077 24.7391 13.0757 24.756L13.2204 24.1737ZM13.6411 24.3843C13.5182 24.2838 13.3744 24.2119 13.2204 24.1737L13.0757 24.756C13.1438 24.7729 13.2073 24.8047 13.2614 24.8489L13.6411 24.3843ZM13.9312 24.7547C13.8631 24.6113 13.7641 24.4848 13.6411 24.3843L13.2614 24.8489C13.3156 24.8931 13.3591 24.9488 13.3891 25.0119L13.9312 24.7547ZM14.0345 25.2136C14.0345 25.0548 13.9992 24.8981 13.9312 24.7547L13.3891 25.0119C13.419 25.075 13.4345 25.1438 13.4345 25.2136H14.0345ZM13.9312 25.6724C13.9992 25.529 14.0345 25.3723 14.0345 25.2136H13.4345C13.4345 25.2833 13.419 25.3521 13.3891 25.4152L13.9312 25.6724ZM13.6411 26.0428C13.7641 25.9423 13.8631 25.8158 13.9312 25.6724L13.3891 25.4152C13.3591 25.4783 13.3156 25.534 13.2614 25.5782L13.6411 26.0428ZM13.2204 26.2535C13.3744 26.2152 13.5182 26.1433 13.6411 26.0428L13.2614 25.5782C13.2073 25.6225 13.1438 25.6542 13.0757 25.6711L13.2204 26.2535ZM12.75 26.2642C12.9057 26.2954 13.0663 26.2917 13.2204 26.2535L13.0757 25.6711C13.0077 25.6881 12.9368 25.6897 12.868 25.6759L12.75 26.2642ZM11.7781 26.27H12.809V25.67H11.7781V26.27ZM10.3788 26.2694C10.8513 26.3005 11.3254 26.3005 11.7979 26.2694L11.7584 25.6707C11.3122 25.7 10.8645 25.7 10.4182 25.6707L10.3788 26.2694ZM8.54654 25.301C9.02046 25.8197 9.65813 26.1604 10.3532 26.2666L10.4438 25.6734C9.8841 25.588 9.37084 25.3136 8.98951 24.8962L8.54654 25.301ZM7.74923 23.4159C7.79112 24.1169 8.07261 24.7822 8.54654 25.301L8.98951 24.8962C8.60818 24.4789 8.38184 23.9437 8.34816 23.3801L7.74923 23.4159ZM7.74869 21.1287V23.398H8.34869V21.1287H7.74869ZM7.81942 20.7192C7.76697 20.8534 7.74293 20.9971 7.74895 21.1412L8.34843 21.1161C8.34589 21.0553 8.35603 20.9945 8.37826 20.9376L7.81942 20.7192ZM8.05367 20.3612C7.95154 20.4631 7.87185 20.5851 7.81942 20.7192L8.37826 20.9376C8.40052 20.8807 8.43429 20.829 8.4775 20.7859L8.05367 20.3612ZM8.41216 20.1275C8.27781 20.1798 8.15572 20.2594 8.05367 20.3612L8.4775 20.7859C8.52078 20.7427 8.57263 20.7089 8.62978 20.6867L8.41216 20.1275ZM8.83436 20.0574C8.69033 20.0514 8.54654 20.0752 8.41216 20.1275L8.62978 20.6867C8.68688 20.6645 8.74807 20.6543 8.8094 20.6568L8.83436 20.0574ZM9.24066 20.1493C9.11049 20.0911 8.96988 20.0597 8.82732 20.0571L8.81643 20.657C8.87829 20.6582 8.93927 20.6718 8.99566 20.697L9.24066 20.1493ZM9.58474 20.396C9.48786 20.2914 9.37085 20.2075 9.24066 20.1493L8.99566 20.697C9.05204 20.7222 9.10267 20.7585 9.14459 20.8038L9.58474 20.396ZM9.80442 20.7579C9.75637 20.6237 9.6816 20.5006 9.58474 20.396L9.14459 20.8038C9.18652 20.849 9.2188 20.9022 9.23951 20.9601L9.80442 20.7579ZM9.86417 21.177C9.87276 21.0348 9.85248 20.8922 9.80442 20.7579L9.23951 20.9601C9.26021 21.0179 9.26897 21.0794 9.26526 21.1408L9.86417 21.177ZM9.86471 23.0501V21.1589H9.26471V23.0501H9.86471ZM9.91195 23.5197C9.86296 23.3799 9.84617 23.2309 9.86281 23.0838L9.26662 23.0164C9.23981 23.2533 9.26685 23.4932 9.34573 23.7182L9.91195 23.5197ZM10.1459 23.8913C10.0409 23.7865 9.96095 23.6595 9.91195 23.5197L9.34573 23.7182C9.4246 23.9432 9.55326 24.1475 9.72209 24.316L10.1459 23.8913ZM10.5186 24.125C10.3783 24.076 10.251 23.9961 10.1459 23.8913L9.72209 24.316C9.89091 24.4845 10.0955 24.6128 10.3208 24.6915L10.5186 24.125ZM10.9562 24.1741C10.8085 24.1908 10.6589 24.174 10.5186 24.125L10.3208 24.6915C10.5461 24.7701 10.7862 24.7971 11.0234 24.7703L10.9562 24.1741ZM25.6704 20.8925C25.6821 20.9891 25.6821 21.0868 25.6704 21.1834L26.266 21.2556C26.2835 21.111 26.2835 20.9649 26.266 20.8203L25.6704 20.8925ZM25.4964 20.7205C25.5848 20.7728 25.6512 20.8549 25.6838 20.9519L26.2526 20.761C26.1741 20.5272 26.0141 20.3296 25.8018 20.2041L25.4964 20.7205ZM25.2024 20.6676C25.3036 20.6494 25.408 20.6683 25.4964 20.7205L25.8018 20.2041C25.5896 20.0786 25.3392 20.0335 25.0965 20.077L25.2024 20.6676ZM24.9014 20.8084C24.9744 20.7305 25.0733 20.6816 25.1798 20.6707L25.1191 20.0738C24.8687 20.0993 24.6359 20.2144 24.4638 20.3979L24.9014 20.8084ZM24.7823 21.0941C24.7861 20.9877 24.8284 20.8862 24.9014 20.8084L24.4638 20.3979C24.2915 20.5815 24.1917 20.8212 24.1827 21.0726L24.7823 21.0941ZM24.7825 23.1409V21.0834H24.1825V23.1409H24.7825ZM24.6715 23.7723C24.7525 23.5682 24.7903 23.3495 24.7823 23.13L24.1827 23.1519C24.1877 23.2881 24.1642 23.4239 24.1138 23.5508L24.6715 23.7723ZM24.3114 24.3158C24.4678 24.1614 24.5904 23.9764 24.6715 23.7723L24.1138 23.5508C24.0635 23.6777 23.9873 23.7927 23.89 23.8887L24.3114 24.3158ZM23.763 24.6688C23.9682 24.5903 24.155 24.4701 24.3114 24.3158L23.89 23.8887C23.7928 23.9846 23.6765 24.0595 23.5487 24.1084L23.763 24.6688ZM23.1189 24.772C23.3385 24.7824 23.5578 24.7473 23.763 24.6688L23.5487 24.1084C23.4208 24.1573 23.2843 24.1792 23.1475 24.1726L23.1189 24.772ZM21.1927 24.7723H23.1332V24.1723H21.1927V24.7723ZM20.926 24.7712C20.994 24.7543 21.0649 24.7526 21.1337 24.7664L21.2517 24.1782C21.096 24.1469 20.9354 24.1506 20.7813 24.1889L20.926 24.7712ZM20.7403 24.8641C20.7944 24.8199 20.8578 24.7881 20.926 24.7712L20.7813 24.1889C20.6273 24.2271 20.4835 24.299 20.3606 24.3995L20.7403 24.8641ZM20.6126 25.0271C20.6425 24.964 20.6861 24.9083 20.7403 24.8641L20.3606 24.3995C20.2376 24.5 20.1386 24.6265 20.0705 24.7699L20.6126 25.0271ZM20.5672 25.2288C20.5672 25.159 20.5827 25.0902 20.6126 25.0271L20.0705 24.7699C20.0025 24.9133 19.9672 25.07 19.9672 25.2288H20.5672ZM20.6126 25.4304C20.5827 25.3673 20.5672 25.2985 20.5672 25.2288H19.9672C19.9672 25.3875 20.0025 25.5442 20.0705 25.6876L20.6126 25.4304ZM20.7403 25.5934C20.6861 25.5492 20.6425 25.4935 20.6126 25.4304L20.0705 25.6876C20.1386 25.831 20.2376 25.9575 20.3606 26.058L20.7403 25.5934ZM20.926 25.6863C20.8579 25.6694 20.7944 25.6376 20.7403 25.5934L20.3606 26.058C20.4835 26.1585 20.6273 26.2304 20.7813 26.2686L20.926 25.6863ZM21.1337 25.6911C21.0649 25.7049 20.994 25.7032 20.926 25.6863L20.7813 26.2686C20.9354 26.3069 21.096 26.3106 21.2517 26.2794L21.1337 25.6911ZM23.2544 25.6852H21.1927V26.2852H23.2544V25.6852ZM24.7507 25.1551C24.3228 25.4917 23.7955 25.6781 23.2505 25.6852L23.2583 26.2852C23.9351 26.2764 24.5901 26.0449 25.1217 25.6266L24.7507 25.1551ZM25.6167 23.8235C25.4829 24.3503 25.1785 24.8184 24.7507 25.1551L25.1217 25.6266C25.6533 25.2082 26.0318 24.6264 26.1982 23.9713L25.6167 23.8235ZM25.7592 22.2718C25.7473 22.8001 25.698 23.3269 25.6115 23.8483L26.2034 23.9464C26.2945 23.3971 26.3465 22.842 26.3591 22.2853L25.7592 22.2718ZM25.6693 21.2452L25.7602 22.3042L26.358 22.2529L26.2671 21.1938L25.6693 21.2452ZM7.73307 12.8325C7.73028 13.0242 7.77103 13.2139 7.85225 13.3876L8.39574 13.1334C8.35297 13.0419 8.33153 12.9421 8.333 12.8412L7.73307 12.8325ZM7.71816 12.2985C7.72187 12.476 7.72572 12.6604 7.73327 12.8489L8.33279 12.8248C8.32551 12.643 8.32176 12.4643 8.31803 12.286L7.71816 12.2985ZM7.70297 11.7606C7.71053 11.9343 7.71427 12.1124 7.71816 12.2985L8.31803 12.286C8.31417 12.1011 8.31031 11.9161 8.3024 11.7345L7.70297 11.7606ZM7.79598 10.1972C7.73129 10.7119 7.70013 11.2303 7.70269 11.749L8.30268 11.7461C8.30025 11.2533 8.32985 10.761 8.3913 10.2721L7.79598 10.1972ZM8.85915 8.41627C8.31546 8.86436 7.94158 9.48465 7.79979 10.1742L8.38749 10.2951C8.50164 9.73992 8.80268 9.24032 9.24075 8.87929L8.85915 8.41627ZM10.7886 7.71067C10.0837 7.71925 9.40283 7.9682 8.85915 8.41627L9.24075 8.87929C9.67881 8.51826 10.2276 8.31755 10.7959 8.31063L10.7886 7.71067ZM12.8388 7.71065H10.7922V8.31065H12.8388V7.71065ZM13.2501 7.77433C13.1129 7.7239 12.9667 7.70241 12.8208 7.71119L12.8568 8.31011C12.9201 8.3063 12.9836 8.31563 13.043 8.33749L13.2501 7.77433ZM13.6179 8.00427C13.5125 7.90308 13.3873 7.82478 13.2501 7.77433L13.043 8.33749C13.1025 8.35933 13.1567 8.39322 13.2023 8.43704L13.6179 8.00427ZM13.8624 8.36251C13.8066 8.22751 13.7233 8.10553 13.6179 8.00427L13.2023 8.43704C13.2479 8.4808 13.2838 8.53349 13.3079 8.59181L13.8624 8.36251ZM13.9423 8.7888C13.9455 8.64263 13.9182 8.49748 13.8624 8.36251L13.3079 8.5918C13.3321 8.65015 13.3438 8.71277 13.3424 8.77568L13.9423 8.7888ZM13.8641 9.19705C13.9186 9.06359 13.9453 8.92029 13.9423 8.77599L13.3424 8.7885C13.3437 8.8506 13.3322 8.91241 13.3086 8.97012L13.8641 9.19705ZM13.6251 9.55244C13.7283 9.45147 13.8095 9.33051 13.8641 9.19705L13.3086 8.97012C13.2851 9.02783 13.25 9.08006 13.2054 9.12365L13.6251 9.55244ZM13.2647 9.78388C13.3994 9.7321 13.522 9.65335 13.6251 9.55244L13.2054 9.12365C13.1608 9.1673 13.1077 9.20141 13.0494 9.22385L13.2647 9.78388ZM12.8419 9.85359C12.9861 9.85938 13.13 9.83566 13.2647 9.78388L13.0494 9.22385C12.991 9.24629 12.9286 9.25659 12.866 9.25407L12.8419 9.85359ZM10.9135 9.85383H12.854V9.25383H10.9135V9.85383ZM10.4832 9.9104C10.6136 9.86241 10.7529 9.84285 10.8916 9.85303L10.9355 9.25464C10.7116 9.2382 10.4867 9.26979 10.276 9.3473L10.4832 9.9104ZM10.1354 10.1312C10.2341 10.0337 10.3527 9.95839 10.4832 9.9104L10.276 9.3473C10.0654 9.4248 9.87366 9.54644 9.71392 9.70409L10.1354 10.1312ZM9.91044 10.4755C9.95991 10.346 10.0366 10.2286 10.1354 10.1312L9.71392 9.70409C9.55418 9.86173 9.43007 10.0517 9.34998 10.2613L9.91044 10.4755ZM9.84847 10.8816C9.83984 10.7434 9.86097 10.6049 9.91044 10.4755L9.34998 10.2613C9.26989 10.4708 9.23565 10.6951 9.24964 10.919L9.84847 10.8816ZM9.84906 12.9428V10.9003H9.24906V12.9428H9.84906ZM9.59995 13.5853C9.74917 13.4091 9.83652 13.189 9.84864 12.9585L9.24947 12.927C9.24424 13.0264 9.20657 13.1214 9.14211 13.1975L9.59995 13.5853ZM9.02261 13.9342C9.2479 13.884 9.45074 13.7615 9.59995 13.5853L9.14211 13.1975C9.07763 13.2737 8.9898 13.3268 8.89204 13.3486L9.02261 13.9342ZM8.35173 13.8637C8.56169 13.9597 8.79728 13.9844 9.02261 13.9342L8.89204 13.3486C8.79431 13.3703 8.69215 13.3596 8.60115 13.318L8.35173 13.8637ZM7.8597 13.4024C7.96892 13.6058 8.14176 13.7678 8.35173 13.8637L8.60115 13.318C8.51017 13.2764 8.43544 13.2063 8.38828 13.1185L7.8597 13.4024Z" fill="white" mask="url(#path-1-outside-1_192_6510)"/>
</svg>
