<svg width="34" height="34" viewBox="0 0 34 34" fill="none" xmlns="http://www.w3.org/2000/svg">
<path fill-rule="evenodd" clip-rule="evenodd" d="M26.3702 9.87032C26.302 9.44616 26.0747 9.06386 25.7346 8.80114C25.3945 8.53842 24.9669 8.41499 24.539 8.45594H10.2121C9.97132 8.43993 9.73 8.4756 9.50417 8.56055C9.27833 8.64549 9.07335 8.77775 8.90289 8.94844C8.73243 9.11913 8.60047 9.3243 8.51591 9.55017C8.43135 9.77603 8.39603 10.0174 8.41251 10.258V16.9562V17.1168C8.41894 17.1956 8.44191 17.2721 8.47991 17.3414C8.51791 17.4107 8.57016 17.4712 8.63313 17.519C8.69611 17.5668 8.76839 17.6007 8.84539 17.6187C8.92239 17.6367 9.00236 17.6382 9.08 17.6232C9.21917 17.5953 9.34284 17.5164 9.42687 17.4021C9.5109 17.2877 9.54917 17.1462 9.5342 17.0051V10.251C9.5342 9.79 9.74392 9.58046 10.2087 9.58046H24.581C25.0597 9.58046 25.2799 9.78301 25.2799 10.2789V24.6288C25.2799 25.1107 25.0772 25.3272 24.581 25.3272H17.739C17.6526 25.3311 17.5685 25.3549 17.4928 25.3966C17.4171 25.4384 17.3521 25.497 17.3027 25.5679C17.2534 25.6389 17.221 25.7202 17.2082 25.8057C17.1954 25.8911 17.2024 25.9783 17.2288 26.0606C17.3008 26.2342 17.4375 26.3731 17.6098 26.4482H24.948C25.1984 26.3604 25.4413 26.253 25.6747 26.1269C25.857 26.0109 26.0131 25.8581 26.1328 25.6783C26.2526 25.4984 26.3334 25.2956 26.3702 25.0828C26.3702 25.0594 26.3805 25.0373 26.3909 25.015L26.3909 25.015C26.3977 25.0006 26.4045 24.9861 26.4086 24.971V9.89477C26.4086 9.89477 26.3877 9.8808 26.3702 9.87032ZM14.6535 18.566H10.0758C9.64311 18.5723 9.2299 18.7469 8.92391 19.0527C8.61792 19.3585 8.44327 19.7714 8.43695 20.2039V24.7788C8.4336 25.0918 8.5226 25.3988 8.69289 25.6616C8.86318 25.9243 9.10712 26.1311 9.39432 26.256C9.54927 26.3212 9.70792 26.3772 9.86951 26.4236H14.8526C14.8828 26.4089 14.9144 26.3972 14.9469 26.3887C15.3198 26.3127 15.6557 26.1124 15.8995 25.8204C16.1434 25.5285 16.2805 25.1624 16.2887 24.7823V20.2039C16.2824 19.772 16.1082 19.3596 15.803 19.0539C15.4977 18.7482 15.0855 18.5732 14.6535 18.566ZM15.1706 24.6915C15.1782 24.7735 15.1675 24.8561 15.1394 24.9335C15.1113 25.0109 15.0665 25.0812 15.008 25.1393C14.9496 25.1973 14.879 25.2418 14.8014 25.2694C14.7238 25.297 14.6411 25.3072 14.5591 25.2991H10.1702C10.0881 25.3065 10.0055 25.2959 9.92803 25.268C9.85055 25.2402 9.77996 25.1958 9.72141 25.138C9.66285 25.0801 9.61774 25.0102 9.589 24.9331C9.56027 24.8559 9.54862 24.7735 9.55505 24.6915V20.3051C9.54739 20.2214 9.55847 20.1371 9.5873 20.0581C9.61613 19.9792 9.66195 19.9076 9.72175 19.8485C9.78155 19.7894 9.85383 19.7442 9.93315 19.7163C10.0125 19.6884 10.0969 19.6784 10.1806 19.687H14.5485C14.6322 19.6776 14.717 19.6872 14.7964 19.7149C14.8759 19.7426 14.9482 19.7877 15.0079 19.8471C15.0675 19.9064 15.1131 19.9783 15.1413 20.0576C15.1694 20.1369 15.1795 20.2215 15.1706 20.3051C15.1823 21.7649 15.188 23.227 15.188 24.6915H15.1706ZM21.1879 14.4664L17.8649 17.7911C17.793 17.8762 17.6979 17.9386 17.5912 17.9708C17.4845 18.0031 17.3708 18.0037 17.2638 17.9727C17.1764 17.948 17.0965 17.9022 17.031 17.8392C16.9656 17.7763 16.9167 17.6981 16.8887 17.6118C16.8607 17.5254 16.8544 17.4335 16.8705 17.3442C16.8865 17.2548 16.9244 17.1709 16.9807 17.0996C17.0213 17.0497 17.0657 17.003 17.1134 16.9599C18.2014 15.8657 19.2928 14.7738 20.3877 13.6842C20.4346 13.6397 20.4849 13.5988 20.538 13.5619L20.5136 13.5095H19.7308C19.6534 13.5157 19.5757 13.5057 19.5023 13.4803C19.429 13.4549 19.3616 13.4146 19.3046 13.362C19.2476 13.3093 19.2023 13.2455 19.1712 13.1744C19.1401 13.1033 19.1239 13.0266 19.1239 12.949C19.1239 12.8715 19.1401 12.7947 19.1712 12.7237C19.2023 12.6526 19.2476 12.5887 19.3046 12.5361C19.3616 12.4835 19.429 12.4432 19.5023 12.4178C19.5757 12.3924 19.6534 12.3824 19.7308 12.3885H21.8588C21.9412 12.3811 22.0242 12.3918 22.102 12.4198C22.1797 12.4478 22.2503 12.4925 22.3089 12.5508C22.3676 12.609 22.4127 12.6794 22.4412 12.757C22.4697 12.8345 22.4809 12.9174 22.4739 12.9997V15.1335C22.48 15.2108 22.47 15.2886 22.4446 15.3618C22.4192 15.4351 22.3788 15.5024 22.3262 15.5594C22.2735 15.6163 22.2096 15.6618 22.1385 15.6929C22.0674 15.724 21.9907 15.74 21.9131 15.74C21.8355 15.74 21.7586 15.724 21.6875 15.6929C21.6164 15.6618 21.5525 15.6163 21.4998 15.5594C21.4472 15.5024 21.4068 15.4351 21.3814 15.3618C21.356 15.2886 21.3461 15.2108 21.3523 15.1335V14.3163C21.3299 14.3365 21.3101 14.3541 21.2922 14.3701C21.2512 14.4067 21.2195 14.4349 21.1879 14.4664Z" fill="white"/>
<path d="M25.7346 8.80114L25.8874 8.60329V8.60329L25.7346 8.80114ZM26.3702 9.87032L26.1234 9.91001L26.1418 10.0249L26.2416 10.0847L26.3702 9.87032ZM24.539 8.45594V8.70594H24.551L24.5629 8.7048L24.539 8.45594ZM10.2121 8.45594L10.1955 8.70539L10.2038 8.70594H10.2121V8.45594ZM9.50417 8.56055L9.41615 8.32655V8.32655L9.50417 8.56055ZM8.90289 8.94844L8.72599 8.77178V8.77178L8.90289 8.94844ZM8.51591 9.55017L8.75004 9.63782L8.51591 9.55017ZM8.41251 10.258H8.66251V10.2494L8.66193 10.2409L8.41251 10.258ZM8.41251 17.1168H8.16251V17.127L8.16334 17.1372L8.41251 17.1168ZM8.47991 17.3414L8.69911 17.2212L8.69911 17.2212L8.47991 17.3414ZM8.63313 17.519L8.48202 17.7182H8.48202L8.63313 17.519ZM8.84539 17.6187L8.90217 17.3752H8.90217L8.84539 17.6187ZM9.08 17.6232L9.12738 17.8687L9.12919 17.8683L9.08 17.6232ZM9.42687 17.4021L9.62832 17.5501H9.62832L9.42687 17.4021ZM9.5342 17.0051H9.2842V17.0183L9.28559 17.0315L9.5342 17.0051ZM17.739 25.3272V25.077L17.7277 25.0775L17.739 25.3272ZM17.4928 25.3966L17.6135 25.6155H17.6135L17.4928 25.3966ZM17.3027 25.5679L17.0975 25.4252L17.0975 25.4252L17.3027 25.5679ZM17.2288 26.0606L16.9908 26.137L16.9939 26.1468L16.9979 26.1564L17.2288 26.0606ZM17.6098 26.4482L17.51 26.6774L17.5577 26.6982H17.6098V26.4482ZM24.948 26.4482V26.6982H24.9906L25.0308 26.6842L24.948 26.4482ZM25.6747 26.1269L25.7935 26.3469L25.8014 26.3427L25.809 26.3378L25.6747 26.1269ZM26.1328 25.6783L25.9248 25.5397L25.9248 25.5397L26.1328 25.6783ZM26.3702 25.0828L26.6165 25.1253L26.6202 25.1042V25.0828H26.3702ZM26.3909 25.015L26.6174 25.1209L26.6204 25.1144L26.6231 25.1078L26.3909 25.015ZM26.3909 25.015L26.1645 24.9091L26.1615 24.9155L26.1588 24.9221L26.3909 25.015ZM26.4086 24.971L26.6497 25.0368L26.6586 25.0045V24.971H26.4086ZM26.4086 9.89477H26.6586V9.76112L26.5474 9.68688L26.4086 9.89477ZM10.0758 18.566V18.3159L10.0721 18.316L10.0758 18.566ZM14.6535 18.566L14.6576 18.316H14.6535V18.566ZM8.92391 19.0527L8.74719 18.8758H8.74719L8.92391 19.0527ZM8.43695 20.2039L8.18695 20.2002V20.2039H8.43695ZM8.43695 24.7788L8.68695 24.7814V24.7788H8.43695ZM8.69289 25.6616L8.4831 25.7976H8.4831L8.69289 25.6616ZM9.39432 26.256L9.2946 26.4853L9.29732 26.4864L9.39432 26.256ZM9.86951 26.4236L9.80048 26.6639L9.83431 26.6736H9.86951V26.4236ZM14.8526 26.4236V26.6736H14.9101L14.9618 26.6485L14.8526 26.4236ZM14.9469 26.3887L14.8969 26.1433L14.8834 26.1469L14.9469 26.3887ZM15.8995 25.8204L15.7077 25.6602H15.7077L15.8995 25.8204ZM16.2887 24.7823L16.5387 24.7876V24.7823H16.2887ZM16.2887 20.2039H16.5388L16.5387 20.2002L16.2887 20.2039ZM15.803 19.0539L15.9799 18.8772H15.9799L15.803 19.0539ZM15.1394 24.9335L14.9044 24.8482L14.9044 24.8483L15.1394 24.9335ZM15.1706 24.6915V24.4415H14.8964L14.9217 24.7145L15.1706 24.6915ZM15.008 25.1393L14.8318 24.9619L14.8318 24.9619L15.008 25.1393ZM14.5591 25.2991L14.5836 25.0503L14.5714 25.0491H14.5591V25.2991ZM10.1702 25.2991V25.0491H10.159L10.1478 25.0501L10.1702 25.2991ZM9.92803 25.268L10.0126 25.0327H10.0126L9.92803 25.268ZM9.72141 25.138L9.5457 25.3158L9.5457 25.3158L9.72141 25.138ZM9.589 24.9331L9.35474 25.0203L9.35474 25.0203L9.589 24.9331ZM9.55505 24.6915L9.80429 24.711L9.80505 24.7012V24.6915H9.55505ZM9.55505 20.3051H9.80505V20.2937L9.80401 20.2823L9.55505 20.3051ZM10.1806 19.687L10.155 19.9357L10.1677 19.937H10.1806V19.687ZM14.5485 19.687V19.937H14.5625L14.5763 19.9354L14.5485 19.687ZM14.7964 19.7149L14.7142 19.9509H14.7142L14.7964 19.7149ZM15.0079 19.8471L15.1841 19.6697L15.1841 19.6697L15.0079 19.8471ZM15.1413 20.0576L14.9057 20.1413L14.9057 20.1413L15.1413 20.0576ZM15.1706 20.3051L14.922 20.2787L14.9205 20.2929L14.9206 20.3071L15.1706 20.3051ZM15.188 24.6915V24.9415H15.438V24.6915H15.188ZM17.8649 17.7911L17.688 17.6144L17.6807 17.6218L17.6739 17.6297L17.8649 17.7911ZM21.1879 14.4664L21.0112 14.2896L21.0111 14.2897L21.1879 14.4664ZM17.5912 17.9708L17.5189 17.7315H17.5189L17.5912 17.9708ZM17.2638 17.9727L17.3333 17.7326L17.3317 17.7321L17.2638 17.9727ZM17.031 17.8392L16.8577 18.0194L16.8577 18.0194L17.031 17.8392ZM16.8887 17.6118L16.6509 17.6889L16.6509 17.6889L16.8887 17.6118ZM16.8705 17.3442L16.6244 17.3L16.8705 17.3442ZM16.9807 17.0996L16.7868 16.9418L16.7846 16.9446L16.9807 17.0996ZM17.1134 16.9599L17.2811 17.1459L17.2907 17.1362L17.1134 16.9599ZM20.3877 13.6842L20.2156 13.5027L20.2114 13.507L20.3877 13.6842ZM20.538 13.5619L20.6806 13.7673L20.8535 13.6472L20.7647 13.4564L20.538 13.5619ZM20.5136 13.5095L20.7403 13.404L20.673 13.2595H20.5136V13.5095ZM19.7308 13.5095V13.2595H19.721L19.7111 13.2603L19.7308 13.5095ZM19.5023 13.4803L19.4205 13.7165L19.4205 13.7165L19.5023 13.4803ZM19.3046 13.362L19.135 13.5456L19.135 13.5456L19.3046 13.362ZM19.1712 13.1744L19.4002 13.0741L19.4002 13.0741L19.1712 13.1744ZM19.1712 12.7237L19.4002 12.8239L19.4002 12.8239L19.1712 12.7237ZM19.5023 12.4178L19.4205 12.1815H19.4205L19.5023 12.4178ZM19.7308 12.3885L19.7111 12.6377L19.721 12.6385H19.7308V12.3885ZM21.8588 12.3885V12.6385H21.8701L21.8813 12.6375L21.8588 12.3885ZM22.102 12.4198L22.0172 12.655V12.655L22.102 12.4198ZM22.3089 12.5508L22.1327 12.7281L22.1327 12.7281L22.3089 12.5508ZM22.4412 12.757L22.6758 12.6708L22.6758 12.6707L22.4412 12.757ZM22.4739 12.9997L22.2248 12.9786L22.2239 12.9891V12.9997H22.4739ZM22.4739 15.1335H22.2239V15.1433L22.2247 15.1532L22.4739 15.1335ZM22.4446 15.3618L22.2084 15.2799L22.2084 15.2799L22.4446 15.3618ZM22.1385 15.6929L22.0383 15.4638L22.0383 15.4638L22.1385 15.6929ZM21.6875 15.6929L21.7877 15.4638H21.7877L21.6875 15.6929ZM21.3814 15.3618L21.6176 15.2799L21.6176 15.2799L21.3814 15.3618ZM21.3523 15.1335L21.6015 15.1532L21.6023 15.1433V15.1335H21.3523ZM21.3523 14.3163H21.6023V13.7532L21.1846 14.1308L21.3523 14.3163ZM21.2922 14.3701L21.1258 14.1835L21.1258 14.1835L21.2922 14.3701ZM25.5818 8.99899C25.8716 9.22287 26.0652 9.54862 26.1234 9.91001L26.617 9.83063C26.5387 9.34369 26.2778 8.90485 25.8874 8.60329L25.5818 8.99899ZM24.5629 8.7048C24.9276 8.6699 25.2919 8.77511 25.5818 8.99899L25.8874 8.60329C25.497 8.30173 25.0063 8.16008 24.5152 8.20708L24.5629 8.7048ZM10.2121 8.70594H24.539V8.20594H10.2121V8.70594ZM9.59218 8.79454C9.78466 8.72214 9.99031 8.69175 10.1955 8.70539L10.2287 8.20649C9.95232 8.18812 9.67535 8.22906 9.41615 8.32655L9.59218 8.79454ZM9.07978 9.1251C9.22505 8.97963 9.39973 8.86693 9.59218 8.79454L9.41615 8.32655C9.15693 8.42406 8.92164 8.57587 8.72599 8.77178L9.07978 9.1251ZM8.75004 9.63782C8.82209 9.44538 8.93452 9.27056 9.07978 9.1251L8.72599 8.77178C8.53033 8.96771 8.37886 9.20322 8.28178 9.46251L8.75004 9.63782ZM8.66193 10.2409C8.64789 10.036 8.67797 9.83034 8.75004 9.63782L8.28178 9.46251C8.18474 9.72173 8.14417 9.99877 8.1631 10.2751L8.66193 10.2409ZM8.66251 16.9562V10.258H8.16251V16.9562H8.66251ZM8.66251 17.1168V16.9562H8.16251V17.1168H8.66251ZM8.69911 17.2212C8.678 17.1827 8.66525 17.1402 8.66169 17.0965L8.16334 17.1372C8.17262 17.251 8.20582 17.3615 8.26071 17.4616L8.69911 17.2212ZM8.78424 17.3198C8.74919 17.2932 8.72017 17.2596 8.69911 17.2212L8.26071 17.4616C8.31565 17.5618 8.39112 17.6492 8.48202 17.7182L8.78424 17.3198ZM8.90217 17.3752C8.85942 17.3653 8.81927 17.3464 8.78424 17.3198L8.48202 17.7182C8.57294 17.7871 8.67736 17.8362 8.7886 17.8622L8.90217 17.3752ZM9.03261 17.3778C8.98947 17.3861 8.94499 17.3852 8.90217 17.3752L8.7886 17.8622C8.89978 17.8881 9.01525 17.8903 9.12738 17.8687L9.03261 17.3778ZM9.22542 17.254C9.17827 17.3182 9.10889 17.3624 9.0308 17.3781L9.12919 17.8683C9.32946 17.8281 9.50742 17.7146 9.62832 17.5501L9.22542 17.254ZM9.28559 17.0315C9.29399 17.1106 9.27254 17.1899 9.22542 17.254L9.62832 17.5501C9.74927 17.3855 9.80435 17.1818 9.7828 16.9787L9.28559 17.0315ZM9.2842 10.251V17.0051H9.7842V10.251H9.2842ZM10.2087 9.33046C9.94425 9.33046 9.69776 9.38952 9.52079 9.56566C9.34357 9.74206 9.2842 9.9879 9.2842 10.251H9.7842C9.7842 10.0531 9.82969 9.96366 9.87351 9.92004C9.91759 9.87617 10.0083 9.83046 10.2087 9.83046V9.33046ZM24.581 9.33046H10.2087V9.83046H24.581V9.33046ZM25.5299 10.2789C25.5299 10.0001 25.4687 9.7453 25.285 9.5652C25.1023 9.38608 24.8487 9.33046 24.581 9.33046V9.83046C24.792 9.83046 24.8879 9.8761 24.935 9.92224C24.981 9.96739 25.0299 10.0618 25.0299 10.2789H25.5299ZM25.5299 24.6288V10.2789H25.0299V24.6288H25.5299ZM24.581 25.5772C24.8589 25.5772 25.1141 25.5174 25.2946 25.3342C25.4744 25.1517 25.5299 24.8977 25.5299 24.6288H25.0299C25.0299 24.8418 24.984 24.937 24.9384 24.9833C24.8936 25.0288 24.7993 25.0772 24.581 25.0772V25.5772ZM17.739 25.5772H24.581V25.0772H17.739V25.5772ZM17.6135 25.6155C17.6556 25.5923 17.7024 25.5791 17.7503 25.577L17.7277 25.0775C17.6029 25.0831 17.4813 25.1175 17.372 25.1777L17.6135 25.6155ZM17.5079 25.7107C17.5353 25.6713 17.5715 25.6388 17.6135 25.6155L17.372 25.1777C17.2627 25.238 17.1688 25.3227 17.0975 25.4252L17.5079 25.7107ZM17.4554 25.8427C17.4625 25.7954 17.4805 25.7502 17.5079 25.7107L17.0975 25.4252C17.0263 25.5276 16.9794 25.6451 16.9609 25.7686L17.4554 25.8427ZM17.4669 25.9842C17.4522 25.9386 17.4483 25.8902 17.4554 25.8427L16.9609 25.7686C16.9425 25.892 16.9526 26.0181 16.9908 26.137L17.4669 25.9842ZM17.7097 26.2191C17.5965 26.1697 17.5069 26.0785 17.4597 25.9648L16.9979 26.1564C17.0947 26.3898 17.2784 26.5765 17.51 26.6774L17.7097 26.2191ZM24.948 26.1982H17.6098V26.6982H24.948V26.1982ZM25.5559 25.907C25.334 26.0268 25.1032 26.1289 24.8653 26.2123L25.0308 26.6842C25.2936 26.592 25.5485 26.4792 25.7935 26.3469L25.5559 25.907ZM25.9248 25.5397C25.8243 25.6905 25.6934 25.8187 25.5405 25.9161L25.809 26.3378C26.0206 26.2031 26.2018 26.0257 26.3409 25.8168L25.9248 25.5397ZM26.1238 25.0402C26.093 25.2187 26.0252 25.3889 25.9248 25.5397L26.3409 25.8168C26.48 25.608 26.5739 25.3725 26.6165 25.1253L26.1238 25.0402ZM26.1645 24.9091C26.1593 24.9202 26.1202 24.9939 26.1202 25.0828H26.6202C26.6202 25.1079 26.6146 25.1253 26.6129 25.1302C26.612 25.1328 26.6116 25.1337 26.6124 25.1318C26.6133 25.1296 26.6146 25.1269 26.6174 25.1209L26.1645 24.9091ZM26.1588 24.9221L26.1588 24.9222L26.6231 25.1078L26.6231 25.1078L26.1588 24.9221ZM26.1674 24.9052C26.1691 24.899 26.1705 24.8958 26.17 24.8969C26.1698 24.8974 26.1693 24.8985 26.1684 24.9007C26.1674 24.9029 26.1662 24.9053 26.1645 24.9091L26.6174 25.1208C26.6225 25.1101 26.639 25.0761 26.6497 25.0368L26.1674 24.9052ZM26.1586 9.89477V24.971H26.6586V9.89477H26.1586ZM26.2416 10.0847C26.2467 10.0878 26.2535 10.0921 26.26 10.0963C26.263 10.0983 26.2656 10.0999 26.2674 10.1011C26.2683 10.1017 26.2689 10.1021 26.2693 10.1024C26.2695 10.1025 26.2697 10.1026 26.2697 10.1027C26.2698 10.1027 26.2698 10.1027 26.2698 10.1027C26.2698 10.1027 26.2698 10.1027 26.2698 10.1027C26.2698 10.1027 26.2697 10.1027 26.2697 10.1027C26.2697 10.1027 26.2697 10.1027 26.2697 10.1027C26.2697 10.1027 26.2697 10.1027 26.2697 10.1027C26.2697 10.1027 26.2697 10.1027 26.4086 9.89477C26.5474 9.68688 26.5474 9.68688 26.5474 9.68687C26.5474 9.68687 26.5474 9.68687 26.5474 9.68687C26.5474 9.68686 26.5474 9.68686 26.5474 9.68686C26.5474 9.68685 26.5474 9.68684 26.5473 9.68683C26.5473 9.68681 26.5473 9.68678 26.5472 9.68675C26.5472 9.6867 26.547 9.68663 26.5469 9.68654C26.5467 9.68638 26.5463 9.68616 26.5459 9.68589C26.5451 9.68536 26.544 9.68462 26.5427 9.68373C26.54 9.68196 26.5362 9.6795 26.5319 9.67666C26.5235 9.67124 26.5111 9.66333 26.4988 9.65592L26.2416 10.0847ZM10.0758 18.816H14.6535V18.316H10.0758V18.816ZM9.10064 19.2295C9.36062 18.9697 9.71174 18.8213 10.0794 18.8159L10.0721 18.316C9.57448 18.3233 9.09918 18.5241 8.74719 18.8758L9.10064 19.2295ZM8.68692 20.2075C8.69229 19.8401 8.84067 19.4893 9.10064 19.2295L8.74719 18.8758C8.39518 19.2276 8.19425 19.7027 8.18698 20.2002L8.68692 20.2075ZM8.68695 24.7788V20.2039H8.18695V24.7788H8.68695ZM8.90268 25.5256C8.75913 25.3041 8.68411 25.0453 8.68694 24.7814L8.18697 24.7761C8.18308 25.1383 8.28606 25.4936 8.4831 25.7976L8.90268 25.5256ZM9.49404 26.0267C9.2519 25.9214 9.04624 25.7471 8.90268 25.5256L8.4831 25.7976C8.68011 26.1015 8.96234 26.3407 9.29461 26.4852L9.49404 26.0267ZM9.93854 26.1833C9.78648 26.1397 9.63717 26.087 9.49132 26.0256L9.29732 26.4864C9.46137 26.5555 9.62936 26.6147 9.80048 26.6639L9.93854 26.1833ZM14.8526 26.1736H9.86951V26.6736H14.8526V26.1736ZM14.8834 26.1469C14.8351 26.1596 14.7883 26.1769 14.7434 26.1987L14.9618 26.6485C14.9774 26.6409 14.9937 26.6349 15.0105 26.6305L14.8834 26.1469ZM15.7077 25.6602C15.5002 25.9085 15.2143 26.0791 14.897 26.1437L14.9969 26.6337C15.4252 26.5464 15.8112 26.3162 16.0914 25.9807L15.7077 25.6602ZM16.0388 24.7769C16.0318 25.1004 15.9151 25.4118 15.7077 25.6602L16.0914 25.9807C16.3716 25.6452 16.5293 25.2245 16.5387 24.7876L16.0388 24.7769ZM16.0387 20.2039V24.7823H16.5387V20.2039H16.0387ZM15.626 19.2305C15.8854 19.4903 16.0334 19.8407 16.0388 20.2075L16.5387 20.2002C16.5315 19.7034 16.331 19.2289 15.9799 18.8772L15.626 19.2305ZM14.6493 18.8159C15.0165 18.8221 15.3667 18.9707 15.626 19.2305L15.9799 18.8772C15.6288 18.5256 15.1546 18.3243 14.6576 18.316L14.6493 18.8159ZM15.3744 25.0188C15.415 24.907 15.4306 24.7873 15.4196 24.6684L14.9217 24.7145C14.9259 24.7596 14.92 24.8053 14.9044 24.8482L15.3744 25.0188ZM15.1842 25.3166C15.2688 25.2325 15.3338 25.1308 15.3744 25.0188L14.9044 24.8483C14.8889 24.891 14.8641 24.9299 14.8318 24.9619L15.1842 25.3166ZM14.8852 25.5049C14.9975 25.465 15.0997 25.4007 15.1842 25.3166L14.8318 24.9619C14.7995 24.994 14.7605 25.0186 14.7176 25.0339L14.8852 25.5049ZM14.5346 25.5479C14.6533 25.5596 14.7729 25.5449 14.8852 25.5049L14.7176 25.0339C14.6746 25.0492 14.6289 25.0548 14.5836 25.0503L14.5346 25.5479ZM10.1702 25.5491H14.5591V25.0491H10.1702V25.5491ZM9.84352 25.5033C9.95521 25.5434 10.0743 25.5587 10.1925 25.5481L10.1478 25.0501C10.102 25.0542 10.0558 25.0483 10.0126 25.0327L9.84352 25.5033ZM9.5457 25.3158C9.63021 25.3993 9.73195 25.4632 9.84352 25.5033L10.0126 25.0327C9.96915 25.0172 9.92972 24.9923 9.89712 24.9601L9.5457 25.3158ZM9.35474 25.0203C9.39611 25.1314 9.46115 25.2322 9.5457 25.3158L9.89712 24.9601C9.86456 24.9279 9.83937 24.889 9.82327 24.8458L9.35474 25.0203ZM9.30581 24.6719C9.29653 24.7904 9.31337 24.9093 9.35474 25.0203L9.82327 24.8458C9.80717 24.8026 9.80072 24.7566 9.80429 24.711L9.30581 24.6719ZM9.30505 20.3051V24.6915H9.80505V20.3051H9.30505ZM9.35246 19.9724C9.31105 20.0858 9.29504 20.2072 9.30609 20.3279L9.80401 20.2823C9.79973 20.2356 9.8059 20.1883 9.82214 20.1439L9.35246 19.9724ZM9.54602 19.6707C9.4598 19.7559 9.39387 19.859 9.35246 19.9724L9.82214 20.1439C9.83838 20.0994 9.8641 20.0593 9.89748 20.0263L9.54602 19.6707ZM9.85015 19.4805C9.73616 19.5206 9.63218 19.5855 9.54602 19.6707L9.89748 20.0263C9.93092 19.9932 9.9715 19.9679 10.0162 19.9521L9.85015 19.4805ZM10.2061 19.4383C10.0858 19.4259 9.96425 19.4403 9.85015 19.4805L10.0162 19.9521C10.0607 19.9365 10.1081 19.9309 10.155 19.9357L10.2061 19.4383ZM14.5485 19.437H10.1806V19.937H14.5485V19.437ZM14.8787 19.4788C14.7639 19.4388 14.6415 19.425 14.5208 19.4385L14.5763 19.9354C14.6228 19.9302 14.67 19.9355 14.7142 19.9509L14.8787 19.4788ZM15.1841 19.6697C15.0979 19.5841 14.9935 19.5188 14.8787 19.4788L14.7142 19.9509C14.7583 19.9663 14.7985 19.9914 14.8316 20.0244L15.1841 19.6697ZM15.3769 19.9739C15.3362 19.8594 15.2704 19.7555 15.1841 19.6697L14.8316 20.0244C14.8647 20.0573 14.89 20.0972 14.9057 20.1413L15.3769 19.9739ZM15.4192 20.3315C15.4321 20.2106 15.4175 20.0883 15.3769 19.9739L14.9057 20.1413C14.9214 20.1854 14.9269 20.2324 14.922 20.2787L15.4192 20.3315ZM15.438 24.6915C15.438 23.2264 15.4323 21.7636 15.4206 20.3031L14.9206 20.3071C14.9323 21.7662 14.938 23.2277 14.938 24.6915H15.438ZM15.1706 24.9415H15.188V24.4415H15.1706V24.9415ZM18.0417 17.9678L21.3648 14.6432L21.0111 14.2897L17.688 17.6144L18.0417 17.9678ZM17.6635 18.2102C17.8163 18.164 17.9527 18.0745 18.0558 17.9525L17.6739 17.6297C17.6332 17.6779 17.5794 17.7133 17.5189 17.7315L17.6635 18.2102ZM17.1942 18.2128C17.3476 18.2573 17.5106 18.2564 17.6635 18.2102L17.5189 17.7315C17.4584 17.7498 17.394 17.7502 17.3333 17.7326L17.1942 18.2128ZM16.8577 18.0194C16.9527 18.1108 17.0688 18.1774 17.1958 18.2133L17.3317 17.7321C17.2839 17.7186 17.2402 17.6935 17.2044 17.6591L16.8577 18.0194ZM16.6509 17.6889C16.6916 17.8144 16.7626 17.9279 16.8577 18.0194L17.2044 17.6591C17.1686 17.6246 17.1418 17.5819 17.1265 17.5347L16.6509 17.6889ZM16.6244 17.3C16.6011 17.4299 16.6103 17.5635 16.6509 17.6889L17.1265 17.5347C17.1112 17.4874 17.1078 17.4371 17.1165 17.3884L16.6244 17.3ZM16.7846 16.9446C16.7028 17.0481 16.6477 17.1701 16.6244 17.3L17.1165 17.3884C17.1253 17.3396 17.146 17.2937 17.1768 17.2547L16.7846 16.9446ZM16.946 16.7743C16.8886 16.826 16.8354 16.8821 16.7868 16.9418L17.1746 17.2574C17.2072 17.2174 17.2427 17.18 17.2809 17.1456L16.946 16.7743ZM20.2114 13.507C19.1161 14.5969 18.0244 15.6891 16.9361 16.7837L17.2907 17.1362C18.3783 16.0423 19.4695 14.9507 20.5641 13.8614L20.2114 13.507ZM20.3955 13.3566C20.332 13.4006 20.2719 13.4495 20.2157 13.5028L20.5597 13.8656C20.5974 13.8299 20.6378 13.797 20.6806 13.7673L20.3955 13.3566ZM20.287 13.6151L20.3114 13.6675L20.7647 13.4564L20.7403 13.404L20.287 13.6151ZM19.7308 13.7595H20.5136V13.2595H19.7308V13.7595ZM19.4205 13.7165C19.5264 13.7532 19.6387 13.7676 19.7505 13.7588L19.7111 13.2603C19.6681 13.2637 19.6249 13.2582 19.5842 13.2441L19.4205 13.7165ZM19.135 13.5456C19.2174 13.6218 19.3148 13.6799 19.4205 13.7165L19.5842 13.2441C19.5433 13.2299 19.5058 13.2075 19.4742 13.1783L19.135 13.5456ZM18.9421 13.2747C18.987 13.377 19.0524 13.4694 19.135 13.5456L19.4742 13.1783C19.4428 13.1493 19.4176 13.1139 19.4002 13.0741L18.9421 13.2747ZM18.8739 12.949C18.8739 13.0613 18.8973 13.1722 18.9421 13.2747L19.4002 13.0741C19.3828 13.0345 19.3739 12.9919 19.3739 12.949H18.8739ZM18.9421 12.6234C18.8973 12.7259 18.8739 12.8368 18.8739 12.949H19.3739C19.3739 12.9062 19.3828 12.8636 19.4002 12.8239L18.9421 12.6234ZM19.135 12.3524C19.0524 12.4287 18.987 12.521 18.9421 12.6234L19.4002 12.8239C19.4176 12.7842 19.4428 12.7488 19.4742 12.7198L19.135 12.3524ZM19.4205 12.1815C19.3148 12.2182 19.2174 12.2763 19.135 12.3524L19.4742 12.7198C19.5058 12.6906 19.5433 12.6682 19.5842 12.654L19.4205 12.1815ZM19.7505 12.1393C19.6387 12.1305 19.5264 12.1449 19.4205 12.1815L19.5842 12.654C19.6249 12.6399 19.6681 12.6344 19.7111 12.6377L19.7505 12.1393ZM21.8588 12.1385H19.7308V12.6385H21.8588V12.1385ZM22.1868 12.1846C22.0747 12.1442 21.955 12.1288 21.8364 12.1395L21.8813 12.6375C21.9273 12.6334 21.9738 12.6393 22.0172 12.655L22.1868 12.1846ZM22.4852 12.3735C22.4007 12.2895 22.2989 12.2251 22.1868 12.1846L22.0172 12.655C22.0605 12.6706 22.0999 12.6956 22.1327 12.7281L22.4852 12.3735ZM22.6758 12.6707C22.6348 12.559 22.5697 12.4575 22.4852 12.3735L22.1327 12.7281C22.1654 12.7606 22.1906 12.7999 22.2065 12.8432L22.6758 12.6707ZM22.723 13.0208C22.7331 12.9019 22.7169 12.7824 22.6758 12.6708L22.2065 12.8432C22.2225 12.8866 22.2287 12.9328 22.2248 12.9786L22.723 13.0208ZM22.7239 15.1335V12.9997H22.2239V15.1335H22.7239ZM22.6808 15.4437C22.7174 15.338 22.732 15.2257 22.7232 15.1138L22.2247 15.1532C22.2281 15.1959 22.2225 15.2391 22.2084 15.2799L22.6808 15.4437ZM22.5097 15.7291C22.5858 15.6468 22.6441 15.5497 22.6808 15.4437L22.2084 15.2799C22.1943 15.3206 22.1719 15.358 22.1426 15.3896L22.5097 15.7291ZM22.2386 15.9219C22.3413 15.877 22.4336 15.8114 22.5097 15.7291L22.1426 15.3896C22.1134 15.4213 22.0779 15.4465 22.0383 15.4638L22.2386 15.9219ZM21.9131 15.99C22.0252 15.99 22.136 15.9668 22.2386 15.9219L22.0383 15.4638C21.9988 15.4811 21.9562 15.49 21.9131 15.49V15.99ZM21.5874 15.9219C21.6901 15.9668 21.801 15.99 21.9131 15.99V15.49C21.8699 15.49 21.8272 15.4811 21.7877 15.4638L21.5874 15.9219ZM21.3163 15.7291C21.3924 15.8114 21.4847 15.877 21.5874 15.9219L21.7877 15.4638C21.7482 15.4465 21.7127 15.4213 21.6834 15.3896L21.3163 15.7291ZM21.1452 15.4437C21.1819 15.5497 21.2402 15.6468 21.3163 15.7291L21.6834 15.3896C21.6541 15.358 21.6317 15.3206 21.6176 15.2799L21.1452 15.4437ZM21.103 15.1138C21.0942 15.2253 21.1084 15.3377 21.1452 15.4437L21.6176 15.2799C21.6036 15.2394 21.5981 15.1963 21.6015 15.1532L21.103 15.1138ZM21.1023 14.3163V15.1335H21.6023V14.3163H21.1023ZM21.4585 14.5567C21.4765 14.5407 21.4968 14.5226 21.5199 14.5017L21.1846 14.1308C21.163 14.1504 21.1438 14.1675 21.1258 14.1835L21.4585 14.5567ZM21.3647 14.6433C21.3903 14.6176 21.4165 14.5942 21.4585 14.5567L21.1258 14.1835C21.0859 14.2191 21.0487 14.2521 21.0112 14.2896L21.3647 14.6433Z" fill="white"/>
</svg>
