<svg width="34" height="34" viewBox="0 0 34 34" fill="none" xmlns="http://www.w3.org/2000/svg">
<path fill-rule="evenodd" clip-rule="evenodd" d="M16.625 7C13.6763 7 11.2859 9.39042 11.2859 12.3391C11.2859 15.2879 13.6763 17.6783 16.625 17.6783C19.5737 17.6783 21.9641 15.2879 21.9641 12.3391C21.9641 9.39042 19.5737 7 16.625 7ZM12.8215 12.3391C12.8215 10.2385 14.5244 8.53567 16.625 8.53567C18.7256 8.53567 20.4285 10.2385 20.4285 12.3391C20.4285 14.4397 18.7256 16.1426 16.625 16.1426C14.5244 16.1426 12.8215 14.4397 12.8215 12.3391ZM16.625 19.9279C14.4864 19.9279 12.3912 20.4357 10.6633 21.3915C8.93605 22.3469 7.64238 23.7154 7.04612 25.3195C6.89915 25.7149 7.11643 26.1414 7.51324 26.2777L7.57701 26.092L7.51324 26.2777C7.90682 26.4128 8.34802 26.2184 8.4935 25.827C8.9419 24.6206 9.95016 23.5057 11.425 22.6899C12.8992 21.8744 14.7274 21.4222 16.625 21.4222C18.5226 21.4222 20.3508 21.8745 21.825 22.6899C23.2998 23.5057 24.3081 24.6206 24.7565 25.827C24.902 26.2184 25.3432 26.4128 25.7368 26.2777C26.1336 26.1414 26.3509 25.7149 26.2039 25.3195C25.6076 23.7154 24.314 22.3469 22.5867 21.3915C20.8588 20.4357 18.7636 19.9279 16.625 19.9279Z" fill="white"/>
</svg>
