<svg width="34" height="34" viewBox="0 0 34 34" fill="none" xmlns="http://www.w3.org/2000/svg">
<path fill-rule="evenodd" clip-rule="evenodd" d="M23.4756 12.0148C23.7685 11.7219 23.7685 11.247 23.4756 10.9541L23.3623 10.8409C23.0695 10.548 22.5946 10.548 22.3017 10.8409L17.1579 15.9847L12.0139 10.8407C11.721 10.5478 11.2461 10.5478 10.9532 10.8407L10.84 10.954C10.5471 11.2468 10.5471 11.7217 10.84 12.0146L15.984 17.1586L10.8408 22.3017C10.5479 22.5946 10.5479 23.0695 10.8408 23.3624L10.9541 23.4756C11.2469 23.7685 11.7218 23.7685 12.0147 23.4756L17.1579 18.3325L22.3009 23.4755C22.5938 23.7684 23.0686 23.7684 23.3615 23.4755L23.4748 23.3622C23.7677 23.0694 23.7677 22.5945 23.4748 22.3016L18.3318 17.1586L23.4756 12.0148Z" fill="white"/>
<path d="M17.1579 15.9847L17.0518 16.0908L17.1579 16.1968L17.2639 16.0908L17.1579 15.9847ZM10.9532 10.8407L10.8472 10.7347L10.9532 10.8407ZM10.84 10.954L10.9461 11.06L10.84 10.954ZM10.84 12.0146L10.7339 12.1207L10.84 12.0146ZM15.984 17.1586L16.09 17.2647L16.1961 17.1586L16.09 17.0525L15.984 17.1586ZM17.1579 18.3325L17.2639 18.2264L17.1579 18.1203L17.0518 18.2264L17.1579 18.3325ZM18.3318 17.1586L18.2257 17.0525L18.1196 17.1586L18.2257 17.2647L18.3318 17.1586ZM23.3695 11.0602C23.6038 11.2945 23.6038 11.6744 23.3695 11.9087L23.5816 12.1208C23.9331 11.7694 23.9331 11.1995 23.5816 10.848L23.3695 11.0602ZM23.2563 10.9469L23.3695 11.0602L23.5816 10.848L23.4684 10.7348L23.2563 10.9469ZM22.4078 10.9469C22.6421 10.7126 23.022 10.7126 23.2563 10.9469L23.4684 10.7348C23.1169 10.3833 22.5471 10.3833 22.1956 10.7348L22.4078 10.9469ZM17.2639 16.0908L22.4078 10.9469L22.1956 10.7348L17.0518 15.8786L17.2639 16.0908ZM11.9078 10.9468L17.0518 16.0908L17.2639 15.8786L12.12 10.7347L11.9078 10.9468ZM11.0593 10.9468C11.2936 10.7125 11.6735 10.7125 11.9078 10.9468L12.12 10.7347C11.7685 10.3832 11.1986 10.3832 10.8472 10.7347L11.0593 10.9468ZM10.9461 11.06L11.0593 10.9468L10.8472 10.7347L10.7339 10.8479L10.9461 11.06ZM10.9461 11.9085C10.7117 11.6742 10.7117 11.2943 10.9461 11.06L10.7339 10.8479C10.3825 11.1994 10.3825 11.7692 10.7339 12.1207L10.9461 11.9085ZM16.09 17.0525L10.9461 11.9085L10.7339 12.1207L15.8779 17.2647L16.09 17.0525ZM10.9469 22.4078L16.09 17.2647L15.8779 17.0525L10.7348 22.1957L10.9469 22.4078ZM10.9469 23.2563C10.7126 23.022 10.7126 22.6421 10.9469 22.4078L10.7348 22.1957C10.3833 22.5471 10.3833 23.117 10.7348 23.4685L10.9469 23.2563ZM11.0601 23.3696L10.9469 23.2563L10.7348 23.4685L10.848 23.5817L11.0601 23.3696ZM11.9086 23.3696C11.6743 23.6039 11.2944 23.6039 11.0601 23.3696L10.848 23.5817C11.1995 23.9332 11.7693 23.9332 12.1208 23.5817L11.9086 23.3696ZM17.0518 18.2264L11.9086 23.3696L12.1208 23.5817L17.2639 18.4385L17.0518 18.2264ZM22.4069 23.3694L17.2639 18.2264L17.0518 18.4385L22.1948 23.5815L22.4069 23.3694ZM23.2555 23.3694C23.0211 23.6037 22.6412 23.6037 22.4069 23.3694L22.1948 23.5815C22.5463 23.933 23.1161 23.933 23.4676 23.5815L23.2555 23.3694ZM23.3687 23.2562L23.2555 23.3694L23.4676 23.5815L23.5808 23.4683L23.3687 23.2562ZM23.3687 22.4077C23.603 22.642 23.603 23.0219 23.3687 23.2562L23.5808 23.4683C23.9323 23.1168 23.9323 22.547 23.5808 22.1955L23.3687 22.4077ZM18.2257 17.2647L23.3687 22.4077L23.5808 22.1955L18.4378 17.0525L18.2257 17.2647ZM23.3695 11.9087L18.2257 17.0525L18.4378 17.2647L23.5816 12.1208L23.3695 11.9087Z" fill="white"/>
</svg>
