<svg width="108" height="118" viewBox="0 0 108 118" fill="none" xmlns="http://www.w3.org/2000/svg">
<rect x="2.0625" y="34.75" width="76.827" height="89.6373" rx="8.70093" transform="rotate(-22.5957 2.0625 34.75)" fill="#874DFF"/>
<rect x="8.76562" y="37.5234" width="66.5834" height="79.393" rx="8.70093" transform="rotate(-22.5957 8.76562 37.5234)" fill="white"/>
<rect x="24.7227" y="22.5469" width="23.0481" height="12.8053" rx="4.35047" transform="rotate(-22.5957 24.7227 22.5469)" fill="#D3A7FF"/>
<rect x="28.4688" y="18.2188" width="12.8045" height="5.12213" rx="2.56106" transform="rotate(-22.5957 28.4688 18.2188)" fill="#D3A7FF"/>
<rect x="20.7773" y="46.375" width="48.6571" height="5.12213" rx="2.56106" transform="rotate(-22.5957 20.7773 46.375)" fill="#9B6BFF"/>
<rect x="26.6836" y="60.5625" width="48.6571" height="5.12213" rx="2.56106" transform="rotate(-22.5957 26.6836 60.5625)" fill="#9B6BFF"/>
<rect x="32.582" y="74.75" width="48.6571" height="5.12213" rx="2.56106" transform="rotate(-22.5957 32.582 74.75)" fill="#9B6BFF"/>
<rect x="38.4883" y="88.9375" width="17.9263" height="5.12213" rx="2.56106" transform="rotate(-22.5957 38.4883 88.9375)" fill="#9B6BFF"/>
</svg>
