<svg xmlns="http://www.w3.org/2000/svg" width="18" height="17" viewBox="0 0 18 17" fill="none">
  <path fill-rule="evenodd" clip-rule="evenodd" d="M14.5871 1.2535H15.1878C15.2725 1.25163 15.3568 1.26697 15.4355 1.29855C15.5142 1.33014 15.5856 1.37733 15.6456 1.43729C15.7056 1.49724 15.7527 1.56872 15.7843 1.64741C15.8159 1.7261 15.8313 1.81036 15.8294 1.89513V2.49581C15.8203 2.58238 15.8294 2.66991 15.8563 2.75271C15.8832 2.83551 15.9272 2.91174 15.9855 2.97644C16.0437 3.04114 16.1149 3.09286 16.1944 3.12827C16.274 3.16368 16.3601 3.18199 16.4471 3.18199C16.5342 3.18199 16.6203 3.16368 16.6998 3.12827C16.7793 3.09286 16.8505 3.04114 16.9088 2.97644C16.967 2.91174 17.011 2.83551 17.0379 2.75271C17.0648 2.66991 17.074 2.58238 17.0649 2.49581V2.1272V1.87465C17.0715 1.45988 16.9365 1.05525 16.6821 0.727602C16.4277 0.399956 16.0691 0.168912 15.6656 0.0726384C15.3026 0.0119171 14.9343 -0.0109625 14.5666 0.00437579C14.4854 0.00250872 14.4047 0.0171171 14.3293 0.047329C14.2539 0.0775408 14.1855 0.122725 14.128 0.180146C14.0706 0.237568 14.0254 0.306036 13.9952 0.381414C13.965 0.456791 13.9504 0.537513 13.9523 0.618698C13.9494 0.702832 13.9639 0.786651 13.9948 0.86496C14.0257 0.943269 14.0723 1.01441 14.1318 1.07394C14.1914 1.13346 14.2625 1.18011 14.3408 1.211C14.4191 1.24189 14.5029 1.25635 14.5871 1.2535ZM11.4062 3.74494H2.83979C2.58331 3.73343 2.32723 3.77524 2.08773 3.86772C1.84824 3.9602 1.63053 4.10134 1.44835 4.28223C1.26617 4.46313 1.12349 4.67984 1.02932 4.91868C0.935145 5.15751 0.89153 5.41327 0.901227 5.66982V14.2567C0.891709 14.5115 0.934758 14.7655 1.02769 15.0029C1.12062 15.2403 1.26147 15.456 1.44141 15.6366C1.62136 15.8171 1.83657 15.9587 2.07363 16.0525C2.31069 16.1463 2.5645 16.1903 2.81929 16.1816H11.4267C11.6797 16.1901 11.9318 16.1467 12.1674 16.0542C12.403 15.9617 12.6173 15.8219 12.7969 15.6436C12.9766 15.4652 13.1178 15.252 13.212 15.017C13.3063 14.782 13.3514 14.5303 13.3448 14.2772V5.69029C13.3574 5.43207 13.3159 5.17406 13.2231 4.93278C13.1302 4.6915 12.988 4.47226 12.8055 4.28913C12.623 4.10599 12.4043 3.96299 12.1633 3.86928C11.9224 3.77557 11.6645 3.73323 11.4062 3.74494ZM12.0888 14.1953C12.0888 14.7004 11.8431 14.9393 11.3311 14.9393H2.90803C2.37561 14.9393 2.14354 14.7072 2.14354 14.168V5.75174C2.14354 5.21933 2.37563 4.98723 2.90122 4.98723H11.3516C11.4528 4.97648 11.5552 4.98852 11.6512 5.02246C11.7472 5.05639 11.8344 5.11137 11.9063 5.18335C11.9783 5.25534 12.0333 5.34253 12.0672 5.43851C12.1012 5.5345 12.1132 5.63684 12.1024 5.73808L12.0888 14.1953ZM16.8764 9.53938C16.9904 9.64207 17.0624 9.78334 17.0785 9.93598C17.107 10.2653 17.107 10.5964 17.0785 10.9257C16.9966 11.3629 16.7595 11.7557 16.4107 12.0316C16.062 12.3076 15.6252 12.4482 15.1809 12.4274H14.5802C14.4276 12.4114 14.2863 12.3394 14.1836 12.2253C14.0809 12.1112 14.0241 11.9632 14.0241 11.8097C14.0241 11.6562 14.0809 11.5082 14.1836 11.3941C14.2863 11.28 14.4276 11.208 14.5802 11.192H15.2014C15.2858 11.1948 15.37 11.1803 15.4486 11.1495C15.5273 11.1187 15.5988 11.0721 15.6589 11.0127C15.719 10.9533 15.7663 10.8822 15.7979 10.8039C15.8296 10.7256 15.8449 10.6416 15.843 10.5571V9.93598C15.8591 9.78334 15.9311 9.64207 16.0452 9.53938C16.1592 9.43669 16.3073 9.37986 16.4608 9.37986C16.6142 9.37986 16.7623 9.43669 16.8764 9.53938ZM4.63498 2.50947C4.63498 2.67421 4.70042 2.8322 4.81691 2.94869C4.9334 3.06517 5.09139 3.1306 5.25613 3.1306C5.42087 3.1306 5.57886 3.06517 5.69535 2.94869C5.81184 2.8322 5.87729 2.67421 5.87729 2.50947V1.92927C5.8701 1.8378 5.88283 1.74585 5.91459 1.65978C5.94635 1.5737 5.99639 1.49554 6.06126 1.43066C6.12614 1.36578 6.2043 1.31573 6.29038 1.28397C6.37646 1.25221 6.4684 1.23949 6.55987 1.24668H7.16055C7.32529 1.24668 7.48328 1.18123 7.59977 1.06474C7.71626 0.948256 7.7817 0.790266 7.7817 0.625527C7.7817 0.460787 7.71626 0.302797 7.59977 0.186308C7.48328 0.0698197 7.32529 0.00437182 7.16055 0.00437182H6.47796C6.02789 0.00162122 5.59359 0.169977 5.26296 0.475357C5.03914 0.668259 4.86518 0.912329 4.75586 1.18683C4.64653 1.46134 4.60506 1.75817 4.63498 2.05213V2.50947ZM12.0956 1.2535H9.6315C9.54993 1.2535 9.46916 1.23745 9.3938 1.20624C9.31844 1.17502 9.24996 1.12926 9.19228 1.07159C9.13461 1.01391 9.08885 0.94543 9.05763 0.870068C9.02642 0.794706 9.01035 0.713938 9.01035 0.632367C9.01035 0.550797 9.02642 0.470008 9.05763 0.394646C9.08885 0.319284 9.13461 0.250808 9.19228 0.193128C9.24996 0.135449 9.31844 0.0897146 9.3938 0.0584988C9.46916 0.027283 9.54993 0.0112128 9.6315 0.0112128H12.0956C12.1772 0.0112128 12.258 0.027283 12.3333 0.0584988C12.4087 0.0897146 12.4772 0.135449 12.5349 0.193128C12.5925 0.250808 12.6383 0.319284 12.6695 0.394646C12.7007 0.470008 12.7168 0.550797 12.7168 0.632367C12.7168 0.713938 12.7007 0.794706 12.6695 0.870068C12.6383 0.94543 12.5925 1.01391 12.5349 1.07159C12.4772 1.12926 12.4087 1.17502 12.3333 1.20624C12.258 1.23745 12.1772 1.2535 12.0956 1.2535ZM16.4573 4.36611C16.3729 4.36401 16.2889 4.37955 16.2107 4.41177C16.1326 4.44398 16.062 4.49216 16.0036 4.55319C15.9451 4.61422 15.9001 4.68676 15.8712 4.7662C15.8424 4.84565 15.8305 4.93023 15.8362 5.01455V7.45822C15.8271 7.54479 15.8363 7.6323 15.8632 7.7151C15.8901 7.7979 15.9341 7.87412 15.9923 7.93882C16.0505 8.00352 16.1217 8.05527 16.2013 8.09068C16.2808 8.12609 16.3669 8.14438 16.4539 8.14438C16.541 8.14438 16.6271 8.12609 16.7066 8.09068C16.7861 8.05527 16.8573 8.00352 16.9156 7.93882C16.9738 7.87412 17.0178 7.7979 17.0447 7.7151C17.0716 7.6323 17.0808 7.54479 17.0717 7.45822V6.23638V5.01455C17.0763 4.93105 17.0639 4.84749 17.0351 4.76897C17.0063 4.69046 16.9618 4.61863 16.9043 4.55792C16.8468 4.49721 16.7775 4.44888 16.7006 4.41589C16.6238 4.38291 16.541 4.36598 16.4573 4.36611ZM7.74075 9.34213H8.94209C9.10683 9.34213 9.26484 9.40758 9.38133 9.52407C9.49782 9.64056 9.56324 9.79855 9.56324 9.96329C9.56324 10.128 9.49782 10.286 9.38133 10.4025C9.26484 10.519 9.10683 10.5844 8.94209 10.5844H7.73392V11.8131C7.73692 11.9035 7.71944 11.9935 7.6828 12.0762C7.64616 12.159 7.5913 12.2323 7.52232 12.2909C7.4365 12.3656 7.33081 12.4138 7.21811 12.4296C7.10541 12.4453 6.99055 12.428 6.88752 12.3796C6.77373 12.3394 6.67552 12.2644 6.60689 12.1651C6.53826 12.0658 6.5027 11.9474 6.50528 11.8268V10.5571H5.24249C5.13865 10.554 5.03725 10.5249 4.94757 10.4725C4.85788 10.4201 4.78276 10.346 4.72912 10.257C4.67547 10.1681 4.645 10.0671 4.64048 9.96329C4.63596 9.8595 4.65753 9.75624 4.70324 9.66295C4.75098 9.55556 4.82984 9.46498 4.92963 9.40292C5.02942 9.34085 5.14555 9.31018 5.26297 9.31484H6.46432H6.50528V8.24999C6.4949 8.15471 6.4949 8.0586 6.50528 7.96332C6.53816 7.81199 6.62639 7.67839 6.75266 7.58874C6.87894 7.49908 7.03415 7.45984 7.18786 7.47869C7.33817 7.49225 7.47803 7.56125 7.58023 7.67229C7.68244 7.78333 7.73967 7.92843 7.74075 8.07934V9.34213Z" fill="#B3B3B3"/>
</svg>