<svg xmlns="http://www.w3.org/2000/svg" width="16" height="17" viewBox="0 0 16 17" fill="none">
  <path d="M7.99186 15.1662C9.8328 15.1662 11.4995 14.42 12.7059 13.2135C13.9123 12.0071 14.6585 10.3404 14.6585 8.49949C14.6585 6.65856 13.9123 4.99189 12.7059 3.78544C11.4995 2.57902 9.8328 1.83282 7.99186 1.83282C6.15093 1.83282 4.48426 2.57902 3.27782 3.78544C2.07139 4.99189 1.3252 6.65856 1.3252 8.49949C1.3252 10.3404 2.07139 12.0071 3.27782 13.2135C4.48426 14.42 6.15093 15.1662 7.99186 15.1662Z" fill="#FF5757" stroke="#FF5757" stroke-width="1.33333" stroke-linejoin="round"/>
  <path fill-rule="evenodd" clip-rule="evenodd" d="M8.00814 12.8338C8.46837 12.8338 8.84147 12.4607 8.84147 12.0005C8.84147 11.5403 8.46837 11.1672 8.00814 11.1672C7.5479 11.1672 7.1748 11.5403 7.1748 12.0005C7.1748 12.4607 7.5479 12.8338 8.00814 12.8338Z" fill="white"/>
  <path d="M8 4.5V9.83333" stroke="white" stroke-width="1.33333" stroke-linecap="round" stroke-linejoin="round"/>
</svg>