<svg xmlns="http://www.w3.org/2000/svg" width="18" height="18" viewBox="0 0 18 18" fill="none">
  <path fill-rule="evenodd" clip-rule="evenodd" d="M11.9224 3.74847C11.1555 3.42541 10.3321 3.25765 9.49983 3.25492C7.93191 3.25699 6.42142 3.84527 5.2651 4.90419C4.10878 5.96312 3.39021 7.41615 3.25055 8.97784C3.23431 9.13044 3.1617 9.27148 3.04694 9.37337C2.93218 9.47525 2.78352 9.53063 2.63008 9.52868C2.54233 9.52844 2.4556 9.50993 2.37541 9.47433C2.29522 9.43873 2.22332 9.38681 2.1643 9.32188C2.10528 9.25696 2.06043 9.18045 2.0326 9.09724C2.00478 9.01403 1.9946 8.92593 2.0027 8.83856C2.12858 7.44877 2.63886 6.12145 3.47641 5.00525C4.31396 3.88906 5.4457 3.02805 6.74489 2.51867C8.04409 2.00928 9.45944 1.87162 10.8324 2.1211C12.2054 2.37058 13.4819 2.99736 14.5188 3.93123V2.62755C14.5188 2.46116 14.5849 2.30158 14.7026 2.18393C14.8202 2.06627 14.9798 2.00017 15.1462 2.00017C15.3126 2.00017 15.4722 2.06627 15.5898 2.18393C15.7075 2.30158 15.7736 2.46116 15.7736 2.62755V5.22676C15.7734 5.5357 15.6506 5.83194 15.4322 6.05039C15.2137 6.26884 14.9175 6.39163 14.6086 6.3918H12.0093C11.8429 6.3918 11.6834 6.3257 11.5657 6.20805C11.4481 6.09039 11.382 5.93082 11.382 5.76443C11.382 5.59803 11.4481 5.43846 11.5657 5.3208C11.6834 5.20315 11.8429 5.13705 12.0093 5.13705H13.968C13.3847 4.5435 12.6894 4.07154 11.9224 3.74847ZM15.9536 9.68397C16.0684 9.58209 16.217 9.52671 16.3705 9.52866C16.4582 9.5289 16.5443 9.54741 16.6245 9.58301C16.7047 9.61862 16.7766 9.67053 16.8356 9.73546C16.8947 9.80038 16.9395 9.87689 16.9673 9.9601C16.9951 10.0433 17.0053 10.1314 16.9972 10.2188C16.8713 11.6086 16.3611 12.9359 15.5235 14.0521C14.686 15.1683 13.5542 16.0293 12.255 16.5387C10.9558 17.0481 9.54049 17.1857 8.16749 16.9362C6.79448 16.6868 5.51804 16.06 4.48109 15.1261V16.4298C4.48109 16.5962 4.41499 16.7558 4.29734 16.8734C4.17968 16.9911 4.02011 17.0572 3.85372 17.0572C3.68733 17.0572 3.52775 16.9911 3.41009 16.8734C3.29244 16.7558 3.22634 16.5962 3.22634 16.4298V13.8306C3.22626 13.6776 3.25634 13.526 3.31486 13.3846C3.37338 13.2433 3.45919 13.1148 3.56739 13.0066C3.67559 12.8984 3.80405 12.8126 3.94544 12.7541C4.08683 12.6955 4.23836 12.6655 4.39138 12.6655H6.99059C7.15698 12.6655 7.31656 12.7316 7.43421 12.8493C7.55187 12.967 7.61797 13.1265 7.61797 13.2929C7.61797 13.4593 7.55187 13.6189 7.43421 13.7365C7.31656 13.8542 7.15698 13.9203 6.99059 13.9203H5.03193C5.87041 14.7767 6.93695 15.3746 8.10503 15.6431C9.27311 15.9116 10.4937 15.8394 11.622 15.4351C12.7503 15.0308 13.7389 14.3113 14.4706 13.3621C15.2023 12.4128 15.6463 11.2735 15.75 10.0795C15.7662 9.9269 15.8389 9.78586 15.9536 9.68397Z" fill="#B3B3B3"/>
  <path d="M9.49983 3.25492L9.50016 3.15492L9.4997 3.15492L9.49983 3.25492ZM5.2651 4.90419L5.19757 4.83044L5.2651 4.90419ZM3.25055 8.97784L3.35 8.98842L3.35015 8.98675L3.25055 8.97784ZM2.63008 9.52868L2.63135 9.42868L2.63034 9.42868L2.63008 9.52868ZM2.37541 9.47433L2.41599 9.38293H2.41599L2.37541 9.47433ZM2.1643 9.32188L2.0903 9.38915H2.0903L2.1643 9.32188ZM2.0326 9.09724L1.93776 9.12895L1.93776 9.12895L2.0326 9.09724ZM2.0027 8.83856L2.10227 8.8478L2.10229 8.84758L2.0027 8.83856ZM3.47641 5.00525L3.5564 5.06527L3.47641 5.00525ZM6.74489 2.51867L6.70839 2.42557L6.74489 2.51867ZM14.5188 3.93123L14.4519 4.00554L14.6188 4.15587V3.93123H14.5188ZM14.7026 2.18393L14.6319 2.11322L14.6319 2.11322L14.7026 2.18393ZM15.5898 2.18393L15.6605 2.11322L15.6605 2.11322L15.5898 2.18393ZM15.7736 5.22676L15.8736 5.22682V5.22676H15.7736ZM15.4322 6.05039L15.5029 6.1211L15.4322 6.05039ZM14.6086 6.3918V6.4918H14.6086L14.6086 6.3918ZM11.5657 6.20805L11.495 6.27876H11.495L11.5657 6.20805ZM11.5657 5.3208L11.6364 5.39151H11.6364L11.5657 5.3208ZM13.968 5.13705V5.23705H14.2065L14.0393 5.06695L13.968 5.13705ZM16.3705 9.52866L16.3692 9.62866L16.3702 9.62866L16.3705 9.52866ZM15.9536 9.68397L15.8872 9.60919L15.9536 9.68397ZM16.8356 9.73546L16.7616 9.80272V9.80272L16.8356 9.73546ZM16.9673 9.9601L17.0622 9.92839L17.0622 9.92839L16.9673 9.9601ZM16.9972 10.2188L16.8977 10.2095L16.8976 10.2098L16.9972 10.2188ZM12.255 16.5387L12.2915 16.6318L12.255 16.5387ZM8.16749 16.9362L8.18536 16.8379H8.18536L8.16749 16.9362ZM4.48109 15.1261L4.54801 15.0518L4.38109 14.9015V15.1261H4.48109ZM4.29734 16.8734L4.22663 16.8027V16.8027L4.29734 16.8734ZM3.22634 13.8306H3.32634V13.8305L3.22634 13.8306ZM3.56739 13.0066L3.6381 13.0773V13.0773L3.56739 13.0066ZM3.94544 12.7541L3.9072 12.6617H3.9072L3.94544 12.7541ZM4.39138 12.6655L4.39132 12.7655H4.39138V12.6655ZM5.03193 13.9203V13.8203H4.79407L4.96047 13.9903L5.03193 13.9203ZM8.10503 15.6431L8.12743 15.5457L8.10503 15.6431ZM15.75 10.0795L15.6505 10.0689L15.6504 10.0708L15.75 10.0795ZM9.49951 3.35492C10.3185 3.35761 11.1288 3.5227 11.8836 3.84063L11.9612 3.65631C11.1821 3.32811 10.3456 3.1577 9.50016 3.15492L9.49951 3.35492ZM5.33264 4.97794C6.47055 3.93587 7.957 3.35696 9.49997 3.35492L9.4997 3.15492C7.90682 3.15702 6.37229 3.75466 5.19757 4.83044L5.33264 4.97794ZM3.35015 8.98675C3.48759 7.44991 4.19472 6.02001 5.33264 4.97794L5.19757 4.83044C4.02284 5.90622 3.29283 7.38238 3.15095 8.96893L3.35015 8.98675ZM3.11333 9.44815C3.24672 9.32973 3.33111 9.16579 3.34999 8.98842L3.15111 8.96726C3.13751 9.09509 3.07669 9.21324 2.98055 9.29858L3.11333 9.44815ZM2.6288 9.62867C2.80716 9.63094 2.97994 9.56657 3.11333 9.44815L2.98055 9.29858C2.88442 9.38393 2.75989 9.43032 2.63135 9.42868L2.6288 9.62867ZM2.33483 9.56573C2.42772 9.60697 2.52818 9.6284 2.62981 9.62868L2.63034 9.42868C2.55649 9.42848 2.48349 9.4129 2.41599 9.38293L2.33483 9.56573ZM2.0903 9.38915C2.15867 9.46435 2.24195 9.52449 2.33483 9.56573L2.41599 9.38293C2.34849 9.35296 2.28797 9.30926 2.23829 9.25462L2.0903 9.38915ZM1.93776 9.12895C1.96999 9.22534 2.02194 9.31395 2.0903 9.38915L2.23829 9.25462C2.18861 9.19997 2.15086 9.13557 2.12744 9.06553L1.93776 9.12895ZM1.90313 8.82933C1.89374 8.93052 1.90554 9.03257 1.93776 9.12895L2.12744 9.06553C2.10402 8.99549 2.09545 8.92134 2.10227 8.8478L1.90313 8.82933ZM3.39643 4.94523C2.54773 6.07628 2.03066 7.42126 1.90311 8.82954L2.10229 8.84758C2.2265 7.47628 2.72999 6.16662 3.5564 5.06527L3.39643 4.94523ZM6.70839 2.42557C5.39191 2.94173 4.24512 3.81419 3.39643 4.94523L3.5564 5.06527C4.3828 3.96392 5.49949 3.11438 6.7814 2.61177L6.70839 2.42557ZM10.8503 2.02271C9.45905 1.76991 8.02487 1.9094 6.70839 2.42557L6.7814 2.61177C8.06331 2.10915 9.45983 1.97332 10.8146 2.21949L10.8503 2.02271ZM14.5858 3.85693C13.535 2.91063 12.2416 2.27551 10.8503 2.02271L10.8146 2.21949C12.1693 2.46565 13.4288 3.08409 14.4519 4.00554L14.5858 3.85693ZM14.4188 2.62755V3.93123H14.6188V2.62755H14.4188ZM14.6319 2.11322C14.4955 2.24963 14.4188 2.43464 14.4188 2.62755H14.6188C14.6188 2.48768 14.6744 2.35354 14.7733 2.25464L14.6319 2.11322ZM15.1462 1.90017C14.9533 1.90017 14.7683 1.97681 14.6319 2.11322L14.7733 2.25464C14.8722 2.15574 15.0063 2.10017 15.1462 2.10017V1.90017ZM15.6605 2.11322C15.5241 1.97681 15.3391 1.90017 15.1462 1.90017V2.10017C15.2861 2.10017 15.4202 2.15574 15.5191 2.25464L15.6605 2.11322ZM15.8736 2.62755C15.8736 2.43464 15.797 2.24963 15.6605 2.11322L15.5191 2.25464C15.618 2.35354 15.6736 2.48768 15.6736 2.62755H15.8736ZM15.8736 5.22676V2.62755H15.6736V5.22676H15.8736ZM15.5029 6.1211C15.7401 5.88391 15.8734 5.56226 15.8736 5.22682L15.6736 5.22671C15.6734 5.50914 15.5612 5.77996 15.3615 5.97968L15.5029 6.1211ZM14.6086 6.4918C14.944 6.49162 15.2657 6.35829 15.5029 6.1211L15.3615 5.97968C15.1618 6.17939 14.8909 6.29165 14.6085 6.2918L14.6086 6.4918ZM12.0093 6.4918H14.6086V6.2918H12.0093V6.4918ZM11.495 6.27876C11.6314 6.41517 11.8164 6.4918 12.0093 6.4918V6.2918C11.8695 6.2918 11.7353 6.23624 11.6364 6.13734L11.495 6.27876ZM11.282 5.76443C11.282 5.95734 11.3586 6.14235 11.495 6.27876L11.6364 6.13734C11.5375 6.03843 11.482 5.90429 11.482 5.76443H11.282ZM11.495 5.25009C11.3586 5.3865 11.282 5.57151 11.282 5.76443H11.482C11.482 5.62456 11.5375 5.49042 11.6364 5.39151L11.495 5.25009ZM12.0093 5.03705C11.8164 5.03705 11.6314 5.11368 11.495 5.25009L11.6364 5.39151C11.7353 5.29261 11.8695 5.23705 12.0093 5.23705V5.03705ZM13.968 5.03705H12.0093V5.23705H13.968V5.03705ZM11.8836 3.84063C12.6384 4.15856 13.3226 4.62303 13.8967 5.20714L14.0393 5.06695C13.4467 4.46398 12.7404 3.98451 11.9612 3.65631L11.8836 3.84063ZM16.3718 9.42867C16.1934 9.4264 16.0206 9.49077 15.8872 9.60919L16.02 9.75876C16.1161 9.67341 16.2407 9.62702 16.3692 9.62866L16.3718 9.42867ZM16.6651 9.49161C16.5723 9.45042 16.4725 9.42894 16.3707 9.42867L16.3702 9.62866C16.444 9.62886 16.5163 9.6444 16.5839 9.67441L16.6651 9.49161ZM16.9096 9.66819C16.8413 9.59299 16.758 9.53285 16.6651 9.49161L16.5839 9.67441C16.6514 9.70438 16.712 9.74808 16.7616 9.80272L16.9096 9.66819ZM17.0622 9.92839C17.0299 9.83201 16.978 9.74339 16.9096 9.66819L16.7616 9.80272C16.8113 9.85737 16.8491 9.92177 16.8725 9.99181L17.0622 9.92839ZM17.0968 10.228C17.1062 10.1268 17.0944 10.0248 17.0622 9.92839L16.8725 9.99181C16.8959 10.0619 16.9045 10.136 16.8977 10.2095L17.0968 10.228ZM15.6035 14.1121C16.4522 12.9811 16.9693 11.6361 17.0968 10.2278L16.8976 10.2098C16.7734 11.5811 16.2699 12.8907 15.4435 13.9921L15.6035 14.1121ZM12.2915 16.6318C13.608 16.1156 14.7548 15.2432 15.6035 14.1121L15.4435 13.9921C14.6171 15.0934 13.5004 15.943 12.2185 16.4456L12.2915 16.6318ZM8.14961 17.0346C9.54088 17.2874 10.9751 17.1479 12.2915 16.6318L12.2185 16.4456C10.9366 16.9482 9.5401 17.084 8.18536 16.8379L8.14961 17.0346ZM4.41417 15.2004C5.46491 16.1467 6.75834 16.7818 8.14961 17.0346L8.18536 16.8379C6.83063 16.5917 5.57116 15.9733 4.54801 15.0518L4.41417 15.2004ZM4.58109 16.4298V15.1261H4.38109V16.4298H4.58109ZM4.36805 16.9441C4.50446 16.8077 4.58109 16.6227 4.58109 16.4298H4.38109C4.38109 16.5697 4.32553 16.7038 4.22663 16.8027L4.36805 16.9441ZM3.85372 17.1572C4.04663 17.1572 4.23164 17.0805 4.36805 16.9441L4.22663 16.8027C4.12772 16.9016 3.99359 16.9572 3.85372 16.9572V17.1572ZM3.33938 16.9441C3.47579 17.0805 3.6608 17.1572 3.85372 17.1572V16.9572C3.71385 16.9572 3.57971 16.9016 3.48081 16.8027L3.33938 16.9441ZM3.12634 16.4298C3.12634 16.6227 3.20297 16.8077 3.33938 16.9441L3.48081 16.8027C3.3819 16.7038 3.32634 16.5697 3.32634 16.4298H3.12634ZM3.12634 13.8306V16.4298H3.32634V13.8306H3.12634ZM3.22246 13.3464C3.15891 13.4999 3.12625 13.6645 3.12634 13.8306L3.32634 13.8305C3.32627 13.6906 3.35376 13.5521 3.40725 13.4229L3.22246 13.3464ZM3.49668 12.9359C3.37919 13.0534 3.286 13.1929 3.22246 13.3464L3.40725 13.4229C3.46075 13.2936 3.53919 13.1762 3.6381 13.0773L3.49668 12.9359ZM3.9072 12.6617C3.75367 12.7252 3.61417 12.8184 3.49668 12.9359L3.6381 13.0773C3.73701 12.9784 3.85444 12.8999 3.98368 12.8465L3.9072 12.6617ZM4.39143 12.5655C4.22527 12.5655 4.06072 12.5981 3.9072 12.6617L3.98368 12.8465C4.11293 12.793 4.25145 12.7655 4.39132 12.7655L4.39143 12.5655ZM6.99059 12.5655H4.39138V12.7655H6.99059V12.5655ZM7.50492 12.7786C7.36851 12.6422 7.1835 12.5655 6.99059 12.5655V12.7655C7.13046 12.7655 7.2646 12.8211 7.3635 12.92L7.50492 12.7786ZM7.71797 13.2929C7.71797 13.1 7.64133 12.915 7.50492 12.7786L7.3635 12.92C7.4624 13.0189 7.51797 13.153 7.51797 13.2929H7.71797ZM7.50492 13.8072C7.64133 13.6708 7.71797 13.4858 7.71797 13.2929H7.51797C7.51797 13.4328 7.4624 13.5669 7.3635 13.6658L7.50492 13.8072ZM6.99059 14.0203C7.1835 14.0203 7.36851 13.9437 7.50492 13.8072L7.3635 13.6658C7.2646 13.7647 7.13046 13.8203 6.99059 13.8203V14.0203ZM5.03193 14.0203H6.99059V13.8203H5.03193V14.0203ZM8.12743 15.5457C6.978 15.2815 5.92848 14.6931 5.10338 13.8503L4.96047 13.9903C5.81234 14.8603 6.89591 15.4678 8.08263 15.7406L8.12743 15.5457ZM11.5882 15.341C10.478 15.7388 9.27686 15.8099 8.12743 15.5457L8.08263 15.7406C9.26935 16.0134 10.5094 15.94 11.6557 15.5293L11.5882 15.341ZM14.3914 13.301C13.6714 14.2351 12.6985 14.9431 11.5882 15.341L11.6557 15.5293C12.802 15.1185 13.8064 14.3875 14.5498 13.4231L14.3914 13.301ZM15.6504 10.0708C15.5483 11.2458 15.1114 12.3669 14.3914 13.301L14.5498 13.4231C15.2931 12.4587 15.7443 11.3013 15.8496 10.0882L15.6504 10.0708ZM15.8872 9.60919C15.7538 9.72761 15.6694 9.89155 15.6506 10.0689L15.8494 10.0901C15.863 9.96225 15.9239 9.8441 16.02 9.75876L15.8872 9.60919Z" fill="#B3B3B3"/>
</svg>