<svg width="28" height="18" viewBox="0 0 28 18" fill="none" xmlns="http://www.w3.org/2000/svg">
<path d="M7.44483 18C5.95115 18 4.63562 17.6181 3.49823 16.8542C2.37455 16.0903 1.49753 15.0347 0.867171 13.6875C0.250516 12.3264 -0.0372562 10.7639 0.00385409 9C0.0449645 7.36111 0.380699 5.86111 1.01106 4.5C1.65512 3.13889 2.53899 2.04861 3.66267 1.22917C4.80006 0.409721 6.1293 0 7.65038 0C9.19887 0 10.624 0.479167 11.9259 1.4375C13.2414 2.39583 14.1458 4.05556 14.6391 6.41667H13.4058C13.7758 4.84722 14.3308 3.59722 15.0708 2.66667C15.8245 1.72222 16.6672 1.04166 17.5991 0.624998C18.5309 0.208332 19.4628 0 20.3946 0C21.7649 0 23.0257 0.354167 24.1767 1.0625C25.3278 1.75694 26.2528 2.76389 26.9517 4.08333C27.6506 5.40278 28 6.98611 28 8.83333C28 10.5833 27.678 12.1528 27.0339 13.5417C26.3898 14.9167 25.4923 16.0069 24.3412 16.8125C23.2038 17.6042 21.8883 18 20.3946 18C19.4353 18 18.4898 17.8125 17.558 17.4375C16.6261 17.0486 15.7902 16.3889 15.0502 15.4583C14.324 14.5278 13.7758 13.2361 13.4058 11.5833H14.6391C14.2417 13.2361 13.6525 14.5278 12.8714 15.4583C12.104 16.3889 11.2407 17.0486 10.2814 17.4375C9.3222 17.8125 8.37666 18 7.44483 18ZM7.69149 12.9167C8.59592 12.9167 9.43183 12.5694 10.1992 11.875C10.9803 11.1806 11.7477 10.2222 12.5014 9C11.7477 7.76389 10.9803 6.80556 10.1992 6.125C9.43183 5.43055 8.59592 5.08333 7.69149 5.08333C7.07483 5.08333 6.51299 5.24305 6.00596 5.5625C5.51264 5.88194 5.11524 6.33333 4.81377 6.91667C4.51229 7.5 4.36155 8.19444 4.36155 9C4.36155 9.80556 4.51229 10.5 4.81377 11.0833C5.11524 11.6667 5.51264 12.1181 6.00596 12.4375C6.51299 12.7569 7.07483 12.9167 7.69149 12.9167ZM20.3535 12.9167C20.9701 12.9167 21.532 12.7569 22.039 12.4375C22.546 12.1181 22.9434 11.6667 23.2312 11.0833C23.5327 10.5 23.6834 9.80556 23.6834 9C23.6834 8.19444 23.5327 7.5 23.2312 6.91667C22.9434 6.33333 22.546 5.88194 22.039 5.5625C21.532 5.24305 20.9701 5.08333 20.3535 5.08333C19.449 5.08333 18.6131 5.43055 17.8457 6.125C17.0784 6.80556 16.311 7.76389 15.5436 9C16.311 10.2222 17.0784 11.1806 17.8457 11.875C18.6131 12.5694 19.449 12.9167 20.3535 12.9167Z" fill="white"/>
</svg>
